<?xml version="1.0" ?>
<svg xmlns="http://www.w3.org/2000/svg" version="1.1" width="600" height="600">
  <defs/>
  <g>
    <path d="M 432.1951904296875 363.21942138671875 C 377.2688903808594 464.52325439453125 367.89764404296875 474.12060546875 353.49395751953125 493.0331726074219 C 238.89231872558594 496.2287292480469 263.248291015625 461.2145690917969 177.10110473632812 351.8611145019531 C 199.2042236328125 280.2616882324219 146.56312561035156 214.33355712890625 300.2272033691406 163.65113830566406 C 458.3663024902344 199.44375610351562 402.2543640136719 296.83428955078125 432.1951904296875 363.21942138671875" stroke-width="0.0" fill="rgb(255, 255, 254)" opacity="0.45480722"/>
    <path d="M 230.84837341308594 236.0540313720703 C 273.4598388671875 318.101806640625 384.3189697265625 258.63714599609375 299.5165710449219 316.3928527832031 C 199.8343505859375 253.83265686035156 193.5029754638672 243.74649047851562 199.60003662109375 260.2320861816406 C 220.3995819091797 210.5243682861328 208.6455841064453 165.6590118408203 310.4883117675781 150.33013916015625 C 327.50726318359375 202.85092163085938 234.33013916015625 173.16249084472656 230.84837341308594 236.0540313720703" stroke-width="0.0" fill="rgb(0, 5, 13)" opacity="0.9998895"/>
    <path d="M 283.4604797363281 319.8203125 C 236.00978088378906 244.76026916503906 185.61260986328125 261.1606140136719 186.8389129638672 315.1106872558594 C 160.0819549560547 325.0203552246094 172.40390014648438 302.51739501953125 169.4849395751953 288.0823669433594 C 116.13970947265625 252.0721893310547 113.35431671142578 230.66664123535156 149.66400146484375 232.69400024414062 C 196.81088256835938 262.76983642578125 267.1147155761719 253.53927612304688 283.4604797363281 319.8203125" stroke-width="0.0" fill="rgb(88, 129, 56)" opacity="0.948277"/>
    <path d="M 531.793701171875 431.56427001953125 C 480.3713684082031 370.7676086425781 532.0701293945312 312.1938171386719 393.4632873535156 275.9942626953125 C 411.9843444824219 288.4382019042969 406.94415283203125 271.5710144042969 327.6071472167969 263.6781311035156 C 321.4189453125 170.94129943847656 292.5523681640625 52.43930435180664 588.9317016601562 -4.226190090179443 C 647.2313842773438 104.41570281982422 570.1461791992188 200.1971435546875 531.793701171875 431.56427001953125" stroke-width="0.0" fill="rgb(173, 170, 161)" opacity="0.6288269"/>
    <path d="M 186.9365997314453 361.1059265136719 C 218.74575805664062 387.314453125 206.23033142089844 385.3092346191406 176.1890869140625 494.77630615234375 C 88.90111541748047 425.2711486816406 87.48976135253906 400.78338623046875 70.30316162109375 338.0391845703125 C 65.01860046386719 218.3009033203125 106.39805603027344 161.46652221679688 93.49327850341797 218.7537078857422 C 164.2998504638672 313.6808166503906 171.16375732421875 305.98992919921875 186.9365997314453 361.1059265136719" stroke-width="0.0" fill="rgb(95, 95, 85)" opacity="0.53555137"/>
    <path d="M 561.1563110351562 360.6528625488281 C 562.435546875 520.3287353515625 599.3720703125 586.992431640625 532.2310791015625 636.6265869140625 C 152.9352264404297 576.931396484375 177.64862060546875 551.0575561523438 308.53271484375 422.4012451171875 C 335.445556640625 351.6830139160156 401.180908203125 435.5111999511719 423.3780212402344 302.2078857421875 C 461.20379638671875 341.5528564453125 466.4622497558594 347.2569580078125 561.1563110351562 360.6528625488281" stroke-width="0.0" fill="rgb(196, 198, 194)" opacity="0.5496954"/>
    <path d="M 507.64495849609375 240.70932006835938 C 511.7065734863281 257.4521484375 484.40069580078125 236.99554443359375 437.7053527832031 229.0806884765625 C 383.86962890625 223.22576904296875 369.2548828125 207.43704223632812 354.24951171875 183.79823303222656 C 356.8011474609375 171.94464111328125 348.90216064453125 121.95543670654297 382.6966857910156 126.39664459228516 C 438.47308349609375 144.81509399414062 444.0679626464844 153.81979370117188 507.64495849609375 240.70932006835938" stroke-width="0.0" fill="rgb(246, 248, 240)" opacity="0.9791255"/>
    <path d="M 20.580244064331055 0.15829190611839294 C 17.9007511138916 10.158291816711426 10.580244064331055 17.47879981994629 0.5802444815635681 20.158292770385742 C -9.419755935668945 17.47879981994629 -16.740262985229492 10.158291816711426 -19.419755935668945 0.15829190611839294 C -16.740262985229492 -9.841708183288574 -9.419755935668945 -17.162214279174805 0.5802444815635681 -19.841707229614258 C 10.580244064331055 -17.162214279174805 17.9007511138916 -9.841708183288574 20.580244064331055 0.15829190611839294" stroke-width="0.0" fill="rgb(217, 37, 185)" opacity="0.9156266" stroke="rgb(242, 193, 151)" stroke-opacity="0.82521373" stroke-linecap="round" stroke-linejoin="round"/>
    <path d="M 393.552001953125 64.91663360595703 C 370.9879455566406 239.76583862304688 306.44873046875 170.3112335205078 255.11065673828125 153.58363342285156 C 224.9673309326172 196.05447387695312 170.2198028564453 214.5736541748047 41.44495391845703 64.81220245361328 C 67.67015838623047 -37.53617477416992 90.42118072509766 -29.696929931640625 189.96444702148438 -43.617515563964844 C 450.97674560546875 -27.62009048461914 430.2641906738281 -37.69127655029297 393.552001953125 64.91663360595703" stroke-width="0.0" fill="rgb(237, 226, 202)" opacity="0.52780324"/>
    <path d="M 624.4696044921875 361.9872741699219 C 574.4093627929688 296.7048034667969 664.3824462890625 323.42608642578125 597.45703125 577.190673828125 C 251.28785705566406 590.3076171875 346.6630554199219 473.71484375 424.8600158691406 337.138427734375 C 396.5999755859375 275.1146545410156 362.6261901855469 296.7767333984375 479.5096130371094 155.62991333007812 C 637.4821166992188 185.16014099121094 658.1470947265625 231.15257263183594 624.4696044921875 361.9872741699219" stroke-width="0.0" fill="rgb(53, 51, 44)" opacity="0.07168407"/>
    <path d="M 388.17913818359375 214.56716918945312 C 348.8728942871094 214.5771942138672 374.9259338378906 269.1917724609375 289.0382385253906 333.4629211425781 C 198.2754669189453 260.1008605957031 353.97125244140625 297.606689453125 371.9570007324219 213.5614013671875 C 329.983642578125 139.1697540283203 263.0306396484375 203.5941619873047 266.4638977050781 158.17027282714844 C 390.9591369628906 192.0837860107422 397.8397216796875 206.41893005371094 388.17913818359375 214.56716918945312" stroke-width="0.0" fill="rgb(19, 2, 11)" opacity="0.4500813"/>
    <path d="M 20.96053123474121 0.19509679079055786 C 18.281038284301758 10.195096969604492 10.960531234741211 17.51560401916504 0.9605309963226318 20.195096969604492 C -9.039468765258789 17.51560401916504 -16.359975814819336 10.195096969604492 -19.03946876525879 0.19509679079055786 C -16.359975814819336 -9.804903030395508 -9.039468765258789 -17.125410079956055 0.9605309963226318 -19.804903030395508 C 10.960531234741211 -17.125410079956055 18.281038284301758 -9.804903030395508 20.96053123474121 0.19509679079055786" stroke-width="0.0" fill="rgb(47, 172, 106)" opacity="0.8795947" stroke="rgb(46, 34, 110)" stroke-opacity="0.0012365648" stroke-linecap="round" stroke-linejoin="round"/>
    <path d="M 224.60150146484375 182.0902557373047 C 212.8295440673828 204.19651794433594 204.44517517089844 214.70094299316406 98.74073028564453 313.3299865722656 C 44.008575439453125 406.05364990234375 -38.34459686279297 418.5110168457031 -86.56132507324219 14.906821250915527 C 1.3893063068389893 -16.117380142211914 26.17499351501465 2.557117223739624 26.623205184936523 -49.73307418823242 C 250.2368927001953 93.40164947509766 196.00433349609375 170.67681884765625 224.60150146484375 182.0902557373047" stroke-width="0.0" fill="rgb(31, 27, 18)" opacity="0.3211523"/>
    <path d="M 418.1949157714844 206.13206481933594 C 425.14605712890625 260.3902893066406 424.5906982421875 251.74534606933594 318.4213562011719 307.9268493652344 C 296.8001708984375 290.8199157714844 320.9413146972656 274.2449035644531 352.2727966308594 227.68052673339844 C 366.8958740234375 199.5071258544922 375.79656982421875 188.78453063964844 393.8301086425781 181.3255157470703 C 429.6301574707031 189.83143615722656 446.7842102050781 188.8983917236328 418.1949157714844 206.13206481933594" stroke-width="0.0" fill="rgb(240, 173, 139)" opacity="0.9582638"/>
    <path d="M 385.2623291015625 628.3451538085938 C 408.0509948730469 638.2650146484375 200.0653076171875 647.6430053710938 86.01001739501953 634.1157836914062 C 7.6084465980529785 664.5579833984375 -34.53163146972656 665.2470703125 -10.606767654418945 345.29913330078125 C 190.12828063964844 400.1459045410156 173.53244018554688 447.59210205078125 237.5425567626953 431.598876953125 C 259.85699462890625 411.12518310546875 244.86204528808594 445.2549133300781 385.2623291015625 628.3451538085938" stroke-width="0.0" fill="rgb(20, 47, 63)" opacity="0.23333356"/>
    <path d="M 198.04356384277344 265.66546630859375 C 194.3665008544922 287.8052673339844 171.8817596435547 285.0884704589844 145.7313690185547 308.3709411621094 C 128.7193603515625 309.8233337402344 113.38775634765625 303.626708984375 83.0090103149414 278.0418395996094 C 100.49068450927734 209.49615478515625 123.40789031982422 201.3567657470703 139.5769805908203 203.60714721679688 C 219.72393798828125 214.5138397216797 202.83395385742188 220.18385314941406 198.04356384277344 265.66546630859375" stroke-width="0.0" fill="rgb(228, 227, 189)" opacity="0.16815577"/>
    <path d="M 319.9027099609375 392.9045104980469 C 369.1728210449219 405.6408996582031 348.5376281738281 418.7048645019531 302.0481262207031 418.5580139160156 C 264.9134216308594 422.0497741699219 256.8825378417969 419.8209228515625 300.7219543457031 397.5304870605469 C 321.5096435546875 314.163818359375 272.1252746582031 332.0111083984375 317.0534362792969 314.59161376953125 C 336.61688232421875 296.8771057128906 272.1907653808594 315.690673828125 319.9027099609375 392.9045104980469" stroke-width="0.0" fill="rgb(74, 63, 1)" opacity="0.6597241"/>
    <path d="M 371.4725036621094 448.7994689941406 C 437.68341064453125 414.6558532714844 399.41278076171875 463.8063659667969 328.7886657714844 480.49749755859375 C 287.5337829589844 487.7540588378906 293.55841064453125 480.5256652832031 295.83831787109375 410.8304443359375 C 307.15179443359375 401.09075927734375 321.2332763671875 388.94073486328125 330.901611328125 392.48150634765625 C 379.5582580566406 408.0656433105469 326.63018798828125 381.6078796386719 371.4725036621094 448.7994689941406" stroke-width="0.0" fill="rgb(0, 0, 5)" opacity="1.0"/>
    <path d="M 446.7392883300781 383.90118408203125 C 455.3953857421875 397.8821716308594 411.3534240722656 442.9874572753906 391.12213134765625 451.0149230957031 C 372.512939453125 400.7635803222656 382.5767517089844 447.9381103515625 346.9920349121094 381.9008483886719 C 345.791259765625 380.9399108886719 377.088134765625 381.683349609375 394.8304748535156 327.3161926269531 C 388.529541015625 381.308837890625 427.1786193847656 391.92645263671875 446.7392883300781 383.90118408203125" stroke-width="0.0" fill="rgb(0, 0, 5)" opacity="1.0"/>
    <path d="M 474.89752197265625 318.0683288574219 C 462.0925598144531 280.69427490234375 507.87359619140625 290.0752258300781 425.3300476074219 284.0065002441406 C 370.3785095214844 347.7888488769531 432.53460693359375 237.3459930419922 294.2431945800781 341.8662414550781 C 374.6374206542969 285.08563232421875 432.013671875 253.34519958496094 449.4561462402344 191.91700744628906 C 446.5548400878906 210.57017517089844 487.1815490722656 246.98788452148438 474.89752197265625 318.0683288574219" stroke-width="0.0" fill="rgb(0, 2, 5)" opacity="1.0"/>
    <path d="M 227.50611877441406 389.7801208496094 C 204.92660522460938 433.3095703125 190.64125061035156 429.0495300292969 206.83270263671875 447.3334655761719 C 200.50372314453125 449.6569519042969 104.54605102539062 379.5868225097656 130.19398498535156 304.8392639160156 C 217.52810668945312 334.4707946777344 106.96060180664062 466.37713623046875 205.62489318847656 358.1360168457031 C 221.2893524169922 366.5087585449219 227.697998046875 388.4912414550781 227.50611877441406 389.7801208496094" stroke-width="0.0" fill="rgb(0, 0, 5)" opacity="1.0"/>
    <path d="M 20.207380294799805 0.9640901684761047 C 17.52788734436035 10.964090347290039 10.207380294799805 18.284597396850586 0.2073800414800644 20.96409034729004 C -9.792619705200195 18.284597396850586 -17.113126754760742 10.964090347290039 -19.792619705200195 0.9640901684761047 C -17.113126754760742 -9.035909652709961 -9.792619705200195 -16.356416702270508 0.2073800414800644 -19.03590965270996 C 10.207380294799805 -16.356416702270508 17.52788734436035 -9.035909652709961 20.207380294799805 0.9640901684761047" stroke-width="0.0" fill="rgb(70, 21, 230)" opacity="0.95101136" stroke="rgb(248, 131, 51)" stroke-opacity="0.39669302" stroke-linecap="round" stroke-linejoin="round"/>
    <path d="M 572.089111328125 377.94720458984375 C 602.0916748046875 577.43701171875 567.787353515625 550.6395263671875 404.609619140625 581.1187744140625 C 252.31295776367188 546.76025390625 185.14488220214844 487.42852783203125 245.1557159423828 522.5064697265625 C 395.6673583984375 554.2341918945312 465.9654846191406 451.64581298828125 489.7602233886719 422.6416931152344 C 539.3284912109375 372.4667663574219 543.779296875 348.4150390625 572.089111328125 377.94720458984375" stroke-width="0.0" fill="rgb(214, 217, 214)" opacity="0.91342396"/>
    <path d="M 318.510009765625 402.8641662597656 C 279.60296630859375 419.8670349121094 280.2933349609375 432.391845703125 304.5352783203125 432.1613464355469 C 251.1087646484375 422.4576416015625 233.8389892578125 414.96514892578125 218.7476043701172 373.1480407714844 C 239.7381134033203 389.6722412109375 274.4466552734375 423.7113952636719 305.1631774902344 396.4622802734375 C 292.8052673339844 363.97442626953125 317.9703369140625 372.08123779296875 318.510009765625 402.8641662597656" stroke-width="0.0" fill="rgb(21, 19, 19)" opacity="0.8170735"/>
    <path d="M 470.4130554199219 342.5619812011719 C 473.84075927734375 341.74798583984375 431.2392272949219 474.4776916503906 304.1788635253906 487.9373779296875 C 472.8287048339844 428.8722839355469 471.3361511230469 356.628173828125 388.61981201171875 352.3444519042969 C 426.8424377441406 272.7519226074219 330.4197082519531 301.7331848144531 463.1741027832031 309.03179931640625 C 474.3906555175781 241.8041229248047 484.7100524902344 295.4665222167969 470.4130554199219 342.5619812011719" stroke-width="0.0" fill="rgb(0, 0, 4)" opacity="0.99963206"/>
    <path d="M 271.556640625 427.9981384277344 C 279.19879150390625 455.96636962890625 272.4851379394531 455.9978332519531 233.6029815673828 448.28106689453125 C 242.63784790039062 422.7014465332031 246.50367736816406 381.8476867675781 209.22442626953125 451.3145446777344 C 197.5576629638672 447.4083557128906 251.7329864501953 415.39666748046875 227.32334899902344 398.28631591796875 C 263.4882507324219 383.0030212402344 261.7654113769531 415.8918151855469 271.556640625 427.9981384277344" stroke-width="0.0" fill="rgb(39, 3, 6)" opacity="0.7192783"/>
    <path d="M 629.7815551757812 202.35374450683594 C 560.745849609375 253.11119079589844 518.8274536132812 246.92764282226562 508.3608093261719 192.2762451171875 C 499.90093994140625 163.9071044921875 472.0657043457031 145.2952880859375 469.01214599609375 161.71463012695312 C 391.9170837402344 63.60810852050781 311.3882141113281 74.75523376464844 329.99298095703125 70.60230255126953 C 611.0484619140625 37.870384216308594 509.5919189453125 53.16283416748047 629.7815551757812 202.35374450683594" stroke-width="0.0" fill="rgb(219, 218, 224)" opacity="0.95887583"/>
    <path d="M -10.256113052368164 153.61878967285156 C 2.0364787578582764 199.00767517089844 1.693826675415039 208.01109313964844 -12.322824478149414 227.84432983398438 C -12.501931190490723 209.06246948242188 -15.315953254699707 196.00985717773438 -32.17655944824219 170.48219299316406 C -31.339950561523438 156.38131713867188 -55.595298767089844 125.15740203857422 18.285385131835938 -9.948955535888672 C 92.33312225341797 106.4986801147461 29.587276458740234 122.9664077758789 -10.256113052368164 153.61878967285156" stroke-width="0.0" fill="rgb(171, 136, 176)" opacity="0.18005244"/>
    <path d="M 281.5104675292969 469.0247802734375 C 359.0576171875 494.1243896484375 392.87548828125 468.8846740722656 306.4422302246094 488.8169250488281 C 217.8577880859375 481.5229797363281 181.5534210205078 445.5579833984375 235.29824829101562 455.7935485839844 C 216.13418579101562 457.5311279296875 250.59080505371094 411.2972412109375 248.92112731933594 395.38092041015625 C 298.7994079589844 413.4074401855469 276.7846984863281 417.2552490234375 281.5104675292969 469.0247802734375" stroke-width="0.0" fill="rgb(0, 0, 7)" opacity="1.0"/>
    <path d="M 199.6605224609375 436.01898193359375 C 220.92449951171875 458.0865478515625 258.5530700683594 436.8968200683594 185.9802703857422 476.26171875 C 255.60154724121094 460.52569580078125 56.827369689941406 416.20086669921875 140.3416290283203 227.42440795898438 C 84.79100036621094 414.79901123046875 306.8654479980469 476.4405212402344 222.1754150390625 436.9447326660156 C 183.73709106445312 423.12933349609375 213.65322875976562 422.3050537109375 199.6605224609375 436.01898193359375" stroke-width="0.0" fill="rgb(0, 0, 4)" opacity="0.9845203"/>
    <path d="M 113.86437225341797 492.1596984863281 C 209.844482421875 567.4655151367188 237.9224853515625 605.0012817382812 57.20668411254883 661.7088012695312 C -79.69942474365234 542.0506591796875 -32.22149658203125 491.5548095703125 -35.47055435180664 465.8656311035156 C -32.28588104248047 427.447509765625 -42.36763381958008 404.18609619140625 20.240869522094727 350.6122741699219 C 67.69564819335938 388.7363586425781 54.7408447265625 416.6623840332031 113.86437225341797 492.1596984863281" stroke-width="0.0" fill="rgb(143, 131, 132)" opacity="0.3019496"/>
    <path d="M 576.8790893554688 207.94448852539062 C 577.48046875 254.6780242919922 574.4874267578125 267.6407775878906 544.6331787109375 284.4180603027344 C 513.2786254882812 302.4539489746094 539.3720703125 285.90423583984375 519.786865234375 212.21324157714844 C 495.28900146484375 129.80166625976562 457.4345397949219 169.97335815429688 550.0781860351562 174.849365234375 C 616.267333984375 201.87002563476562 600.4580078125 220.25221252441406 576.8790893554688 207.94448852539062" stroke-width="0.0" fill="rgb(219, 215, 216)" opacity="0.96650887"/>
    <path d="M 67.26468658447266 324.7990417480469 C 79.26435089111328 369.84979248046875 100.84529113769531 392.5804748535156 48.768768310546875 377.7210693359375 C 24.155492782592773 343.80078125 -14.438664436340332 368.4693603515625 -27.616416931152344 335.6888427734375 C -2.1667516231536865 291.1614074707031 11.660701751708984 290.9367980957031 27.830305099487305 303.40740966796875 C 60.85466003417969 305.1968994140625 50.59843063354492 307.9211120605469 67.26468658447266 324.7990417480469" stroke-width="0.0" fill="rgb(198, 196, 198)" opacity="0.6379986"/>
    <path d="M 376.8350524902344 148.74949645996094 C 336.19305419921875 223.1622772216797 345.8988342285156 209.8821563720703 332.6385498046875 203.43948364257812 C 304.35125732421875 178.03680419921875 221.5848388671875 203.22593688964844 300.8525695800781 166.7879180908203 C 316.5850524902344 199.3915252685547 344.27178955078125 123.4355239868164 299.5165710449219 119.34029388427734 C 321.9837341308594 103.25615692138672 411.7698974609375 129.0517578125 376.8350524902344 148.74949645996094" stroke-width="0.0" fill="rgb(0, 0, 8)" opacity="1.0"/>
    <path d="M 305.9733581542969 290.66131591796875 C 206.4818878173828 257.81427001953125 217.153564453125 279.20867919921875 131.44082641601562 299.08984375 C 136.1726837158203 290.03948974609375 121.04408264160156 351.82666015625 109.07476806640625 279.2778625488281 C 120.38748168945312 241.83969116210938 142.52670288085938 210.37887573242188 147.47767639160156 213.06202697753906 C 171.41514587402344 243.79342651367188 172.66575622558594 219.5101776123047 305.9733581542969 290.66131591796875" stroke-width="0.0" fill="rgb(0, 7, 12)" opacity="1.0"/>
    <path d="M 363.82452392578125 137.95108032226562 C 378.6204528808594 166.31915283203125 398.8414306640625 135.2053985595703 354.5433349609375 126.65846252441406 C 255.455078125 114.46259307861328 364.4057312011719 144.63552856445312 250.8904571533203 181.76620483398438 C 164.06961059570312 104.03500366210938 304.2133483886719 104.60252380371094 321.7010498046875 117.0416259765625 C 504.2953186035156 171.2180938720703 401.34576416015625 189.17918395996094 363.82452392578125 137.95108032226562" stroke-width="0.0" fill="rgb(0, 0, 8)" opacity="1.0"/>
    <path d="M 405.19757080078125 65.11749267578125 C 394.1731872558594 99.08348083496094 265.9035339355469 25.383607864379883 317.9936218261719 114.0274429321289 C 206.30702209472656 42.2742805480957 171.34169006347656 157.57461547851562 188.08253479003906 79.80935668945312 C 228.13311767578125 -18.41741943359375 250.69577026367188 -14.639806747436523 261.92181396484375 4.4375128746032715 C 263.9192199707031 12.104996681213379 280.3262939453125 11.66392707824707 405.19757080078125 65.11749267578125" stroke-width="0.0" fill="rgb(18, 45, 62)" opacity="0.17741054"/>
    <path d="M 73.40233612060547 375.88067626953125 C 134.84205627441406 506.587646484375 235.0167694091797 518.0595092773438 239.79742431640625 529.5928955078125 C 42.284881591796875 417.6967468261719 96.6842041015625 359.0275573730469 -15.258079528808594 343.8426818847656 C 15.53840160369873 337.4848937988281 30.25577163696289 334.1851501464844 55.88560104370117 319.9749450683594 C 51.65707015991211 317.90826416015625 64.17652893066406 329.8898010253906 73.40233612060547 375.88067626953125" stroke-width="0.0" fill="rgb(205, 212, 207)" opacity="0.3765207"/>
    <path d="M 400.7821960449219 237.01539611816406 C 500.18475341796875 193.77613830566406 420.4342041015625 225.2237548828125 329.5321044921875 278.67169189453125 C 252.83766174316406 332.4936218261719 332.5552062988281 258.5484924316406 357.03851318359375 262.1930236816406 C 403.0306701660156 215.6491241455078 311.989013671875 192.01373291015625 362.1128845214844 188.54676818847656 C 433.6778259277344 182.74594116210938 395.1119689941406 225.2969970703125 400.7821960449219 237.01539611816406" stroke-width="0.0" fill="rgb(0, 0, 4)" opacity="0.9979711"/>
    <path d="M 203.8789825439453 17.993961334228516 C 222.53076171875 44.96390914916992 224.25660705566406 61.51588439941406 109.64302062988281 182.21237182617188 C 2.1750893592834473 108.4630126953125 -9.07835865020752 40.94904327392578 57.7572021484375 -33.52817916870117 C 139.35171508789062 -18.627763748168945 159.3378448486328 -15.117036819458008 184.25257873535156 -13.512728691101074 C 196.08621215820312 -6.563091278076172 205.0669403076172 1.742241621017456 203.8789825439453 17.993961334228516" stroke-width="0.0" fill="rgb(158, 155, 149)" opacity="0.84930354"/>
    <path d="M 203.95645141601562 158.90805053710938 C 248.0908966064453 292.2702331542969 286.2568054199219 310.45391845703125 209.67678833007812 258.0228576660156 C 125.36991882324219 137.34719848632812 107.90016174316406 355.5252685546875 126.5633544921875 212.6472625732422 C 236.84820556640625 90.60798645019531 217.90631103515625 173.73741149902344 165.71041870117188 68.95250701904297 C 227.58702087402344 148.01858520507812 255.30242919921875 121.47457122802734 203.95645141601562 158.90805053710938" stroke-width="0.0" fill="rgb(0, 1, 10)" opacity="1.0"/>
    <path d="M 285.1832275390625 32.096675872802734 C 296.11737060546875 92.28289794921875 234.70472717285156 48.874568939208984 126.03353118896484 155.28842163085938 C 113.08174896240234 93.35926055908203 174.85401916503906 47.61660385131836 178.47091674804688 -2.627265214920044 C 192.17953491210938 1.233434796333313 198.20582580566406 -7.971817970275879 203.97256469726562 -13.427203178405762 C 237.1862030029297 -26.24818229675293 259.5240478515625 -32.16896438598633 285.1832275390625 32.096675872802734" stroke-width="0.0" fill="rgb(212, 221, 229)" opacity="0.99052715"/>
    <path d="M 72.05071258544922 290.7579345703125 C 73.26699829101562 258.36126708984375 59.66501998901367 285.85064697265625 82.83549499511719 311.1153564453125 C 61.29768371582031 276.2003173828125 43.121822357177734 273.6278076171875 0.8534307479858398 252.26177978515625 C 21.724430084228516 247.34625244140625 22.691951751708984 220.17710876464844 157.1862335205078 145.88671875 C 68.86975860595703 215.0983123779297 79.6517333984375 259.7651062011719 72.05071258544922 290.7579345703125" stroke-width="0.0" fill="rgb(203, 215, 211)" opacity="0.90256155"/>
    <path d="M 459.887451171875 105.10264587402344 C 382.28582763671875 90.3914794921875 373.38330078125 66.47651672363281 293.3375549316406 61.742374420166016 C 245.93980407714844 57.83074188232422 242.65025329589844 78.34302520751953 244.7651824951172 51.00803756713867 C 291.32373046875 12.827127456665039 292.5305480957031 -3.9752955436706543 347.4534912109375 -37.98149871826172 C 390.1914978027344 -36.84142303466797 396.2917175292969 -9.163858413696289 459.887451171875 105.10264587402344" stroke-width="0.0" fill="rgb(215, 223, 225)" opacity="1.0"/>
    <path d="M 314.9381408691406 -7.438869476318359 C 294.2607116699219 17.108062744140625 282.32171630859375 28.86232566833496 275.9063720703125 32.35408401489258 C 262.6376037597656 23.50733184814453 256.06378173828125 13.528237342834473 240.3612823486328 -11.518527030944824 C 261.1406555175781 2.1018950939178467 274.1190490722656 -0.47890084981918335 280.18975830078125 -9.279581069946289 C 284.28546142578125 -11.209552764892578 301.14605712890625 -12.407035827636719 314.9381408691406 -7.438869476318359" stroke-width="0.0" fill="rgb(175, 182, 171)" opacity="0.9980595"/>
    <path d="M 472.5303955078125 286.8783874511719 C 420.6427307128906 168.40350341796875 455.3919982910156 203.7366180419922 402.52996826171875 223.3068084716797 C 402.1277770996094 211.39085388183594 399.0224609375 204.67129516601562 380.0745849609375 182.29107666015625 C 366.0869445800781 176.6654052734375 390.6534729003906 200.33876037597656 435.54913330078125 189.06785583496094 C 343.451171875 96.03905487060547 452.8777160644531 123.8190689086914 472.5303955078125 286.8783874511719" stroke-width="0.0" fill="rgb(0, 4, 10)" opacity="1.0"/>
    <path d="M 93.84908294677734 231.4328155517578 C 66.77589416503906 247.70510864257812 59.64875411987305 270.0924987792969 63.332279205322266 281.0955505371094 C 54.28163528442383 255.3228302001953 33.521358489990234 262.631103515625 -21.69061851501465 257.7280578613281 C -9.741622924804688 180.64697265625 -19.190290451049805 103.03568267822266 158.20486450195312 69.58837890625 C 201.1375274658203 123.06501007080078 120.16890716552734 119.66587829589844 93.84908294677734 231.4328155517578" stroke-width="0.0" fill="rgb(222, 219, 216)" opacity="0.20589668"/>
    <path d="M 443.70562744140625 186.42599487304688 C 448.7213439941406 218.88192749023438 427.001708984375 209.85391235351562 403.7250671386719 211.26898193359375 C 376.2202453613281 209.19802856445312 354.3459777832031 214.5064697265625 368.04327392578125 180.1343994140625 C 398.3082580566406 125.82640838623047 391.291748046875 167.2890625 373.61419677734375 114.69810485839844 C 407.8236083984375 126.93222045898438 428.54278564453125 164.58364868164062 443.70562744140625 186.42599487304688" stroke-width="0.0" fill="rgb(0, 0, 7)" opacity="1.0"/>
    <path d="M 600.458984375 119.24163055419922 C 590.1512451171875 146.2294921875 587.2080078125 160.57772827148438 548.6273803710938 174.23492431640625 C 510.25555419921875 179.38438415527344 507.2615051269531 167.8689727783203 500.78961181640625 123.60783386230469 C 538.1415405273438 112.50299835205078 544.6318359375 96.1632308959961 555.050537109375 89.35649108886719 C 580.0883178710938 93.38186645507812 588.5772705078125 98.16423797607422 600.458984375 119.24163055419922" stroke-width="0.0" fill="rgb(218, 221, 216)" opacity="0.3047436"/>
    <path d="M 193.81301879882812 280.9456787109375 C 164.5612030029297 366.80731201171875 273.9175109863281 366.6669006347656 151.7288055419922 376.503662109375 C 225.56533813476562 327.5953674316406 128.188232421875 379.2839660644531 134.01486206054688 366.354736328125 C 102.71791076660156 275.3071594238281 127.27863311767578 325.9042663574219 189.58758544921875 304.23681640625 C 108.30917358398438 287.90570068359375 261.2875671386719 238.0139617919922 193.81301879882812 280.9456787109375" stroke-width="0.0" fill="rgb(0, 7, 8)" opacity="1.0"/>
    <path d="M 595.8529052734375 105.34353637695312 C 579.6385498046875 111.87712860107422 576.8690185546875 124.72101593017578 571.0275268554688 140.6168212890625 C 554.3430786132812 126.31305694580078 539.0936889648438 125.24227142333984 545.0396728515625 107.18182373046875 C 534.7554321289062 83.47577667236328 539.5686645507812 80.80671691894531 568.7658081054688 83.8781509399414 C 573.1349487304688 87.26276397705078 580.9078369140625 96.3629379272461 595.8529052734375 105.34353637695312" stroke-width="0.0" fill="rgb(173, 182, 218)" opacity="0.9130591"/>
    <path d="M 622.7185668945312 156.23275756835938 C 619.0128173828125 167.46624755859375 613.3179931640625 176.35169982910156 607.4022216796875 176.32948303222656 C 576.5156860351562 171.7487030029297 554.0100708007812 179.29551696777344 551.791015625 159.35704040527344 C 561.9341430664062 122.6118392944336 570.1117553710938 113.75939178466797 601.6788330078125 93.45975494384766 C 612.9818115234375 127.33536529541016 621.6421508789062 134.00143432617188 622.7185668945312 156.23275756835938" stroke-width="0.0" fill="rgb(134, 145, 156)" opacity="0.908926"/>
    <path d="M 593.1817016601562 125.0844955444336 C 575.7145385742188 120.74961853027344 576.4880981445312 133.27651977539062 575.7907104492188 134.8054656982422 C 561.2235717773438 126.92630767822266 550.2064819335938 118.71794891357422 510.0352478027344 120.17870330810547 C 546.4688110351562 102.47183227539062 561.3192749023438 99.77162170410156 569.5138549804688 101.40576171875 C 566.8679809570312 111.90602111816406 579.4883422851562 107.0164794921875 593.1817016601562 125.0844955444336" stroke-width="0.0" fill="rgb(160, 155, 173)" opacity="0.0771926"/>
    <path d="M 625.9140625 175.0350341796875 C 624.3334350585938 211.27603149414062 633.9116821289062 228.23223876953125 579.0088500976562 345.85186767578125 C 548.9404296875 253.5882568359375 584.1419677734375 223.57777404785156 571.8189697265625 181.03347778320312 C 564.583251953125 170.16946411132812 562.9925537109375 169.62832641601562 571.1224365234375 162.5059814453125 C 603.0269775390625 153.6678009033203 615.94873046875 161.95697021484375 625.9140625 175.0350341796875" stroke-width="0.0" fill="rgb(147, 161, 157)" opacity="0.41075337"/>
    <path d="M 605.0217895507812 119.97691345214844 C 595.1012573242188 141.26161193847656 582.9603881835938 146.81846618652344 571.0945434570312 133.98052978515625 C 555.0875244140625 137.10504150390625 549.757568359375 124.57768249511719 536.7557983398438 87.97795867919922 C 559.4707641601562 101.10688018798828 561.0109252929688 117.51708221435547 548.0030517578125 113.406005859375 C 574.6787109375 111.7082290649414 593.6205444335938 110.15621185302734 605.0217895507812 119.97691345214844" stroke-width="0.0" fill="rgb(128, 144, 159)" opacity="0.92749035"/>
    <path d="M 596.7349243164062 180.8162384033203 C 586.425537109375 177.07254028320312 585.6251831054688 194.1068878173828 561.7156982421875 279.4090576171875 C 543.9136962890625 233.88519287109375 547.0177612304688 209.09707641601562 517.3673706054688 165.71246337890625 C 546.9288330078125 151.0220947265625 560.2312622070312 143.76699829101562 577.0690307617188 152.9657745361328 C 585.9583129882812 174.27342224121094 596.7778930664062 174.27073669433594 596.7349243164062 180.8162384033203" stroke-width="0.0" fill="rgb(215, 217, 211)" opacity="0.41518638"/>
    <path d="M 154.1902313232422 312.85784912109375 C 157.96817016601562 323.2463684082031 158.9189910888672 325.2923278808594 145.87550354003906 318.64056396484375 C 136.0035400390625 324.1067199707031 126.76220703125 305.0140686035156 134.83377075195312 313.177978515625 C 123.90498352050781 330.730224609375 130.10765075683594 312.12591552734375 120.01557922363281 312.18084716796875 C 132.2024688720703 314.157470703125 142.86441040039062 312.8837890625 154.1902313232422 312.85784912109375" stroke-width="0.0" fill="rgb(10, 12, 7)" opacity="0.6115846"/>
    <path d="M 630.2058715820312 28.172958374023438 C 619.2723388671875 55.8562126159668 604.8201904296875 63.449554443359375 556.0013427734375 77.68878936767578 C 505.3968811035156 68.62382507324219 485.2372131347656 71.35933685302734 414.95037841796875 5.927128791809082 C 496.48785400390625 -37.046504974365234 537.3772583007812 -13.944518089294434 557.460205078125 -11.620514869689941 C 577.7451782226562 -14.464629173278809 600.7981567382812 -21.512048721313477 630.2058715820312 28.172958374023438" stroke-width="0.0" fill="rgb(120, 130, 138)" opacity="0.9523483"/>
    <path d="M 622.6893920898438 553.6286010742188 C 620.249755859375 587.611083984375 628.6868286132812 610.3577880859375 581.6655883789062 618.2559814453125 C 533.9445190429688 623.277099609375 500.37872314453125 659.94677734375 301.95855712890625 615.6264038085938 C 540.8667602539062 524.2481079101562 540.9470825195312 487.000732421875 591.0733642578125 292.86279296875 C 660.9686889648438 495.9569091796875 627.2402954101562 530.5750122070312 622.6893920898438 553.6286010742188" stroke-width="0.0" fill="rgb(88, 114, 137)" opacity="0.30298167"/>
    <path d="M 491.8710021972656 173.82061767578125 C 470.2969055175781 194.52198791503906 474.6524658203125 199.19061279296875 450.1888427734375 192.4427947998047 C 418.00897216796875 146.54637145996094 444.5643005371094 181.24395751953125 404.0557861328125 149.80335998535156 C 389.0877380371094 137.66384887695312 398.61260986328125 124.15142059326172 428.725341796875 101.44245147705078 C 467.2096252441406 144.03538513183594 475.9134826660156 125.74055480957031 491.8710021972656 173.82061767578125" stroke-width="0.0" fill="rgb(226, 229, 233)" opacity="1.0"/>
    <path d="M 480.7945861816406 145.89601135253906 C 217.3472442626953 -33.350948333740234 345.5534362792969 154.31385803222656 285.3639221191406 105.33761596679688 C 344.5278015136719 34.21101760864258 161.51206970214844 88.65497589111328 99.38887023925781 204.09263610839844 C 178.9468994140625 52.382667541503906 339.26043701171875 72.60086822509766 284.6244812011719 71.38674926757812 C 255.3546600341797 73.4398193359375 374.2423400878906 43.686912536621094 480.7945861816406 145.89601135253906" stroke-width="0.0" fill="rgb(30, 26, 33)" opacity="0.5540242"/>
    <path d="M 620.9931640625 93.19598388671875 C 596.0250854492188 119.26225280761719 583.3353881835938 123.22964477539062 563.720947265625 117.5244140625 C 570.7306518554688 106.831787109375 564.24755859375 95.637939453125 548.535400390625 97.5770034790039 C 547.4282836914062 87.95993041992188 553.7572021484375 77.5962905883789 565.6594848632812 46.963653564453125 C 589.21435546875 31.443618774414062 603.9965209960938 47.36452865600586 620.9931640625 93.19598388671875" stroke-width="0.0" fill="rgb(125, 144, 143)" opacity="0.9496621"/>
    <path d="M 20.918493270874023 0.5712494254112244 C 18.23900032043457 10.571249008178711 10.918492317199707 17.891756057739258 0.9184926748275757 20.57124900817871 C -9.081507682800293 17.891756057739258 -16.402013778686523 10.571249008178711 -19.081506729125977 0.5712494254112244 C -16.402013778686523 -9.428750991821289 -9.081507682800293 -16.749258041381836 0.9184926748275757 -19.42875099182129 C 10.918492317199707 -16.749258041381836 18.23900032043457 -9.428750991821289 20.918493270874023 0.5712494254112244" stroke-width="0.0" fill="rgb(22, 51, 178)" opacity="0.9031094" stroke="rgb(28, 230, 243)" stroke-opacity="0.55337894" stroke-linecap="round" stroke-linejoin="round"/>
    <path d="M 570.07080078125 63.17778396606445 C 570.6015014648438 77.37390899658203 565.7882080078125 97.58365631103516 561.465576171875 104.26679229736328 C 541.5091552734375 103.5785140991211 519.5783081054688 103.90911102294922 374.2287292480469 15.001043319702148 C 441.98114013671875 -72.77434539794922 499.2684326171875 -11.889411926269531 541.959716796875 21.47848892211914 C 568.7813720703125 49.166412353515625 570.1670532226562 68.6411361694336 570.07080078125 63.17778396606445" stroke-width="0.0" fill="rgb(171, 178, 181)" opacity="0.8822757"/>
    <path d="M 304.3559875488281 578.4630126953125 C 94.71022033691406 671.4169311523438 54.869476318359375 632.2770385742188 11.709068298339844 627.4989624023438 C -2.693361282348633 612.170166015625 -5.862757682800293 598.059814453125 -17.345256805419922 590.8740844726562 C -23.068603515625 550.107421875 -34.21904754638672 526.55322265625 52.76393508911133 364.0849609375 C 114.54094696044922 469.05908203125 140.34463500976562 481.1273193359375 304.3559875488281 578.4630126953125" stroke-width="0.0" fill="rgb(179, 183, 184)" opacity="0.08725984"/>
    <path d="M 618.8378295898438 561.8204956054688 C 618.2919921875 570.4646606445312 610.1525268554688 575.2700805664062 593.7224731445312 571.7981567382812 C 576.0343017578125 580.990234375 566.6769409179688 576.7544555664062 565.5335693359375 555.9651489257812 C 565.0764770507812 534.6802368164062 566.7708129882812 524.1184692382812 603.0222778320312 469.80206298828125 C 612.191650390625 530.1465454101562 610.8709716796875 545.6220092773438 618.8378295898438 561.8204956054688" stroke-width="0.0" fill="rgb(135, 126, 169)" opacity="0.9537423"/>
    <path d="M 516.0133056640625 229.0137481689453 C 513.0382080078125 186.7458038330078 524.34716796875 200.07553100585938 537.9708251953125 281.2453918457031 C 530.8556518554688 227.13209533691406 509.5423583984375 181.16722106933594 499.0657043457031 170.10597229003906 C 418.076416015625 219.80691528320312 441.75787353515625 237.75819396972656 484.47509765625 195.65634155273438 C 526.4667358398438 180.5491485595703 520.216796875 205.130615234375 516.0133056640625 229.0137481689453" stroke-width="0.0" fill="rgb(41, 13, 39)" opacity="0.59427893"/>
    <path d="M 534.1150512695312 277.5849609375 C 533.8412475585938 255.0823516845703 537.43701171875 318.3858337402344 522.5341186523438 360.6456298828125 C 544.2745361328125 275.09051513671875 501.2763977050781 319.3979187011719 489.4993896484375 294.80352783203125 C 528.8222045898438 280.55426025390625 528.1568603515625 285.75634765625 511.90887451171875 211.46875 C 536.4656982421875 276.49884033203125 516.31005859375 308.6113586425781 534.1150512695312 277.5849609375" stroke-width="0.0" fill="rgb(62, 30, 66)" opacity="0.5906595"/>
    <path d="M 305.3407897949219 510.0734558105469 C 298.2471618652344 494.96319580078125 305.9676513671875 523.8427124023438 293.18695068359375 540.677734375 C 290.6578674316406 519.9119262695312 292.39007568359375 497.6670227050781 286.0981140136719 512.3093872070312 C 299.24847412109375 497.6199645996094 291.4654235839844 475.3213806152344 294.7100524902344 481.06341552734375 C 303.80633544921875 484.4564208984375 304.712646484375 514.257080078125 305.3407897949219 510.0734558105469" stroke-width="0.0" fill="rgb(0, 0, 17)" opacity="0.9010626"/>
    <path d="M 266.054931640625 536.3037109375 C 273.658203125 529.1127319335938 217.39898681640625 520.5439453125 214.02003479003906 515.6444091796875 C 248.06126403808594 529.5950317382812 162.78305053710938 516.7310180664062 109.91056823730469 429.82501220703125 C 95.58833312988281 356.2416076660156 117.48533630371094 460.4915771484375 226.8221893310547 501.8796081542969 C 196.46287536621094 499.9361572265625 215.41424560546875 516.0044555664062 266.054931640625 536.3037109375" stroke-width="0.0" fill="rgb(24, 18, 53)" opacity="0.58918566"/>
    <path d="M 45.80773162841797 608.4403686523438 C 34.78461837768555 613.42822265625 27.385665893554688 620.756591796875 20.140169143676758 626.4400634765625 C 1.0040333271026611 613.3148193359375 -6.32710075378418 606.0095825195312 6.387001037597656 615.1822509765625 C 8.333622932434082 607.7473754882812 11.548802375793457 586.7709350585938 10.087292671203613 585.111328125 C 17.910778045654297 579.919189453125 26.772077560424805 590.5606689453125 45.80773162841797 608.4403686523438" stroke-width="0.0" fill="rgb(93, 123, 135)" opacity="0.85721207"/>
    <path d="M 610.8682250976562 561.714111328125 C 607.3963012695312 568.1826171875 593.2022094726562 582.8697509765625 582.1795654296875 580.468505859375 C 577.1773681640625 559.8656005859375 570.7014770507812 583.3901977539062 413.5325012207031 612.3381958007812 C 538.7236938476562 543.2205810546875 552.0203857421875 521.947021484375 598.1504516601562 368.4875793457031 C 631.9874877929688 502.5948181152344 599.9677124023438 528.0296630859375 610.8682250976562 561.714111328125" stroke-width="0.0" fill="rgb(140, 150, 164)" opacity="0.8359247"/>
    <path d="M 608.248779296875 561.62646484375 C 619.0599975585938 576.3836669921875 610.999267578125 584.0380859375 595.686279296875 585.3984375 C 556.815673828125 592.7178344726562 532.6356811523438 588.4431762695312 519.6480102539062 583.5203857421875 C 558.03515625 543.369873046875 569.13330078125 531.1221313476562 582.5239868164062 543.50048828125 C 596.5947265625 552.814453125 604.7176513671875 552.3059692382812 608.248779296875 561.62646484375" stroke-width="0.0" fill="rgb(86, 101, 122)" opacity="0.5702212"/>
    <path d="M 82.37247467041016 223.11178588867188 C 66.5982894897461 263.32647705078125 53.986854553222656 377.97296142578125 133.67018127441406 458.82855224609375 C 49.157257080078125 366.0979919433594 70.18588256835938 293.4949951171875 72.05138397216797 290.3155212402344 C 86.58552551269531 337.3251953125 68.2982406616211 316.80401611328125 62.9730339050293 264.9772644042969 C 82.9330825805664 287.85723876953125 72.21517944335938 286.67010498046875 82.37247467041016 223.11178588867188" stroke-width="0.0" fill="rgb(64, 87, 36)" opacity="0.31600547"/>
    <path d="M 97.32913970947266 286.6924133300781 C 156.3578338623047 315.4453430175781 90.16783142089844 285.2247009277344 82.30026245117188 293.73370361328125 C 74.78392028808594 289.58197021484375 85.9817123413086 269.372802734375 81.27008056640625 316.7961120605469 C 96.11888885498047 292.9160461425781 56.22020721435547 267.3961181640625 157.12197875976562 135.66357421875 C 61.50612258911133 222.81954956054688 67.2264175415039 327.46099853515625 97.32913970947266 286.6924133300781" stroke-width="0.0" fill="rgb(29, 40, 25)" opacity="0.52292293"/>
    <path d="M 619.9749755859375 569.3458862304688 C 612.327392578125 584.2246704101562 614.9129028320312 602.494140625 543.7479858398438 641.9140625 C 478.1343994140625 567.6407470703125 471.8583068847656 584.4006958007812 553.3401489257812 577.1141357421875 C 573.7706298828125 555.4263916015625 582.0288696289062 555.9298706054688 604.7149658203125 556.8179931640625 C 608.4652099609375 550.2047729492188 615.0691528320312 558.9473266601562 619.9749755859375 569.3458862304688" stroke-width="0.0" fill="rgb(101, 131, 128)" opacity="0.9902024"/>
    <path d="M 538.0116577148438 345.0653381347656 C 526.3685913085938 461.9549255371094 424.450927734375 521.3763427734375 440.275146484375 514.145263671875 C 551.93408203125 411.5838623046875 488.6729431152344 423.07769775390625 462.8333435058594 401.2602233886719 C 461.28277587890625 382.4580383300781 453.78326416015625 391.3644104003906 491.92828369140625 393.5088195800781 C 527.41064453125 404.5412292480469 517.0677490234375 415.64434814453125 538.0116577148438 345.0653381347656" stroke-width="0.0" fill="rgb(80, 40, 38)" opacity="0.3544715"/>
    <path d="M 461.96466064453125 462.0334167480469 C 370.69329833984375 547.3303833007812 295.6399841308594 531.1378173828125 257.21697998046875 528.5571899414062 C 317.58868408203125 526.4240112304688 304.80438232421875 529.1154174804688 290.04547119140625 544.12158203125 C 299.29071044921875 526.9984130859375 306.109619140625 512.34326171875 298.05084228515625 530.8065795898438 C 244.22727966308594 528.7461547851562 381.8387451171875 555.1065063476562 461.96466064453125 462.0334167480469" stroke-width="0.0" fill="rgb(32, 37, 31)" opacity="0.730129"/>
    <path d="M 294.24456787109375 537.6406860351562 C 303.41595458984375 541.567138671875 301.4353332519531 555.7819213867188 308.6194763183594 528.423095703125 C 277.4578857421875 520.8594970703125 295.92547607421875 553.0502319335938 190.5251922607422 493.2667541503906 C 281.67626953125 545.0307006835938 323.98193359375 523.0819702148438 294.32965087890625 524.7028198242188 C 301.97491455078125 513.6888427734375 292.2974853515625 524.2568359375 294.24456787109375 537.6406860351562" stroke-width="0.0" fill="rgb(35, 27, 76)" opacity="0.8098659"/>
    <path d="M 171.2022705078125 385.63140869140625 C 185.4784393310547 387.7308349609375 162.3192138671875 419.1601257324219 145.77243041992188 379.83587646484375 C 135.9263458251953 379.1019287109375 219.9556427001953 335.2220764160156 152.19529724121094 375.5769348144531 C 146.68113708496094 376.2449035644531 179.27012634277344 361.00543212890625 187.3994598388672 348.5004577636719 C 176.4986572265625 349.8915710449219 211.86468505859375 360.2948303222656 171.2022705078125 385.63140869140625" stroke-width="0.0" fill="rgb(231, 245, 148)" opacity="1.0"/>
    <path d="M 113.97032928466797 136.0839080810547 C 92.72618865966797 133.63125610351562 73.04806518554688 130.19281005859375 33.812278747558594 308.6884765625 C -31.852203369140625 265.9493408203125 -36.18434143066406 203.11666870117188 1.0290336608886719 142.05641174316406 C 37.36803436279297 90.20481872558594 35.44329833984375 84.67754364013672 65.20793151855469 98.97445678710938 C 91.74515533447266 126.1884994506836 103.52588653564453 126.38330841064453 113.97032928466797 136.0839080810547" stroke-width="0.0" fill="rgb(179, 169, 174)" opacity="0.307463"/>
    <path d="M 225.26922607421875 619.3893432617188 C 64.95236206054688 646.3991088867188 32.93289566040039 619.2625122070312 16.59283447265625 588.7733764648438 C 0.9775528311729431 587.6802368164062 -5.600279808044434 599.0078125 -12.308086395263672 595.4588623046875 C -24.92951202392578 538.328369140625 -42.95181655883789 506.19281005859375 1.904050588607788 408.03265380859375 C 67.30378723144531 518.7246704101562 69.1575927734375 561.034423828125 225.26922607421875 619.3893432617188" stroke-width="0.0" fill="rgb(137, 139, 144)" opacity="0.32773533"/>
    <path d="M 357.1109619140625 225.82998657226562 C 381.12921142578125 269.5644836425781 329.4806823730469 262.8558654785156 333.707275390625 269.6548767089844 C 293.60626220703125 313.6148986816406 262.4274597167969 201.675537109375 333.65850830078125 252.61854553222656 C 274.1318054199219 233.2027587890625 309.4110412597656 231.8907470703125 337.8708801269531 200.01885986328125 C 371.78271484375 225.68328857421875 351.23883056640625 204.74017333984375 357.1109619140625 225.82998657226562" stroke-width="0.0" fill="rgb(251, 255, 254)" opacity="1.0"/>
    <path d="M 394.46343994140625 460.1117858886719 C 413.89697265625 504.098876953125 379.8768005371094 511.0896301269531 358.60040283203125 517.4586181640625 C 281.5880432128906 548.5313720703125 318.6417236328125 489.7464599609375 307.9425354003906 489.7690734863281 C 356.372802734375 476.0907897949219 363.3651123046875 480.6845397949219 351.64581298828125 483.0531005859375 C 351.4206237792969 479.36309814453125 372.60986328125 473.04931640625 394.46343994140625 460.1117858886719" stroke-width="0.0" fill="rgb(211, 219, 223)" opacity="0.79940206"/>
    <path d="M 136.9043731689453 185.18106079101562 C 157.05722045898438 188.31521606445312 144.0870361328125 195.57113647460938 127.72244262695312 191.84478759765625 C 137.46975708007812 201.55850219726562 139.04847717285156 187.35939025878906 110.64907836914062 181.22183227539062 C 132.73709106445312 171.0657501220703 135.1791229248047 118.75066375732422 201.28150939941406 134.38436889648438 C 147.3658447265625 188.41891479492188 159.83660888671875 186.34405517578125 136.9043731689453 185.18106079101562" stroke-width="0.0" fill="rgb(226, 227, 227)" opacity="0.9836399"/>
    <path d="M 300.4225158691406 229.16500854492188 C 300.508544921875 245.2322235107422 274.47674560546875 238.35305786132812 259.16278076171875 261.0082702636719 C 279.3951110839844 242.2934112548828 269.7370910644531 258.2580871582031 272.8815002441406 249.9799041748047 C 288.478759765625 244.24497985839844 290.2036437988281 237.31997680664062 298.498291015625 239.69696044921875 C 322.4764099121094 196.31175231933594 353.5899658203125 204.344970703125 300.4225158691406 229.16500854492188" stroke-width="0.0" fill="rgb(77, 34, 63)" opacity="0.75814646"/>
    <path d="M 148.91165161132812 75.69830322265625 C 114.63973236083984 126.51715087890625 117.52479553222656 142.75389099121094 118.38916015625 141.38189697265625 C 101.59650421142578 143.67745971679688 87.39251708984375 139.517822265625 42.023685455322266 142.66481018066406 C 15.707653045654297 104.79288482666016 18.854393005371094 52.046329498291016 221.93670654296875 -21.414958953857422 C 304.2578430175781 14.578850746154785 245.37567138671875 42.268394470214844 148.91165161132812 75.69830322265625" stroke-width="0.0" fill="rgb(174, 177, 170)" opacity="0.78695226"/>
    <path d="M 122.60228729248047 146.94151306152344 C 126.2197036743164 162.1921844482422 131.9261932373047 170.6578826904297 108.74887084960938 175.84593200683594 C 94.23905181884766 150.1714324951172 86.7104721069336 143.03048706054688 85.79156494140625 123.45338439941406 C 88.68085479736328 107.34529113769531 104.57401275634766 113.24691772460938 109.4430923461914 126.9093017578125 C 109.1743392944336 112.85472106933594 121.46512603759766 125.25106048583984 122.60228729248047 146.94151306152344" stroke-width="0.0" fill="rgb(211, 219, 217)" opacity="0.95977557"/>
    <path d="M 142.72093200683594 121.63481903076172 C 120.3381118774414 138.60496520996094 120.10652923583984 152.26014709472656 103.94171142578125 173.91380310058594 C 83.28916931152344 168.1575164794922 80.78158569335938 177.362060546875 93.1864242553711 165.5792999267578 C 92.99955749511719 126.29303741455078 101.80995178222656 124.23694610595703 109.4588851928711 115.4809799194336 C 117.8819351196289 111.19097900390625 130.3007049560547 119.887451171875 142.72093200683594 121.63481903076172" stroke-width="0.0" fill="rgb(210, 215, 216)" opacity="0.9429396"/>
    <path d="M 20.477035522460938 0.7585279941558838 C 17.797542572021484 10.758527755737305 10.477034568786621 18.07903480529785 0.47703468799591064 20.758527755737305 C -9.522965431213379 18.07903480529785 -16.84347152709961 10.758527755737305 -19.522964477539062 0.7585279941558838 C -16.84347152709961 -9.241472244262695 -9.522965431213379 -16.561979293823242 0.47703468799591064 -19.241472244262695 C 10.477034568786621 -16.561979293823242 17.797542572021484 -9.241472244262695 20.477035522460938 0.7585279941558838" stroke-width="0.0" fill="rgb(135, 91, 65)" opacity="0.7426194" stroke="rgb(42, 178, 78)" stroke-opacity="0.5083862" stroke-linecap="round" stroke-linejoin="round"/>
    <path d="M 116.9864501953125 150.38418579101562 C 113.25798034667969 114.44056701660156 103.1219482421875 124.57596588134766 91.2044677734375 138.17628479003906 C 114.47411346435547 158.43942260742188 116.46371459960938 142.09791564941406 102.42813873291016 135.04891967773438 C 107.5362319946289 133.05804443359375 110.8003921508789 121.53008270263672 149.0016326904297 88.17726135253906 C 142.8118896484375 127.54676055908203 141.431884765625 154.23501586914062 116.9864501953125 150.38418579101562" stroke-width="0.0" fill="rgb(211, 213, 216)" opacity="0.9334215"/>
    <path d="M 116.55413818359375 375.3635559082031 C 134.84776306152344 387.98443603515625 121.84050750732422 370.94427490234375 119.35581970214844 383.78076171875 C 103.26683807373047 402.5052490234375 104.58578491210938 388.5017395019531 87.88439178466797 361.7725830078125 C 93.38909149169922 332.1439514160156 103.53888702392578 340.03216552734375 105.7255630493164 367.2576904296875 C 107.51361846923828 377.952392578125 118.16915893554688 384.1199035644531 116.55413818359375 375.3635559082031" stroke-width="0.0" fill="rgb(202, 215, 254)" opacity="0.37747517"/>
    <path d="M 392.9178771972656 104.75557708740234 C 386.3228454589844 119.10928344726562 407.0117492675781 137.04248046875 366.0765686035156 126.75882720947266 C 294.8039855957031 100.26727294921875 334.1177673339844 127.4466781616211 309.0854187011719 66.50444030761719 C 367.0862731933594 57.3401985168457 380.6291198730469 73.59085083007812 370.3863830566406 95.05826568603516 C 355.6427307128906 73.96974182128906 373.62884521484375 63.33225631713867 392.9178771972656 104.75557708740234" stroke-width="0.0" fill="rgb(208, 216, 228)" opacity="1.0"/>
    <path d="M 277.4554443359375 296.3470764160156 C 281.4880065917969 307.51129150390625 318.3867492675781 305.7745056152344 276.51806640625 319.48095703125 C 268.2375793457031 271.9305114746094 252.2993621826172 293.579345703125 286.1385803222656 291.7099304199219 C 282.0457763671875 286.3667907714844 246.83560180664062 267.2275390625 227.48060607910156 262.95074462890625 C 269.08746337890625 293.8756408691406 272.54156494140625 301.3783874511719 277.4554443359375 296.3470764160156" stroke-width="0.0" fill="rgb(0, 3, 22)" opacity="0.9847748"/>
    <path d="M 249.7301483154297 261.64788818359375 C 216.08383178710938 249.68484497070312 183.3981170654297 244.49264526367188 170.68380737304688 233.89590454101562 C 184.26312255859375 235.02008056640625 171.86444091796875 223.6555633544922 177.14964294433594 239.65797424316406 C 165.87625122070312 225.2022247314453 180.5029754638672 242.17410278320312 183.2989501953125 240.1528778076172 C 194.56224060058594 207.92745971679688 218.7938232421875 206.466552734375 249.7301483154297 261.64788818359375" stroke-width="0.0" fill="rgb(48, 0, 4)" opacity="0.9656384"/>
    <path d="M 360.9941101074219 244.14913940429688 C 371.4700927734375 240.4130096435547 363.3212585449219 256.5732727050781 340.8167724609375 262.8385314941406 C 299.2004699707031 230.24981689453125 364.5176696777344 267.1966552734375 315.0334167480469 250.181884765625 C 311.47076416015625 206.64990234375 354.7668151855469 241.7681121826172 355.4246826171875 210.12823486328125 C 372.98431396484375 209.91835021972656 373.0408630371094 247.5107879638672 360.9941101074219 244.14913940429688" stroke-width="0.0" fill="rgb(252, 255, 255)" opacity="0.99725646"/>
    <path d="M 20.241430282592773 0.6174895763397217 C 17.56193733215332 10.6174898147583 10.241429328918457 17.93799591064453 0.24142947793006897 20.617488861083984 C -9.758570671081543 17.93799591064453 -17.079076766967773 10.6174898147583 -19.758569717407227 0.6174895763397217 C -17.079076766967773 -9.3825101852417 -9.758570671081543 -16.703018188476562 0.24142947793006897 -19.382511138916016 C 10.241429328918457 -16.703018188476562 17.56193733215332 -9.3825101852417 20.241430282592773 0.6174895763397217" stroke-width="0.0" fill="rgb(79, 56, 225)" opacity="0.8096634" stroke="rgb(201, 22, 226)" stroke-opacity="0.8519699" stroke-linecap="round" stroke-linejoin="round"/>
    <path d="M 123.23418426513672 255.4214630126953 C 112.65084838867188 282.5513916015625 127.50106811523438 292.4035949707031 73.45223999023438 296.167724609375 C 88.34487915039062 315.1117858886719 86.46629333496094 264.7004089355469 96.75313568115234 268.4385986328125 C 82.41517639160156 232.3900909423828 115.3363265991211 263.42120361328125 100.77021789550781 217.33921813964844 C 155.3366241455078 197.14736938476562 135.53419494628906 207.97129821777344 123.23418426513672 255.4214630126953" stroke-width="0.0" fill="rgb(229, 235, 232)" opacity="0.5689336"/>
    <path d="M 475.7979431152344 346.77001953125 C 473.847900390625 338.41595458984375 471.0634765625 328.0223693847656 471.3818359375 322.9282531738281 C 466.078857421875 324.1955871582031 478.3800048828125 339.5655517578125 464.0415344238281 400.4764099121094 C 463.4346923828125 372.2035827636719 503.7862548828125 287.5040283203125 456.4289855957031 210.07240295410156 C 495.0417785644531 290.5111083984375 462.7127380371094 336.146240234375 475.7979431152344 346.77001953125" stroke-width="0.0" fill="rgb(159, 195, 162)" opacity="0.6021805"/>
    <path d="M 507.1246643066406 271.6600341796875 C 530.665771484375 273.6402893066406 515.8385009765625 283.83355712890625 491.16119384765625 279.51141357421875 C 488.72705078125 257.1573791503906 488.4705810546875 236.59222412109375 474.1868896484375 258.9117126464844 C 484.8281555175781 257.6536865234375 463.6270446777344 231.6328125 471.8830261230469 207.29017639160156 C 508.5694274902344 173.60337829589844 503.691162109375 284.3482360839844 507.1246643066406 271.6600341796875" stroke-width="0.0" fill="rgb(205, 235, 225)" opacity="0.62135834"/>
    <path d="M 432.636962890625 28.523944854736328 C 326.7197570800781 64.64466857910156 279.2878112792969 20.602384567260742 260.282470703125 40.38287353515625 C 256.2431335449219 42.15115737915039 227.55386352539062 67.28522491455078 189.83558654785156 34.08168411254883 C 233.7633056640625 -8.329757690429688 252.31051635742188 2.6109838485717773 277.841796875 0.6610708832740784 C 302.0084228515625 -21.504968643188477 329.9285888671875 -60.33128356933594 432.636962890625 28.523944854736328" stroke-width="0.0" fill="rgb(194, 182, 197)" opacity="0.21959369"/>
    <path d="M 94.4729232788086 321.09088134765625 C 98.86734008789062 314.5850830078125 114.71049499511719 348.06768798828125 94.07101440429688 347.2486877441406 C 67.27508544921875 367.9690246582031 97.52911376953125 333.1088562011719 75.23322296142578 304.4207763671875 C 75.53062438964844 299.7700500488281 87.34835052490234 322.6341552734375 85.24545288085938 321.9986877441406 C 107.98953247070312 329.996826171875 121.50634002685547 322.1480712890625 94.4729232788086 321.09088134765625" stroke-width="0.0" fill="rgb(213, 224, 233)" opacity="0.3929299"/>
    <path d="M 20.477062225341797 0.9665542244911194 C 17.797569274902344 10.966554641723633 10.477063179016113 18.28706169128418 0.4770631194114685 20.966554641723633 C -9.522936820983887 18.28706169128418 -16.84344482421875 10.966554641723633 -19.522937774658203 0.9665542244911194 C -16.84344482421875 -9.033445358276367 -9.522936820983887 -16.353952407836914 0.4770631194114685 -19.033445358276367 C 10.477063179016113 -16.353952407836914 17.797569274902344 -9.033445358276367 20.477062225341797 0.9665542244911194" stroke-width="0.0" fill="rgb(86, 244, 112)" opacity="0.97202533" stroke="rgb(186, 148, 162)" stroke-opacity="0.19032082" stroke-linecap="round" stroke-linejoin="round"/>
    <path d="M 20.154277801513672 0.2796582579612732 C 17.47478485107422 10.279658317565918 10.154277801513672 17.60016441345215 0.15427754819393158 20.2796573638916 C -9.845722198486328 17.60016441345215 -17.166229248046875 10.279658317565918 -19.845722198486328 0.2796582579612732 C -17.166229248046875 -9.720341682434082 -9.845722198486328 -17.040849685668945 0.15427754819393158 -19.7203426361084 C 10.154277801513672 -17.040849685668945 17.47478485107422 -9.720341682434082 20.154277801513672 0.2796582579612732" stroke-width="0.0" fill="rgb(148, 246, 225)" opacity="0.7415042" stroke="rgb(147, 9, 102)" stroke-opacity="0.16307528" stroke-linecap="round" stroke-linejoin="round"/>
    <path d="M 481.63116455078125 177.86502075195312 C 491.7273864746094 174.67984008789062 491.4229431152344 200.25328063964844 490.39642333984375 192.53604125976562 C 502.0940246582031 158.3768768310547 494.42608642578125 159.17645263671875 481.9095153808594 144.1714324951172 C 477.5653381347656 146.4200897216797 464.74737548828125 132.4176788330078 453.0652160644531 129.84600830078125 C 492.6869201660156 166.7941131591797 489.244140625 167.94720458984375 481.63116455078125 177.86502075195312" stroke-width="0.0" fill="rgb(62, 51, 54)" opacity="0.53387034"/>
    <path d="M 132.69271850585938 237.65745544433594 C 135.92135620117188 223.17123413085938 128.62942504882812 235.94773864746094 117.81863403320312 249.0120391845703 C 81.46293640136719 238.78700256347656 102.66514587402344 253.48486328125 92.91619873046875 237.5094451904297 C 112.45911407470703 203.0626678466797 77.43128204345703 171.23867797851562 138.5500946044922 191.4653778076172 C 122.7007064819336 216.13079833984375 116.11414337158203 232.31002807617188 132.69271850585938 237.65745544433594" stroke-width="0.0" fill="rgb(211, 222, 221)" opacity="0.85615987"/>
    <path d="M 142.8529510498047 222.09735107421875 C 152.39181518554688 205.6847381591797 170.46603393554688 206.74066162109375 165.810791015625 229.60281372070312 C 142.30430603027344 224.4650421142578 149.13873291015625 221.2195587158203 152.7975616455078 211.7977752685547 C 159.94595336914062 202.76779174804688 155.57672119140625 199.1954803466797 180.37228393554688 243.12974548339844 C 201.02320861816406 216.17857360839844 208.0596923828125 233.24407958984375 142.8529510498047 222.09735107421875" stroke-width="0.0" fill="rgb(254, 254, 176)" opacity="0.9478865"/>
    <path d="M 336.25933837890625 206.31968688964844 C 348.2626037597656 196.4081573486328 333.6410217285156 208.9501495361328 323.5517883300781 209.97341918945312 C 326.7523498535156 210.14736938476562 323.1488952636719 195.20863342285156 294.452392578125 200.450927734375 C 314.33111572265625 182.56005859375 320.54449462890625 198.9014892578125 293.84149169921875 191.01258850097656 C 314.6862487792969 188.8237762451172 314.7808532714844 196.28599548339844 336.25933837890625 206.31968688964844" stroke-width="0.0" fill="rgb(254, 254, 250)" opacity="0.74265075"/>
    <path d="M 158.3581085205078 448.2569274902344 C 204.67596435546875 459.89813232421875 151.19216918945312 483.7237548828125 160.64297485351562 446.2118835449219 C 144.9119415283203 435.9889221191406 123.75639343261719 413.10888671875 149.36050415039062 428.4727478027344 C 127.98970031738281 425.79876708984375 135.2469940185547 425.24566650390625 144.1058349609375 422.7054138183594 C 137.35128784179688 399.64862060546875 130.962890625 410.02081298828125 158.3581085205078 448.2569274902344" stroke-width="0.0" fill="rgb(202, 199, 210)" opacity="0.68665874"/>
    <path d="M 256.95556640625 110.52650451660156 C 226.4595947265625 114.75465393066406 242.56629943847656 125.63084411621094 214.23924255371094 131.77114868164062 C 198.3748016357422 110.73103332519531 217.02789306640625 137.50555419921875 193.2703094482422 99.26139068603516 C 206.32626342773438 82.13785552978516 198.7438507080078 94.79952239990234 199.0674285888672 105.07532501220703 C 217.63121032714844 85.49626922607422 234.16847229003906 92.35374450683594 256.95556640625 110.52650451660156" stroke-width="0.0" fill="rgb(212, 214, 235)" opacity="1.0"/>
    <path d="M 516.7426147460938 288.87640380859375 C 495.37738037109375 291.4278869628906 459.2060852050781 299.8251953125 495.5608215332031 286.3248596191406 C 481.0442810058594 289.7387390136719 484.7444763183594 299.615966796875 486.6475524902344 269.4900817871094 C 488.913330078125 292.2364807128906 494.4857482910156 264.34881591796875 480.6591796875 245.98789978027344 C 497.33697509765625 266.2674865722656 526.5863647460938 278.6481018066406 516.7426147460938 288.87640380859375" stroke-width="0.0" fill="rgb(174, 232, 224)" opacity="0.4259323"/>
    <path d="M 122.97595977783203 203.27474975585938 C 128.2253875732422 228.48101806640625 124.65271759033203 211.86827087402344 123.11453247070312 205.2722930908203 C 118.24934387207031 199.65402221679688 111.61996459960938 187.71823120117188 89.1706771850586 229.04647827148438 C 105.44794464111328 171.13656616210938 118.59777069091797 160.64712524414062 106.98380279541016 178.0985870361328 C 107.25981903076172 170.90411376953125 147.6062774658203 208.0975799560547 122.97595977783203 203.27474975585938" stroke-width="0.0" fill="rgb(60, 38, 54)" opacity="0.85134953"/>
    <path d="M 476.3018798828125 446.1651611328125 C 479.5762939453125 442.9562072753906 460.3221740722656 457.90606689453125 454.9798583984375 446.7471618652344 C 447.47320556640625 425.2273254394531 431.31341552734375 407.8274841308594 430.0856628417969 435.9133605957031 C 436.52069091796875 421.5404052734375 441.5975036621094 404.6158142089844 464.7427062988281 411.9302978515625 C 458.3251037597656 411.95562744140625 475.9407653808594 419.6752624511719 476.3018798828125 446.1651611328125" stroke-width="0.0" fill="rgb(220, 230, 223)" opacity="0.49210194"/>
    <path d="M 138.5373077392578 398.8515319824219 C 124.29180908203125 411.0467834472656 112.38687896728516 420.80706787109375 92.20539855957031 420.2823486328125 C 116.66023254394531 433.7637939453125 113.86673736572266 409.9554748535156 94.3118896484375 397.11871337890625 C 100.67484283447266 409.28076171875 113.51383209228516 396.0508117675781 112.2303237915039 391.2623291015625 C 123.99642181396484 403.3121337890625 141.36264038085938 374.2171630859375 138.5373077392578 398.8515319824219" stroke-width="0.0" fill="rgb(31, 1, 26)" opacity="0.74407566"/>
    <path d="M 20.279390335083008 0.5341598987579346 C 17.599897384643555 10.534159660339355 10.279390335083008 17.85466766357422 0.2793901562690735 20.534160614013672 C -9.720609664916992 17.85466766357422 -17.04111671447754 10.534159660339355 -19.720609664916992 0.5341598987579346 C -17.04111671447754 -9.465840339660645 -9.720609664916992 -16.786346435546875 0.2793901562690735 -19.465839385986328 C 10.279390335083008 -16.786346435546875 17.599897384643555 -9.465840339660645 20.279390335083008 0.5341598987579346" stroke-width="0.0" fill="rgb(226, 118, 81)" opacity="0.8631672" stroke="rgb(198, 202, 226)" stroke-opacity="0.09741532" stroke-linecap="round" stroke-linejoin="round"/>
    <path d="M 475.8926086425781 175.42852783203125 C 455.340576171875 203.80108642578125 425.7623291015625 188.5338897705078 470.1046447753906 170.9657745361328 C 438.3480224609375 185.11106872558594 420.38824462890625 153.38731384277344 441.0129699707031 169.98779296875 C 451.4698791503906 197.10238647460938 447.4570617675781 190.60446166992188 421.12811279296875 162.3682098388672 C 470.8468017578125 157.73541259765625 439.67559814453125 166.8694305419922 475.8926086425781 175.42852783203125" stroke-width="0.0" fill="rgb(223, 235, 222)" opacity="0.34631482"/>
    <path d="M 495.86907958984375 236.46670532226562 C 495.37445068359375 200.70263671875 474.7917175292969 201.6604461669922 457.15283203125 214.1873779296875 C 503.4416198730469 221.05487060546875 485.433837890625 215.40335083007812 485.6791076660156 222.38356018066406 C 500.005859375 221.72686767578125 476.7333679199219 211.531982421875 474.4588928222656 208.9794158935547 C 481.9693298339844 197.3368377685547 495.5849304199219 211.88706970214844 495.86907958984375 236.46670532226562" stroke-width="0.0" fill="rgb(218, 244, 233)" opacity="0.7133321"/>
    <path d="M 135.1424102783203 313.9183349609375 C 120.24161529541016 317.4114074707031 118.12220001220703 289.8588562011719 149.41567993164062 291.1102294921875 C 160.51039123535156 309.4085693359375 146.34085083007812 305.6184387207031 150.86634826660156 305.1370849609375 C 138.2877197265625 305.6438903808594 151.6631317138672 304.2936096191406 171.6898193359375 299.0196533203125 C 120.83411407470703 298.0780944824219 137.18328857421875 302.5399169921875 135.1424102783203 313.9183349609375" stroke-width="0.0" fill="rgb(84, 70, 1)" opacity="0.7720878"/>
    <path d="M 111.350341796875 388.7251892089844 C 109.63716888427734 342.6602478027344 122.22826385498047 361.108642578125 112.14324951171875 386.89642333984375 C 113.06804656982422 390.12969970703125 107.44357299804688 355.8566589355469 99.72332000732422 349.366943359375 C 103.07485961914062 365.5235595703125 104.33722686767578 372.6578369140625 91.93911743164062 373.90142822265625 C 105.41322326660156 374.1222839355469 122.73824310302734 380.4141540527344 111.350341796875 388.7251892089844" stroke-width="0.0" fill="rgb(177, 204, 193)" opacity="0.37647995"/>
    <path d="M 20.534683227539062 0.23952467739582062 C 17.85519027709961 10.239524841308594 10.534683227539062 17.56003189086914 0.5346834063529968 20.239524841308594 C -9.465316772460938 17.56003189086914 -16.785823822021484 10.239524841308594 -19.465316772460938 0.23952467739582062 C -16.785823822021484 -9.760475158691406 -9.465316772460938 -17.080982208251953 0.5346834063529968 -19.760475158691406 C 10.534683227539062 -17.080982208251953 17.85519027709961 -9.760475158691406 20.534683227539062 0.23952467739582062" stroke-width="0.0" fill="rgb(211, 154, 57)" opacity="0.92899436" stroke="rgb(143, 40, 60)" stroke-opacity="0.8156265" stroke-linecap="round" stroke-linejoin="round"/>
    <path d="M 302.1756896972656 434.1217956542969 C 282.54779052734375 411.7638244628906 267.8296813964844 437.1458435058594 306.3111267089844 471.4220886230469 C 304.8514404296875 424.45916748046875 288.3735656738281 414.0462341308594 291.593505859375 462.2576599121094 C 290.8257141113281 461.7665710449219 314.8566589355469 463.40570068359375 289.0630187988281 471.59112548828125 C 275.8851013183594 446.8958435058594 298.6008605957031 458.53076171875 302.1756896972656 434.1217956542969" stroke-width="0.0" fill="rgb(241, 253, 220)" opacity="0.73344594"/>
    <path d="M 235.12142944335938 185.6191864013672 C 246.34173583984375 175.5438690185547 239.35679626464844 183.1808624267578 233.9967803955078 175.55307006835938 C 235.9980010986328 196.89825439453125 220.46176147460938 185.02308654785156 221.166259765625 183.86306762695312 C 227.25437927246094 202.67535400390625 240.49530029296875 183.24940490722656 249.74365234375 183.4495086669922 C 223.6968994140625 164.2654571533203 230.12498474121094 172.1893310546875 235.12142944335938 185.6191864013672" stroke-width="0.0" fill="rgb(142, 49, 34)" opacity="1.0"/>
    <path d="M 154.07325744628906 198.63311767578125 C 165.19967651367188 199.3671875 171.0128631591797 206.05247497558594 151.85215759277344 199.3856201171875 C 143.36767578125 220.4058837890625 135.9532470703125 218.57069396972656 148.3247833251953 227.61082458496094 C 155.79884338378906 200.8697509765625 154.24514770507812 199.7230682373047 167.47811889648438 219.15176391601562 C 189.03256225585938 232.4037628173828 198.00888061523438 222.70648193359375 154.07325744628906 198.63311767578125" stroke-width="0.0" fill="rgb(0, 0, 2)" opacity="0.49030697"/>
    <path d="M 296.6615905761719 163.919921875 C 302.0010986328125 143.54698181152344 273.4127502441406 171.79327392578125 289.04296875 173.5518035888672 C 291.9223937988281 177.22048950195312 283.369140625 166.9643096923828 300.63153076171875 169.8255615234375 C 277.9662780761719 121.04888153076172 270.28643798828125 129.50531005859375 301.8021545410156 128.81715393066406 C 305.5798645019531 124.830078125 305.70269775390625 181.53012084960938 296.6615905761719 163.919921875" stroke-width="0.0" fill="rgb(245, 255, 200)" opacity="0.9038485"/>
    <path d="M 20.46587562561035 0.7789596915245056 C 17.7863826751709 10.778959274291992 10.465876579284668 18.09946632385254 0.4658762812614441 20.778959274291992 C -9.534123420715332 18.09946632385254 -16.854631423950195 10.778959274291992 -19.53412437438965 0.7789596915245056 C -16.854631423950195 -9.221040725708008 -9.534123420715332 -16.541547775268555 0.4658762812614441 -19.221040725708008 C 10.465876579284668 -16.541547775268555 17.7863826751709 -9.221040725708008 20.46587562561035 0.7789596915245056" stroke-width="0.0" fill="rgb(3, 187, 27)" opacity="0.8242161" stroke="rgb(57, 241, 214)" stroke-opacity="0.55107397" stroke-linecap="round" stroke-linejoin="round"/>
    <path d="M 458.8324890136719 451.759033203125 C 435.8343811035156 466.8580627441406 445.0606689453125 457.9237060546875 415.005615234375 468.80047607421875 C 431.40509033203125 465.9308776855469 408.7911682128906 453.3702697753906 407.9091491699219 453.2961730957031 C 436.5593566894531 440.007080078125 419.27862548828125 443.7899475097656 429.9388427734375 442.670654296875 C 450.9503479003906 426.3595275878906 447.2513427734375 438.2842712402344 458.8324890136719 451.759033203125" stroke-width="0.0" fill="rgb(202, 220, 204)" opacity="0.7960548"/>
    <path d="M 295.889892578125 81.29153442382812 C 286.28118896484375 120.63362121582031 293.08001708984375 110.13439178466797 274.51123046875 114.73548889160156 C 254.28463745117188 108.88179016113281 229.13465881347656 109.07772064208984 235.4795684814453 89.02684020996094 C 281.5004577636719 102.4789810180664 283.73095703125 90.04615783691406 290.279296875 88.74179077148438 C 292.7314147949219 81.47694396972656 281.5605773925781 69.38603973388672 295.889892578125 81.29153442382812" stroke-width="0.0" fill="rgb(171, 187, 213)" opacity="0.8710528"/>
    <path d="M 152.66897583007812 310.24993896484375 C 144.28585815429688 284.41552734375 115.29228973388672 286.18499755859375 132.296875 304.0047607421875 C 159.4580535888672 295.60302734375 177.91006469726562 285.8965148925781 157.2408905029297 298.9077453613281 C 173.678955078125 298.662353515625 169.82662963867188 310.05999755859375 145.7032012939453 308.0096435546875 C 137.78797912597656 277.8830871582031 147.11703491210938 286.3174743652344 152.66897583007812 310.24993896484375" stroke-width="0.0" fill="rgb(255, 251, 196)" opacity="0.7272658"/>
  </g>
</svg>
