<?xml version="1.0" ?>
<svg xmlns="http://www.w3.org/2000/svg" version="1.1" width="600" height="600">
  <defs/>
  <g>
    <path d="M 341.5661926269531 474.02105712890625 C 328.6288757324219 498.2690734863281 322.7814636230469 508.036376953125 307.90972900390625 548.2479248046875 C 175.2918243408203 534.3851928710938 195.32168579101562 510.3217468261719 225.99891662597656 463.6779479980469 C 213.9708251953125 404.9853515625 193.6399688720703 362.0583190917969 245.0440673828125 366.8014221191406 C 310.4181213378906 373.8387451171875 325.1280212402344 381.7850036621094 341.5661926269531 474.02105712890625" stroke-width="0.0" fill="rgb(121, 117, 119)" opacity="0.90941674"/>
    <path d="M 318.09124755859375 558.2081909179688 C 313.4399719238281 663.6626586914062 274.5257873535156 631.9140014648438 214.0651092529297 617.3416748046875 C 185.22970581054688 626.605712890625 183.76303100585938 616.959716796875 185.8652801513672 599.115966796875 C 201.29373168945312 583.952392578125 189.3789520263672 553.6383056640625 274.697265625 489.0797119140625 C 319.33465576171875 486.4053955078125 328.43841552734375 484.5377197265625 318.09124755859375 558.2081909179688" stroke-width="0.0" fill="rgb(86, 141, 123)" opacity="1.0"/>
    <path d="M 634.4163208007812 580.6963500976562 C 566.1362915039062 641.0277709960938 536.2870483398438 628.2161865234375 482.415283203125 616.2941284179688 C 323.9625549316406 611.8367309570312 318.8338623046875 597.6182861328125 349.38482666015625 552.0756225585938 C 394.56610107421875 498.4670715332031 394.5047607421875 478.9087829589844 469.3958435058594 446.128662109375 C 533.5894775390625 425.168701171875 599.7813110351562 390.328125 634.4163208007812 580.6963500976562" stroke-width="0.0" fill="rgb(82, 116, 125)" opacity="0.974702"/>
    <path d="M 471.7530822753906 446.4254455566406 C 446.4009704589844 481.5669250488281 427.7923583984375 481.42474365234375 349.9928894042969 491.5467834472656 C 338.56439208984375 511.9808654785156 330.6658935546875 508.2786560058594 301.4554138183594 479.6141052246094 C 312.82940673828125 375.8211669921875 332.0189208984375 380.5827941894531 371.18682861328125 402.0700378417969 C 424.47686767578125 409.19268798828125 447.6295471191406 406.842529296875 471.7530822753906 446.4254455566406" stroke-width="0.0" fill="rgb(113, 110, 109)" opacity="0.91786134"/>
    <path d="M 491.0283203125 253.27891540527344 C 414.48175048828125 425.7773132324219 376.10565185546875 409.2267150878906 330.3571472167969 398.4096374511719 C 272.97882080078125 419.18072509765625 227.2395477294922 443.1484069824219 210.2114715576172 325.02154541015625 C 230.67013549804688 275.8843688964844 244.5149688720703 277.3723449707031 358.1817626953125 263.2735595703125 C 460.4197692871094 256.25048828125 487.21759033203125 226.88845825195312 491.0283203125 253.27891540527344" stroke-width="0.0" fill="rgb(142, 112, 100)" opacity="0.72325706"/>
    <path d="M 279.72540283203125 442.26220703125 C 280.61224365234375 480.5622863769531 311.9312438964844 511.0215759277344 189.1886749267578 528.6412963867188 C 103.13793182373047 540.9605712890625 75.2264175415039 571.0491943359375 73.1191177368164 380.30029296875 C 95.91200256347656 306.2234191894531 120.32344055175781 314.86602783203125 183.63766479492188 319.2204895019531 C 316.6374816894531 325.58978271484375 287.5638427734375 367.5458068847656 279.72540283203125 442.26220703125" stroke-width="0.0" fill="rgb(172, 148, 136)" opacity="0.9879489"/>
    <path d="M 229.62918090820312 593.4176025390625 C 237.33518981933594 610.3514404296875 237.8877716064453 616.0637817382812 220.8831024169922 619.903076171875 C 186.08717346191406 615.1029052734375 171.9815673828125 614.0189208984375 160.18820190429688 605.8673095703125 C 177.8542938232422 565.9237060546875 183.87396240234375 556.5933837890625 218.53042602539062 542.5709228515625 C 234.4674072265625 555.7439575195312 240.32208251953125 576.106201171875 229.62918090820312 593.4176025390625" stroke-width="0.0" fill="rgb(113, 169, 154)" opacity="0.81094956"/>
    <path d="M 449.9900817871094 502.4974670410156 C 418.24951171875 509.8284912109375 445.5195617675781 551.3873901367188 353.0605773925781 626.3096313476562 C 303.4634704589844 622.7684326171875 305.9772644042969 613.1902465820312 303.43658447265625 549.7985229492188 C 289.9179382324219 427.1432189941406 328.5359191894531 444.2587585449219 373.67901611328125 448.23382568359375 C 451.19012451171875 457.3103942871094 448.24853515625 466.5745849609375 449.9900817871094 502.4974670410156" stroke-width="0.0" fill="rgb(93, 132, 126)" opacity="0.9999516"/>
    <path d="M 439.624755859375 365.4393005371094 C 397.3680419921875 435.4764404296875 394.89337158203125 449.7638244628906 338.15643310546875 444.7049560546875 C 270.2020263671875 441.94488525390625 250.8100128173828 436.6488037109375 244.3617706298828 386.0444030761719 C 263.6559753417969 323.37353515625 296.0995178222656 341.3604736328125 337.91864013671875 366.4016418457031 C 391.280517578125 344.6125183105469 429.735595703125 326.7278747558594 439.624755859375 365.4393005371094" stroke-width="0.0" fill="rgb(108, 115, 125)" opacity="0.9503418"/>
    <path d="M 259.424560546875 491.8784484863281 C 204.24850463867188 589.4376220703125 203.31979370117188 606.9874877929688 113.5168685913086 629.3372192382812 C 16.674768447875977 673.84228515625 -10.314164161682129 720.7725830078125 -36.585044860839844 474.6785583496094 C -46.851478576660156 348.4881286621094 -41.34846496582031 336.9635314941406 45.653812408447266 321.1394958496094 C 279.9132995605469 451.4694519042969 275.5801086425781 474.2099304199219 259.424560546875 491.8784484863281" stroke-width="0.0" fill="rgb(157, 159, 125)" opacity="1.0"/>
    <path d="M 585.1865234375 157.67767333984375 C 565.238525390625 264.53253173828125 555.5078125 268.39129638671875 468.8987121582031 275.8160705566406 C 253.6732635498047 207.46397399902344 193.70831298828125 245.23422241210938 164.77615356445312 2.1832220554351807 C 219.80799865722656 -42.707008361816406 256.9185485839844 -22.053682327270508 351.2942810058594 -12.012809753417969 C 488.9656677246094 -7.916533470153809 483.51776123046875 6.910266399383545 585.1865234375 157.67767333984375" stroke-width="0.0" fill="rgb(25, 99, 162)" opacity="0.9990328"/>
    <path d="M 645.2870483398438 107.54093933105469 C 670.0341186523438 191.11172485351562 700.47265625 223.49827575683594 568.3262329101562 252.4102020263672 C 395.4627990722656 211.81622314453125 446.9729309082031 136.2778778076172 436.574462890625 35.263526916503906 C 410.82568359375 -58.33707046508789 430.307861328125 -43.489315032958984 496.4130554199219 -16.309310913085938 C 597.9566040039062 -31.78985023498535 614.6926879882812 -42.638221740722656 645.2870483398438 107.54093933105469" stroke-width="0.0" fill="rgb(188, 157, 136)" opacity="0.9985422"/>
    <path d="M 626.91845703125 478.4591064453125 C 633.744873046875 583.2131958007812 638.5950317382812 604.2384033203125 608.2196044921875 586.0528564453125 C 447.2793884277344 449.1391906738281 427.386474609375 445.8270263671875 374.6831359863281 360.85491943359375 C 346.7723388671875 293.3381652832031 328.3249206542969 243.47142028808594 567.6394653320312 210.78805541992188 C 665.9959716796875 210.7573699951172 646.4990844726562 227.16983032226562 626.91845703125 478.4591064453125" stroke-width="0.0" fill="rgb(130, 141, 120)" opacity="0.7312618"/>
    <path d="M 311.792236328125 262.59844970703125 C 322.2589416503906 333.4378662109375 317.32818603515625 353.7878112792969 94.13186645507812 405.3446350097656 C -4.356106758117676 438.50732421875 -18.510862350463867 441.45947265625 -31.340723037719727 203.2337188720703 C -30.68935203552246 -11.354143142700195 -25.166275024414062 -22.166879653930664 95.05183410644531 -26.282203674316406 C 361.25 16.776607513427734 316.19512939453125 93.52716827392578 311.792236328125 262.59844970703125" stroke-width="0.0" fill="rgb(209, 184, 144)" opacity="0.99038553"/>
    <path d="M 494.2067565917969 268.56787109375 C 469.7403259277344 338.82537841796875 426.3468322753906 329.2734375 369.7252502441406 293.3717041015625 C 266.00146484375 288.6591491699219 233.1947784423828 280.7265930175781 220.5287628173828 237.66146850585938 C 218.92398071289062 129.70547485351562 222.74575805664062 116.96306610107422 281.7169494628906 137.276123046875 C 416.1004638671875 161.9509735107422 460.4916076660156 143.27723693847656 494.2067565917969 268.56787109375" stroke-width="0.0" fill="rgb(88, 125, 144)" opacity="0.66621256"/>
    <path d="M 462.0998229980469 431.556884765625 C 465.5368957519531 486.36822509765625 442.48333740234375 484.47442626953125 418.22149658203125 445.77935791015625 C 391.31463623046875 448.58758544921875 344.4779357910156 463.4254455566406 319.8821716308594 423.1886901855469 C 329.1156921386719 362.7662658691406 332.1639404296875 352.2367248535156 410.69921875 351.19580078125 C 460.2983703613281 361.25262451171875 454.65411376953125 379.9951477050781 462.0998229980469 431.556884765625" stroke-width="0.0" fill="rgb(106, 103, 133)" opacity="0.95784414"/>
    <path d="M 297.36279296875 208.1442108154297 C 290.428955078125 216.79066467285156 286.765380859375 228.63221740722656 254.9834442138672 242.80487060546875 C 239.18341064453125 233.57774353027344 227.58633422851562 228.13467407226562 233.03176879882812 202.12957763671875 C 249.47975158691406 188.44442749023438 258.6124267578125 181.15618896484375 275.5416564941406 171.1518096923828 C 290.01446533203125 167.09181213378906 295.2469482421875 180.80357360839844 297.36279296875 208.1442108154297" stroke-width="0.0" fill="rgb(117, 126, 144)" opacity="0.8025631"/>
    <path d="M 137.50791931152344 604.6605834960938 C 107.44694519042969 590.8823852539062 130.69781494140625 626.2225341796875 103.75868225097656 628.6355590820312 C 62.75314712524414 606.4992065429688 59.39183807373047 595.7505493164062 61.651100158691406 575.5104370117188 C 58.4310302734375 571.3860473632812 55.93937683105469 552.896728515625 75.93961334228516 517.0980834960938 C 123.64791107177734 506.275146484375 136.44735717773438 536.111083984375 137.50791931152344 604.6605834960938" stroke-width="0.0" fill="rgb(49, 138, 136)" opacity="0.9868228"/>
    <path d="M 336.4571228027344 186.35922241210938 C 326.3453674316406 229.51686096191406 304.15692138671875 217.69728088378906 266.1577453613281 207.19598388671875 C 264.22760009765625 205.18124389648438 264.0902404785156 187.24807739257812 268.8551330566406 205.88174438476562 C 258.5375061035156 199.1585693359375 262.8659973144531 170.75575256347656 271.386474609375 175.69117736816406 C 283.4075012207031 186.48648071289062 315.65216064453125 181.18145751953125 336.4571228027344 186.35922241210938" stroke-width="0.0" fill="rgb(86, 111, 128)" opacity="0.61785424"/>
    <path d="M 335.8196105957031 184.7946319580078 C 314.90704345703125 205.174072265625 290.29541015625 204.84872436523438 298.0312194824219 196.4642791748047 C 277.0267028808594 196.1689910888672 269.61651611328125 188.38417053222656 238.5643768310547 166.11236572265625 C 228.09384155273438 133.03512573242188 229.44102478027344 124.12212371826172 276.87750244140625 123.76714324951172 C 312.9593200683594 151.74815368652344 310.8999328613281 176.48500061035156 335.8196105957031 184.7946319580078" stroke-width="0.0" fill="rgb(97, 109, 127)" opacity="0.48029107"/>
    <path d="M 317.5009460449219 263.29364013671875 C 321.8856201171875 283.1268615722656 328.0558166503906 303.2589111328125 230.92874145507812 381.59320068359375 C 113.634521484375 410.8114929199219 175.7498016357422 370.9412841796875 221.28761291503906 280.88531494140625 C 279.2436828613281 250.31741333007812 289.3261413574219 241.1982421875 290.1800842285156 235.91485595703125 C 308.1818542480469 220.149169921875 312.00506591796875 220.97283935546875 317.5009460449219 263.29364013671875" stroke-width="0.0" fill="rgb(255, 255, 126)" opacity="0.8883386"/>
    <path d="M 82.9535140991211 592.3036499023438 C 78.9217529296875 581.9476928710938 71.94397735595703 596.82275390625 68.41114044189453 594.532958984375 C 50.45820236206055 585.8252563476562 29.890235900878906 592.3555908203125 15.561591148376465 569.7136840820312 C 5.777531623840332 529.1404418945312 3.7617974281311035 498.3077392578125 59.01557540893555 489.257568359375 C 94.43152618408203 515.4915771484375 81.93968200683594 553.691650390625 82.9535140991211 592.3036499023438" stroke-width="0.0" fill="rgb(56, 133, 130)" opacity="0.78941053"/>
    <path d="M 464.47381591796875 514.168701171875 C 457.6340026855469 541.2311401367188 483.5876770019531 577.549072265625 404.5188293457031 594.1882934570312 C 357.17083740234375 570.3695068359375 356.2511291503906 565.4505615234375 371.3085632324219 520.201171875 C 382.94830322265625 479.8035583496094 389.9626159667969 476.3728942871094 412.1148986816406 486.7239990234375 C 412.5465393066406 502.383544921875 428.68194580078125 501.6322021484375 464.47381591796875 514.168701171875" stroke-width="0.0" fill="rgb(57, 128, 131)" opacity="0.88063705"/>
    <path d="M 382.9563903808594 508.6595153808594 C 369.9119873046875 546.8460083007812 359.41607666015625 540.7413330078125 316.90057373046875 550.5382080078125 C 307.4980163574219 594.5016479492188 277.9353942871094 551.3211669921875 285.9261779785156 518.6033325195312 C 308.39837646484375 499.4196472167969 312.0028381347656 484.73870849609375 333.0325622558594 441.34320068359375 C 371.0908508300781 459.07177734375 378.8038024902344 475.6885070800781 382.9563903808594 508.6595153808594" stroke-width="0.0" fill="rgb(98, 132, 132)" opacity="0.6834663"/>
    <path d="M 60.2373161315918 586.9854736328125 C 56.35871124267578 601.37548828125 50.78762435913086 610.4392700195312 32.452880859375 614.3328857421875 C 8.095630645751953 612.6641845703125 -5.7864837646484375 610.1015625 -40.07558059692383 556.4025268554688 C -41.53609848022461 516.7025756835938 -52.33271026611328 484.9670715332031 21.99648666381836 476.2387390136719 C 72.1644287109375 533.392578125 56.506412506103516 566.3759765625 60.2373161315918 586.9854736328125" stroke-width="0.0" fill="rgb(56, 136, 123)" opacity="0.9984808"/>
    <path d="M 276.7926940917969 211.15821838378906 C 272.48858642578125 204.2759246826172 272.8980407714844 220.60890197753906 169.4747314453125 357.5694885253906 C 118.49178314208984 416.00250244140625 93.53137969970703 372.8504943847656 111.33525848388672 239.6815185546875 C 174.59107971191406 122.63300323486328 181.54876708984375 126.49491882324219 233.5275115966797 139.91458129882812 C 271.39508056640625 185.7764892578125 271.20037841796875 202.00723266601562 276.7926940917969 211.15821838378906" stroke-width="0.0" fill="rgb(0, 43, 79)" opacity="0.21745509"/>
    <path d="M 86.99988555908203 579.83203125 C 88.27240753173828 602.858154296875 87.7700424194336 615.4534912109375 69.34774780273438 623.6173706054688 C 40.55478286743164 620.1131591796875 32.89254379272461 612.890625 47.66848373413086 608.768798828125 C 54.81961441040039 569.5017700195312 56.010643005371094 561.7674560546875 71.16865539550781 567.6145629882812 C 76.03459167480469 568.2252197265625 82.3644027709961 571.1768188476562 86.99988555908203 579.83203125" stroke-width="0.0" fill="rgb(54, 139, 118)" opacity="0.8803399"/>
    <path d="M 500.3961486816406 306.7712097167969 C 447.12237548828125 357.2786560058594 393.8797912597656 298.89068603515625 310.3906555175781 291.779541015625 C 226.20718383789062 291.1596984863281 234.43907165527344 283.90484619140625 254.58612060546875 241.453125 C 283.90948486328125 228.16004943847656 297.86578369140625 223.6518096923828 316.78558349609375 204.7805633544922 C 356.3543395996094 192.54324340820312 402.7669982910156 170.99156188964844 500.3961486816406 306.7712097167969" stroke-width="0.0" fill="rgb(51, 116, 152)" opacity="1.0"/>
    <path d="M 317.9644470214844 212.56076049804688 C 295.06378173828125 227.8123016357422 283.67449951171875 232.19113159179688 252.28916931152344 246.79385375976562 C 249.5484619140625 264.4372253417969 246.0933380126953 262.7290954589844 243.26097106933594 240.32595825195312 C 259.3938293457031 207.90321350097656 268.03533935546875 198.0557403564453 285.7172546386719 193.01910400390625 C 315.3968505859375 194.99490356445312 326.7008972167969 201.76641845703125 317.9644470214844 212.56076049804688" stroke-width="0.0" fill="rgb(70, 114, 150)" opacity="0.96517515"/>
    <path d="M 339.6842956542969 502.713623046875 C 343.55224609375 521.64404296875 327.5718078613281 520.779296875 308.0486145019531 549.7640380859375 C 312.34295654296875 513.017578125 276.4968566894531 528.9019165039062 243.12538146972656 509.6336669921875 C 270.49700927734375 464.0368957519531 285.1322937011719 465.2073669433594 325.5606994628906 469.95416259765625 C 336.8415222167969 471.5215148925781 334.1022644042969 474.8927307128906 339.6842956542969 502.713623046875" stroke-width="0.0" fill="rgb(95, 134, 136)" opacity="0.9649344"/>
    <path d="M 247.51837158203125 573.3101806640625 C 233.0118865966797 626.161376953125 225.64610290527344 633.7529296875 194.54443359375 635.0076293945312 C 135.83493041992188 631.3894653320312 121.79645538330078 633.733642578125 120.36454010009766 589.05908203125 C 136.44229125976562 540.8353271484375 151.5773162841797 531.845703125 188.35980224609375 522.5393676757812 C 228.86680603027344 524.0895385742188 236.5972900390625 531.7828369140625 247.51837158203125 573.3101806640625" stroke-width="0.0" fill="rgb(39, 146, 129)" opacity="0.97546434"/>
    <path d="M 509.9676513671875 490.4447937011719 C 449.1177062988281 523.1354370117188 438.9495544433594 513.4398803710938 420.8031921386719 514.7769775390625 C 403.4045104980469 516.3031005859375 372.5471496582031 522.54052734375 361.0594482421875 502.6541748046875 C 367.4956970214844 450.800048828125 381.609619140625 445.47869873046875 432.6143798828125 446.0412902832031 C 474.8232727050781 435.7019958496094 501.0052795410156 431.328125 509.9676513671875 490.4447937011719" stroke-width="0.0" fill="rgb(87, 114, 125)" opacity="0.93500966"/>
    <path d="M 487.6592102050781 420.79345703125 C 504.68212890625 447.63629150390625 506.8889465332031 462.8696594238281 477.99493408203125 480.89337158203125 C 435.54473876953125 448.1064758300781 430.2273864746094 432.89642333984375 407.6059875488281 415.65673828125 C 404.6682434082031 380.8319396972656 384.73583984375 324.73663330078125 430.18194580078125 336.05487060546875 C 488.7872619628906 384.12908935546875 495.7763977050781 386.72119140625 487.6592102050781 420.79345703125" stroke-width="0.0" fill="rgb(101, 104, 133)" opacity="0.90538955"/>
    <path d="M 20.580244064331055 0.15829190611839294 C 17.9007511138916 10.158291816711426 10.580244064331055 17.47879981994629 0.5802444815635681 20.158292770385742 C -9.419755935668945 17.47879981994629 -16.740262985229492 10.158291816711426 -19.419755935668945 0.15829190611839294 C -16.740262985229492 -9.841708183288574 -9.419755935668945 -17.162214279174805 0.5802444815635681 -19.841707229614258 C 10.580244064331055 -17.162214279174805 17.9007511138916 -9.841708183288574 20.580244064331055 0.15829190611839294" stroke-width="0.0" fill="rgb(0, 79, 247)" opacity="0.7567009" stroke="rgb(174, 131, 94)" stroke-opacity="0.13507047" stroke-linecap="round" stroke-linejoin="round"/>
    <path d="M 623.8523559570312 465.02593994140625 C 613.3510131835938 484.3757629394531 621.9454956054688 505.4416809082031 600.8096923828125 580.8531494140625 C 502.4357604980469 543.6624145507812 463.2046203613281 583.8439331054688 415.1281433105469 525.5341186523438 C 530.4298095703125 412.5546569824219 566.0421752929688 437.0063781738281 593.1497802734375 438.18914794921875 C 595.4788208007812 424.4501647949219 607.1970825195312 437.71142578125 623.8523559570312 465.02593994140625" stroke-width="0.0" fill="rgb(43, 120, 131)" opacity="0.9868156"/>
    <path d="M 57.2921257019043 154.56773376464844 C 77.25202941894531 178.2256317138672 114.93338012695312 219.2713165283203 18.34832763671875 325.8317565917969 C -13.204312324523926 218.7582550048828 -10.56378173828125 207.96299743652344 -13.189434051513672 180.6494903564453 C 14.417282104492188 155.76426696777344 22.2559757232666 146.53236389160156 45.94990539550781 138.0904998779297 C 45.36976623535156 142.17578125 49.7271728515625 154.1523895263672 57.2921257019043 154.56773376464844" stroke-width="0.0" fill="rgb(209, 187, 135)" opacity="0.6872534"/>
    <path d="M 167.84982299804688 154.9672088623047 C 110.67408752441406 166.64707946777344 89.77823638916016 180.62347412109375 85.77925872802734 232.40367126464844 C 33.09492874145508 223.0498504638672 24.735836029052734 200.02456665039062 34.51000213623047 165.58984375 C 69.32295989990234 155.37521362304688 75.87068939208984 149.47373962402344 97.94920349121094 137.4452362060547 C 100.29505157470703 134.73284912109375 134.07452392578125 115.55905151367188 167.84982299804688 154.9672088623047" stroke-width="0.0" fill="rgb(255, 254, 114)" opacity="0.9986077"/>
    <path d="M 232.4674835205078 64.90508270263672 C 230.46945190429688 84.6343765258789 217.64886474609375 70.3399887084961 195.96133422851562 52.49085235595703 C 180.35462951660156 50.426170349121094 169.93289184570312 46.2159423828125 110.35889434814453 5.645724773406982 C 141.35289001464844 -14.870477676391602 169.61817932128906 -5.226867198944092 211.02764892578125 -10.277872085571289 C 246.47018432617188 -9.666291236877441 233.54969787597656 -6.022321701049805 232.4674835205078 64.90508270263672" stroke-width="0.0" fill="rgb(209, 185, 163)" opacity="0.12775993"/>
    <path d="M 568.4907836914062 53.18947982788086 C 578.1237182617188 203.6210479736328 499.4146423339844 70.5377197265625 477.02374267578125 142.0511016845703 C 429.35565185546875 170.01243591308594 421.564453125 133.13211059570312 430.3582763671875 112.96937561035156 C 423.5359802246094 91.2129898071289 437.8705139160156 115.72683715820312 497.0684814453125 71.10062408447266 C 489.4427490234375 81.38392639160156 508.98516845703125 153.1160430908203 568.4907836914062 53.18947982788086" stroke-width="0.0" fill="rgb(255, 217, 120)" opacity="0.9666517"/>
    <path d="M 20.918493270874023 0.5712494254112244 C 18.23900032043457 10.571249008178711 10.918492317199707 17.891756057739258 0.9184926748275757 20.57124900817871 C -9.081507682800293 17.891756057739258 -16.402013778686523 10.571249008178711 -19.081506729125977 0.5712494254112244 C -16.402013778686523 -9.428750991821289 -9.081507682800293 -16.749258041381836 0.9184926748275757 -19.42875099182129 C 10.918492317199707 -16.749258041381836 18.23900032043457 -9.428750991821289 20.918493270874023 0.5712494254112244" stroke-width="0.0" fill="rgb(241, 214, 140)" opacity="0.9562111" stroke="rgb(173, 181, 34)" stroke-opacity="0.3588465" stroke-linecap="round" stroke-linejoin="round"/>
    <path d="M 626.6755981445312 416.9472351074219 C 610.3267211914062 445.7182922363281 602.664306640625 452.8728942871094 581.0169677734375 441.06689453125 C 572.0774536132812 444.8861999511719 551.5465087890625 458.0523986816406 506.68914794921875 438.5223083496094 C 552.431884765625 405.0963134765625 524.8726196289062 360.0124816894531 584.8453369140625 252.3715362548828 C 639.588134765625 379.6375427246094 619.91943359375 400.01031494140625 626.6755981445312 416.9472351074219" stroke-width="0.0" fill="rgb(129, 123, 164)" opacity="0.4895865"/>
    <path d="M 626.4152221679688 429.31866455078125 C 622.8658447265625 471.1342468261719 612.1808471679688 475.03936767578125 593.20361328125 484.6712646484375 C 533.4503784179688 489.2191467285156 496.414794921875 503.0478515625 481.4228210449219 428.2135009765625 C 529.2313842773438 392.8543701171875 549.52734375 399.7702941894531 574.7662353515625 396.90435791015625 C 613.8112182617188 404.514892578125 621.616455078125 407.6092834472656 626.4152221679688 429.31866455078125" stroke-width="0.0" fill="rgb(20, 121, 148)" opacity="0.9975866"/>
    <path d="M 549.9549560546875 186.94044494628906 C 561.6536865234375 273.2904968261719 529.2335205078125 327.17388916015625 484.97991943359375 341.92413330078125 C 473.4501953125 151.23880004882812 387.9150695800781 278.1084899902344 380.8177795410156 174.0980987548828 C 426.8085021972656 153.4525604248047 385.7225341796875 133.21641540527344 457.5614929199219 122.95406341552734 C 489.38421630859375 147.68821716308594 467.6244812011719 244.5965118408203 549.9549560546875 186.94044494628906" stroke-width="0.0" fill="rgb(234, 220, 156)" opacity="0.931107"/>
    <path d="M 631.9894409179688 14.407628059387207 C 615.1619873046875 46.48251724243164 597.0394287109375 116.18982696533203 578.9149780273438 40.813663482666016 C 506.9930114746094 156.6480255126953 457.253173828125 149.01092529296875 383.8132019042969 1.8231008052825928 C 537.5416870117188 -53.9349365234375 573.6475219726562 -20.988300323486328 588.884033203125 -17.17166519165039 C 599.0 -14.320507049560547 606.3204956054688 -7.0 631.9894409179688 14.407628059387207" stroke-width="0.0" fill="rgb(0, 65, 156)" opacity="1.0"/>
    <path d="M 256.46697998046875 55.88966751098633 C 262.7154235839844 126.67733764648438 248.0892791748047 124.7735366821289 187.56976318359375 103.33816528320312 C 143.72076416015625 77.59024047851562 104.30372619628906 103.778076171875 95.07044219970703 76.9616928100586 C 137.41543579101562 7.303677558898926 169.11947631835938 14.334322929382324 186.26780700683594 13.926307678222656 C 191.70314025878906 29.891864776611328 211.0589141845703 22.798419952392578 256.46697998046875 55.88966751098633" stroke-width="0.0" fill="rgb(255, 237, 198)" opacity="0.29059556"/>
    <path d="M 547.9183959960938 432.7440185546875 C 541.879150390625 457.347900390625 519.10693359375 473.7804260253906 456.7630310058594 517.8092651367188 C 432.5655517578125 472.0060729980469 442.5721435546875 443.38128662109375 455.4837341308594 409.27020263671875 C 458.38214111328125 406.80096435546875 470.38153076171875 401.61907958984375 476.5743408203125 377.99969482421875 C 544.754150390625 371.32708740234375 538.76904296875 358.6011047363281 547.9183959960938 432.7440185546875" stroke-width="0.0" fill="rgb(73, 113, 129)" opacity="0.20242824"/>
    <path d="M 105.55977630615234 143.12100219726562 C 84.94148254394531 151.6564178466797 67.67134094238281 152.66404724121094 67.4756088256836 175.91653442382812 C 58.2446174621582 174.72897338867188 36.358314514160156 169.40907287597656 21.41869354248047 142.07337951660156 C 40.98237991333008 121.593017578125 46.46192169189453 116.62413024902344 66.37841033935547 116.8317642211914 C 83.67733764648438 119.01712036132812 98.46034240722656 117.77391815185547 105.55977630615234 143.12100219726562" stroke-width="0.0" fill="rgb(255, 245, 154)" opacity="0.7052462"/>
    <path d="M 96.15679168701172 143.9265899658203 C 77.13544464111328 153.6260986328125 70.9104232788086 161.34754943847656 63.91156005859375 163.1562042236328 C 60.028541564941406 154.18699645996094 56.64313888549805 139.27890014648438 39.09282302856445 127.15647888183594 C 34.977989196777344 127.03849029541016 44.50334930419922 123.91742706298828 57.9724235534668 118.47877502441406 C 74.7939224243164 123.78213500976562 81.56019592285156 133.62733459472656 96.15679168701172 143.9265899658203" stroke-width="0.0" fill="rgb(253, 233, 157)" opacity="0.64911896"/>
    <path d="M 498.51959228515625 92.0635986328125 C 521.7909545898438 112.05422973632812 489.332275390625 133.220947265625 460.8653869628906 122.78446197509766 C 452.1637878417969 191.41448974609375 439.2636413574219 176.9237518310547 428.4729919433594 116.12480163574219 C 457.8521423339844 72.85001373291016 484.5301818847656 103.04019165039062 478.5315856933594 77.64119720458984 C 477.00555419921875 96.70185852050781 504.2780456542969 78.54073333740234 498.51959228515625 92.0635986328125" stroke-width="0.0" fill="rgb(255, 248, 133)" opacity="0.89028263"/>
    <path d="M 619.1195678710938 514.4010009765625 C 616.87255859375 535.959716796875 615.3186645507812 547.4788208007812 602.3753051757812 539.9602661132812 C 578.5750732421875 522.0494995117188 557.4537353515625 528.3482666015625 523.9583129882812 526.1295166015625 C 546.4884643554688 479.7033386230469 559.3817138671875 474.5121765136719 565.8511962890625 478.5885314941406 C 592.8407592773438 500.20074462890625 605.506103515625 502.4668273925781 619.1195678710938 514.4010009765625" stroke-width="0.0" fill="rgb(41, 117, 140)" opacity="0.8090015"/>
    <path d="M 252.8507843017578 296.9388732910156 C 259.8182678222656 282.85662841796875 253.09503173828125 297.0646667480469 240.07498168945312 300.9681701660156 C 211.3584747314453 336.62139892578125 173.10829162597656 364.14361572265625 135.13760375976562 279.8127746582031 C 166.2459716796875 199.46302795410156 211.16558837890625 206.22576904296875 246.6448974609375 232.42137145996094 C 263.25982666015625 236.8901824951172 254.7720489501953 245.85855102539062 252.8507843017578 296.9388732910156" stroke-width="0.0" fill="rgb(64, 121, 131)" opacity="0.99641746"/>
    <path d="M 616.9921875 487.26983642578125 C 621.0202026367188 494.4606018066406 611.5675659179688 500.9248352050781 585.2825927734375 498.20867919921875 C 589.5108642578125 488.0737609863281 581.0734252929688 486.5816650390625 575.2738037109375 490.5822448730469 C 574.67822265625 467.3799133300781 572.8621215820312 445.4230651855469 604.6299438476562 416.6771240234375 C 613.8078002929688 446.8338623046875 612.37646484375 463.4368591308594 616.9921875 487.26983642578125" stroke-width="0.0" fill="rgb(28, 110, 147)" opacity="0.7156515"/>
    <path d="M 608.7278442382812 473.4532775878906 C 601.6547241210938 500.71087646484375 589.6559448242188 504.1927795410156 576.9126586914062 527.2323608398438 C 537.523681640625 528.3377075195312 498.58636474609375 547.8113403320312 445.5785827636719 515.75830078125 C 521.580322265625 438.43548583984375 555.8556518554688 459.720703125 576.7266235351562 455.6575622558594 C 578.1256103515625 467.1068420410156 591.0639038085938 469.7966613769531 608.7278442382812 473.4532775878906" stroke-width="0.0" fill="rgb(39, 120, 136)" opacity="0.3915941"/>
    <path d="M 60.37202453613281 13.775519371032715 C 38.50418472290039 29.222370147705078 10.949291229248047 40.400142669677734 22.123821258544922 34.634178161621094 C 0.6543604135513306 21.63880729675293 -5.623722553253174 14.489991188049316 -0.9388149380683899 3.2002978324890137 C -9.685685157775879 -0.5298547148704529 -0.35305851697921753 -7.4025559425354 19.869007110595703 -18.485198974609375 C 31.238887786865234 -16.526609420776367 42.37510299682617 -13.640143394470215 60.37202453613281 13.775519371032715" stroke-width="0.0" fill="rgb(159, 169, 141)" opacity="0.68895346"/>
    <path d="M 200.29745483398438 334.18560791015625 C 182.4137420654297 334.17041015625 183.94715881347656 340.2601013183594 177.3580322265625 339.8958435058594 C 161.99234008789062 360.07611083984375 166.63262939453125 413.25494384765625 106.4483413696289 370.805419921875 C 139.02590942382812 300.33331298828125 168.9585418701172 314.5653381347656 197.50135803222656 319.54754638671875 C 222.8533477783203 321.1065368652344 224.2996368408203 340.3309326171875 200.29745483398438 334.18560791015625" stroke-width="0.0" fill="rgb(64, 146, 151)" opacity="0.77936894"/>
    <path d="M 263.62567138671875 233.79812622070312 C 261.8301696777344 267.0589904785156 275.0982971191406 290.8337097167969 250.4530792236328 301.2035827636719 C 241.86192321777344 290.59619140625 228.3017120361328 285.98004150390625 155.27096557617188 212.3720703125 C 239.3368682861328 167.01222229003906 248.77484130859375 215.1024627685547 269.322509765625 235.27040100097656 C 272.88812255859375 231.7128448486328 286.66925048828125 237.7473602294922 263.62567138671875 233.79812622070312" stroke-width="0.0" fill="rgb(66, 114, 138)" opacity="0.4233482"/>
    <path d="M 627.4278564453125 492.1398620605469 C 622.3724975585938 509.8373718261719 615.79833984375 514.1373291015625 602.13037109375 515.5403442382812 C 577.388671875 513.786376953125 569.9072875976562 508.9488220214844 571.8693237304688 496.6459045410156 C 570.8916625976562 474.2586975097656 570.9826049804688 484.23822021484375 596.859375 481.84661865234375 C 602.799072265625 469.61602783203125 612.2498168945312 475.47454833984375 627.4278564453125 492.1398620605469" stroke-width="0.0" fill="rgb(40, 113, 143)" opacity="0.746251"/>
    <path d="M 104.84695434570312 21.832866668701172 C 114.97068786621094 16.99453353881836 127.4033203125 31.39261245727539 98.52228546142578 22.84624481201172 C 68.87364959716797 19.970304489135742 62.27925109863281 24.83588981628418 37.02903747558594 17.893692016601562 C 56.00583267211914 9.261702537536621 61.4907112121582 -12.941629409790039 70.38267517089844 -20.818031311035156 C 99.4808578491211 -9.134289741516113 115.30126953125 -1.1354100704193115 104.84695434570312 21.832866668701172" stroke-width="0.0" fill="rgb(192, 176, 153)" opacity="0.8286954"/>
    <path d="M 493.6553039550781 293.3827819824219 C 488.89239501953125 333.2090148925781 480.94140625 317.6045837402344 459.0076599121094 309.7915954589844 C 444.9306335449219 312.27667236328125 455.59619140625 316.7427062988281 417.3069152832031 343.8646545410156 C 412.96124267578125 310.3946228027344 427.6390075683594 311.0205078125 427.3539733886719 256.1068420410156 C 539.0075073242188 246.8260498046875 554.2120361328125 237.04339599609375 493.6553039550781 293.3827819824219" stroke-width="0.0" fill="rgb(44, 116, 156)" opacity="0.89413923"/>
    <path d="M 299.3520202636719 245.58087158203125 C 278.4991149902344 246.97100830078125 264.8020935058594 254.46531677246094 249.03076171875 268.69610595703125 C 239.78172302246094 276.11053466796875 228.6512908935547 278.94708251953125 219.6296844482422 253.0912628173828 C 221.69154357910156 203.22377014160156 228.27149963378906 180.21243286132812 256.7267761230469 184.9197998046875 C 294.2234191894531 213.6797332763672 304.02288818359375 215.2314453125 299.3520202636719 245.58087158203125" stroke-width="0.0" fill="rgb(64, 115, 143)" opacity="0.8039095"/>
    <path d="M 616.6236572265625 415.3629150390625 C 611.6488037109375 427.6666564941406 599.2156372070312 438.4547424316406 577.0451049804688 400.72967529296875 C 559.3280029296875 402.84527587890625 554.3310546875 418.74664306640625 506.1894226074219 417.4252624511719 C 555.217529296875 388.8121643066406 568.0394287109375 385.1217346191406 603.6182861328125 348.91473388671875 C 605.8474731445312 402.8382873535156 603.2232055664062 415.60870361328125 616.6236572265625 415.3629150390625" stroke-width="0.0" fill="rgb(75, 97, 133)" opacity="0.30461755"/>
    <path d="M 220.10362243652344 338.6089172363281 C 217.1884307861328 332.6549987792969 229.76321411132812 337.85211181640625 192.67466735839844 334.6498718261719 C 173.1661376953125 350.18798828125 163.14280700683594 359.51739501953125 155.9909210205078 339.8317565917969 C 155.55673217773438 299.6864318847656 166.4075164794922 282.71319580078125 216.0388946533203 285.54644775390625 C 235.30856323242188 309.8121032714844 216.80686950683594 326.8180847167969 220.10362243652344 338.6089172363281" stroke-width="0.0" fill="rgb(68, 143, 141)" opacity="0.98365927"/>
    <path d="M 526.369873046875 116.1697006225586 C 535.29931640625 139.75875854492188 536.5308227539062 123.295654296875 497.88433837890625 118.470703125 C 468.8193359375 154.39352416992188 453.4710388183594 167.28945922851562 458.8790283203125 121.9569091796875 C 497.240234375 105.49518585205078 502.925048828125 96.19037628173828 516.9069213867188 106.47845458984375 C 507.0682678222656 94.93212890625 504.46405029296875 128.62168884277344 526.369873046875 116.1697006225586" stroke-width="0.0" fill="rgb(231, 212, 165)" opacity="0.92056835"/>
    <path d="M 368.15521240234375 110.86906433105469 C 288.155029296875 102.84085083007812 332.3249816894531 135.49383544921875 302.6914978027344 165.49803161621094 C 292.1167907714844 147.14805603027344 305.2152099609375 137.96481323242188 287.3179931640625 127.16926574707031 C 259.397705078125 118.66251373291016 273.6562194824219 104.36985778808594 303.173828125 122.13909912109375 C 347.3452453613281 100.59283447265625 308.1856689453125 113.71179962158203 368.15521240234375 110.86906433105469" stroke-width="0.0" fill="rgb(196, 197, 153)" opacity="0.24559456"/>
    <path d="M 263.6298522949219 107.11618041992188 C 209.4964141845703 117.86083221435547 258.98480224609375 136.11441040039062 211.86337280273438 142.03582763671875 C 181.4605255126953 114.3880386352539 178.25706481933594 105.4699935913086 133.89163208007812 141.7194366455078 C 145.7702178955078 87.2727279663086 205.12896728515625 109.79279327392578 207.2918243408203 120.96038055419922 C 218.88987731933594 103.43673706054688 238.4518280029297 95.96868133544922 263.6298522949219 107.11618041992188" stroke-width="0.0" fill="rgb(252, 248, 148)" opacity="0.8985122"/>
    <path d="M 468.6737365722656 340.46429443359375 C 415.32366943359375 300.2238464355469 418.1588439941406 335.7765197753906 397.25921630859375 351.0236511230469 C 391.2579650878906 329.0774230957031 370.2991638183594 326.73284912109375 363.9507141113281 348.18878173828125 C 383.0893249511719 358.4693603515625 388.49566650390625 346.9207458496094 408.47222900390625 308.8448181152344 C 402.9560852050781 316.4501953125 420.7719421386719 307.9560546875 468.6737365722656 340.46429443359375" stroke-width="0.0" fill="rgb(218, 193, 143)" opacity="0.28500205"/>
    <path d="M 269.6769104003906 -0.7489263415336609 C 260.234375 -7.196692943572998 254.73927307128906 11.909663200378418 252.21282958984375 20.346330642700195 C 250.91497802734375 27.549833297729492 223.33758544921875 55.20033264160156 187.23248291015625 14.728023529052734 C 234.1224822998047 -11.615538597106934 248.37547302246094 -8.141552925109863 264.270751953125 -14.912393569946289 C 266.4993591308594 -8.952631950378418 271.26800537109375 0.5111784934997559 269.6769104003906 -0.7489263415336609" stroke-width="0.0" fill="rgb(183, 167, 147)" opacity="0.93138444"/>
    <path d="M 572.7583618164062 603.9646606445312 C 550.3657836914062 613.3844604492188 544.4945068359375 619.0465087890625 527.662841796875 616.1868286132812 C 504.1705627441406 605.6185913085938 474.4695739746094 634.3466186523438 372.422607421875 589.6710815429688 C 507.489013671875 579.3084716796875 479.0269775390625 557.908935546875 498.0335693359375 530.4616088867188 C 552.8726196289062 530.2762451171875 543.4500122070312 565.1575317382812 572.7583618164062 603.9646606445312" stroke-width="0.0" fill="rgb(90, 116, 133)" opacity="0.43763763"/>
    <path d="M 595.7938842773438 185.63221740722656 C 560.6068115234375 176.65171813964844 575.0755615234375 172.8287811279297 546.1065673828125 176.52102661132812 C 545.2898559570312 182.59548950195312 535.5481567382812 195.14617919921875 561.2994995117188 202.70303344726562 C 560.9252319335938 179.8636474609375 576.9833374023438 184.2581024169922 584.8587036132812 174.6835479736328 C 600.9814453125 182.59031677246094 602.0146484375 179.400390625 595.7938842773438 185.63221740722656" stroke-width="0.0" fill="rgb(176, 124, 165)" opacity="0.5789839"/>
    <path d="M 399.1728210449219 342.496337890625 C 393.2412414550781 365.769287109375 382.8349914550781 357.8982238769531 374.2559814453125 352.5086364746094 C 355.4314270019531 330.9876708984375 360.33526611328125 346.5341491699219 350.6791076660156 334.9394226074219 C 356.2322082519531 336.6655578613281 357.3020935058594 327.62481689453125 363.11505126953125 323.80169677734375 C 384.8171081542969 320.5435791015625 399.948974609375 318.4771728515625 399.1728210449219 342.496337890625" stroke-width="0.0" fill="rgb(255, 255, 79)" opacity="0.7572979"/>
    <path d="M 618.7556762695312 602.25390625 C 536.4639892578125 609.7838745117188 525.134765625 586.071044921875 524.9354248046875 587.1475219726562 C 528.1582641601562 609.1234741210938 518.3214111328125 601.3754272460938 508.0946350097656 592.443115234375 C 507.6466064453125 571.52685546875 521.3428955078125 567.9091186523438 518.025634765625 589.90966796875 C 523.4931640625 601.0723876953125 554.6011352539062 592.3378295898438 618.7556762695312 602.25390625" stroke-width="0.0" fill="rgb(142, 112, 178)" opacity="0.0"/>
    <path d="M 550.2559814453125 77.85874938964844 C 542.813720703125 82.13814544677734 539.639404296875 88.44132232666016 532.9959716796875 99.2865219116211 C 549.5538330078125 101.30883026123047 522.1306762695312 97.18482208251953 493.1808166503906 90.5775146484375 C 480.4026794433594 58.2832145690918 480.15985107421875 32.55902862548828 563.5980834960938 6.841153144836426 C 578.8507080078125 72.42720794677734 550.5745239257812 85.01380157470703 550.2559814453125 77.85874938964844" stroke-width="0.0" fill="rgb(0, 65, 155)" opacity="0.8126377"/>
    <path d="M 356.992919921875 342.6199951171875 C 365.41522216796875 342.7507629394531 351.7679748535156 377.8702697753906 333.04681396484375 396.86993408203125 C 306.35662841796875 392.4471435546875 302.9931640625 444.57025146484375 193.72630310058594 425.38897705078125 C 286.9745178222656 319.7411804199219 308.09100341796875 325.8140869140625 337.2998046875 315.1758728027344 C 323.79217529296875 295.6546936035156 324.83917236328125 329.9554748535156 356.992919921875 342.6199951171875" stroke-width="0.0" fill="rgb(118, 112, 135)" opacity="0.3772292"/>
    <path d="M 527.161865234375 439.7750244140625 C 518.2117919921875 477.5032043457031 538.1393432617188 492.2585144042969 482.3617248535156 506.9766845703125 C 463.3848571777344 461.7861633300781 467.79473876953125 442.2491149902344 446.5888366699219 431.13055419921875 C 441.6725769042969 397.69439697265625 424.4840393066406 362.54852294921875 477.4982604980469 359.2696228027344 C 537.05517578125 365.0834655761719 530.4535522460938 403.424560546875 527.161865234375 439.7750244140625" stroke-width="0.0" fill="rgb(83, 107, 126)" opacity="0.24519849"/>
    <path d="M 20.207380294799805 0.9640901684761047 C 17.52788734436035 10.964090347290039 10.207380294799805 18.284597396850586 0.2073800414800644 20.96409034729004 C -9.792619705200195 18.284597396850586 -17.113126754760742 10.964090347290039 -19.792619705200195 0.9640901684761047 C -17.113126754760742 -9.035909652709961 -9.792619705200195 -16.356416702270508 0.2073800414800644 -19.03590965270996 C 10.207380294799805 -16.356416702270508 17.52788734436035 -9.035909652709961 20.207380294799805 0.9640901684761047" stroke-width="0.0" fill="rgb(106, 139, 216)" opacity="0.7407865" stroke="rgb(2, 16, 196)" stroke-opacity="0.4863057" stroke-linecap="round" stroke-linejoin="round"/>
    <path d="M 361.6399230957031 330.99456787109375 C 344.48162841796875 354.7691650390625 314.3570861816406 323.1231994628906 345.6789855957031 332.7331848144531 C 328.10284423828125 361.0003356933594 323.8838806152344 333.70721435546875 323.9998779296875 315.7611389160156 C 310.5174865722656 314.00579833984375 315.2198486328125 296.0041809082031 336.041748046875 288.9412536621094 C 344.6072082519531 339.1615905761719 365.279296875 317.6453857421875 361.6399230957031 330.99456787109375" stroke-width="0.0" fill="rgb(146, 131, 142)" opacity="0.3484329"/>
    <path d="M 147.65194702148438 172.48793029785156 C 147.10504150390625 174.12530517578125 150.27767944335938 198.6591339111328 127.53192138671875 198.1012420654297 C 135.360595703125 198.59901428222656 144.23707580566406 197.65826416015625 144.36439514160156 161.07518005371094 C 142.2841796875 171.7444305419922 142.4548797607422 157.45606994628906 153.42637634277344 155.65008544921875 C 153.9802703857422 153.9304962158203 164.5866241455078 172.73202514648438 147.65194702148438 172.48793029785156" stroke-width="0.0" fill="rgb(236, 221, 149)" opacity="0.49212417"/>
    <path d="M 551.6651611328125 66.51490783691406 C 563.537841796875 80.71591186523438 571.004150390625 90.4035873413086 561.469970703125 110.74561309814453 C 545.6084594726562 102.81400299072266 544.8240356445312 86.29991912841797 553.1871948242188 90.24686431884766 C 559.635498046875 86.28379821777344 557.444580078125 59.94307327270508 550.9923095703125 54.56679916381836 C 561.9174194335938 65.39581298828125 565.4910278320312 81.26834869384766 551.6651611328125 66.51490783691406" stroke-width="0.0" fill="rgb(255, 216, 120)" opacity="0.46538788"/>
    <path d="M 55.887325286865234 218.277587890625 C 31.50356101989746 252.93746948242188 27.300168991088867 233.01519775390625 -7.6628217697143555 222.3037567138672 C 0.1309572011232376 221.85134887695312 -7.148769855499268 216.74688720703125 -37.610145568847656 180.22036743164062 C -31.952844619750977 172.64071655273438 -7.778360366821289 178.5985870361328 29.501012802124023 137.04409790039062 C 44.47994613647461 125.34992218017578 69.00045013427734 139.06976318359375 55.887325286865234 218.277587890625" stroke-width="0.0" fill="rgb(253, 222, 133)" opacity="0.99163425"/>
    <path d="M 228.1374053955078 572.972900390625 C 154.68313598632812 626.3440551757812 145.02749633789062 625.8742065429688 138.5741424560547 631.1082763671875 C 116.00401306152344 615.319580078125 108.78702545166016 607.9736938476562 119.9376220703125 609.026123046875 C 130.38876342773438 588.9583740234375 132.22171020507812 569.81103515625 130.67173767089844 605.5725708007812 C 128.32672119140625 571.3729248046875 185.0060577392578 542.9765014648438 228.1374053955078 572.972900390625" stroke-width="0.0" fill="rgb(53, 138, 119)" opacity="0.2958102"/>
    <path d="M 574.9179077148438 415.0402526855469 C 553.4282836914062 422.5348205566406 546.89697265625 425.8000793457031 533.8551635742188 429.9617919921875 C 528.8721923828125 432.8889465332031 518.7708129882812 433.6241149902344 524.1034545898438 424.11541748046875 C 529.2262573242188 412.2942810058594 539.9490356445312 409.4375305175781 537.5419921875 392.74090576171875 C 546.383056640625 387.56298828125 580.15380859375 391.7807312011719 574.9179077148438 415.0402526855469" stroke-width="0.0" fill="rgb(56, 100, 140)" opacity="0.15677923"/>
    <path d="M 83.83480834960938 81.17874908447266 C 62.86183166503906 79.7533187866211 57.50028991699219 89.47718048095703 50.339447021484375 81.82511138916016 C 59.57301330566406 83.34903717041016 61.68278503417969 81.35814666748047 46.301414489746094 93.87808227539062 C 11.487785339355469 76.56522369384766 -12.103269577026367 31.250808715820312 57.88539123535156 18.45737648010254 C 130.6439971923828 12.23558235168457 98.122802734375 40.6688232421875 83.83480834960938 81.17874908447266" stroke-width="0.0" fill="rgb(209, 186, 148)" opacity="0.63501495"/>
    <path d="M 107.05183410644531 550.1775512695312 C 74.96019744873047 602.0892944335938 69.46920776367188 615.2974243164062 44.26825714111328 633.6013793945312 C -1.6558822393417358 605.8430786132812 -8.858133316040039 594.6453247070312 -22.961103439331055 560.34912109375 C -19.57199478149414 526.966064453125 -21.69131088256836 506.1269226074219 6.658086776733398 499.4254150390625 C 68.21749114990234 514.0364990234375 77.19573211669922 510.3782653808594 107.05183410644531 550.1775512695312" stroke-width="0.0" fill="rgb(41, 140, 133)" opacity="0.8036379"/>
    <path d="M 584.4853515625 197.92286682128906 C 575.3081665039062 173.45077514648438 653.789794921875 178.17373657226562 568.2928466796875 263.5244140625 C 506.3090515136719 250.08847045898438 463.0956726074219 205.97720336914062 441.3912658691406 209.84934997558594 C 491.3110046386719 147.6527862548828 496.5687255859375 140.73086547851562 571.2132568359375 145.6300811767578 C 620.1572875976562 139.5089874267578 635.7506713867188 183.63827514648438 584.4853515625 197.92286682128906" stroke-width="0.0" fill="rgb(99, 113, 164)" opacity="0.72501475"/>
    <path d="M 408.95166015625 188.7513885498047 C 409.5876159667969 191.52926635742188 399.34716796875 202.46737670898438 415.7995300292969 173.66885375976562 C 422.48907470703125 205.42906188964844 410.92578125 206.37619018554688 404.3890686035156 197.7039031982422 C 398.96246337890625 188.1882781982422 381.7566223144531 152.42735290527344 414.5069885253906 126.86275482177734 C 474.9754333496094 142.34954833984375 456.1742858886719 191.15509033203125 408.95166015625 188.7513885498047" stroke-width="0.0" fill="rgb(252, 244, 150)" opacity="0.99198747"/>
    <path d="M 196.94931030273438 81.84780883789062 C 186.44281005859375 97.26323699951172 196.52268981933594 117.23226165771484 184.2393798828125 121.49129486083984 C 162.1476287841797 102.29515838623047 145.69924926757812 90.72038269042969 144.14114379882812 101.59225463867188 C 168.75595092773438 83.79827117919922 173.62425231933594 75.01636505126953 178.617431640625 70.77266693115234 C 177.30091857910156 65.2869873046875 187.27293395996094 75.46392059326172 196.94931030273438 81.84780883789062" stroke-width="0.0" fill="rgb(230, 212, 145)" opacity="0.1439625"/>
    <path d="M 227.84889221191406 54.24542236328125 C 183.26771545410156 62.2489013671875 183.94918823242188 71.55665588378906 179.6213836669922 88.3262939453125 C 183.53616333007812 101.19552612304688 171.71763610839844 91.72098541259766 97.52195739746094 97.33718872070312 C 70.37028503417969 65.77415466308594 91.00041961669922 26.97085189819336 135.8238067626953 -9.525723457336426 C 220.0434112548828 34.72654342651367 224.24717712402344 47.10723114013672 227.84889221191406 54.24542236328125" stroke-width="0.0" fill="rgb(255, 240, 141)" opacity="0.37705424"/>
    <path d="M 217.69630432128906 582.7709350585938 C 199.129638671875 597.4675903320312 191.84725952148438 607.2638549804688 177.64402770996094 617.469482421875 C 166.99671936035156 629.6832885742188 159.98658752441406 624.9414672851562 151.9123077392578 583.8967895507812 C 151.40887451171875 574.3690185546875 162.3110809326172 587.0839233398438 173.81263732910156 589.0770874023438 C 208.80213928222656 596.0771484375 229.11280822753906 590.2241821289062 217.69630432128906 582.7709350585938" stroke-width="0.0" fill="rgb(48, 131, 128)" opacity="0.66776174"/>
    <path d="M 611.6513671875 574.0166015625 C 601.021240234375 585.9218139648438 574.3947143554688 575.3130493164062 547.2557373046875 575.6393432617188 C 547.4783325195312 588.2739868164062 538.591796875 571.9821166992188 528.0817260742188 559.5166015625 C 531.6258544921875 537.654296875 512.150390625 543.3767700195312 522.6334838867188 566.0902709960938 C 550.208984375 563.0183715820312 570.3532104492188 561.412353515625 611.6513671875 574.0166015625" stroke-width="0.0" fill="rgb(78, 118, 146)" opacity="0.4280835"/>
    <path d="M 391.3353576660156 375.2589111328125 C 388.9573669433594 378.1417541503906 366.6013488769531 374.457275390625 347.6707458496094 381.2469787597656 C 358.96343994140625 391.52935791015625 345.6196594238281 390.76739501953125 321.7431335449219 373.41571044921875 C 316.3102722167969 343.0831298828125 323.23291015625 356.77532958984375 362.39947509765625 356.4397888183594 C 399.6493225097656 347.5220031738281 401.06915283203125 354.32794189453125 391.3353576660156 375.2589111328125" stroke-width="0.0" fill="rgb(131, 115, 107)" opacity="0.84585476"/>
    <path d="M 264.1208190917969 483.9239807128906 C 251.10206604003906 500.42486572265625 248.98362731933594 529.4302978515625 246.9610595703125 540.365234375 C 213.71499633789062 519.9475708007812 191.71424865722656 518.1952514648438 140.37982177734375 519.4689331054688 C 227.7813720703125 507.82867431640625 208.7726593017578 470.7503662109375 212.10845947265625 480.5433654785156 C 244.0628204345703 489.17169189453125 261.3241271972656 493.0193176269531 264.1208190917969 483.9239807128906" stroke-width="0.0" fill="rgb(159, 152, 136)" opacity="0.48700222"/>
    <path d="M 122.77164459228516 327.6965637207031 C 131.7147674560547 387.1809997558594 154.941650390625 414.36468505859375 84.02836608886719 424.32257080078125 C -14.01568603515625 423.4368896484375 -7.1744794845581055 389.2049560546875 -26.976085662841797 310.17913818359375 C 35.01894760131836 300.0696716308594 53.53061294555664 312.2107849121094 72.49274444580078 290.4397277832031 C 115.74724578857422 277.64166259765625 132.77061462402344 271.9168395996094 122.77164459228516 327.6965637207031" stroke-width="0.0" fill="rgb(141, 146, 133)" opacity="0.19331509"/>
    <path d="M 643.02783203125 19.991498947143555 C 622.801025390625 80.65641021728516 640.0933837890625 74.77404022216797 596.9650268554688 77.5781021118164 C 553.95166015625 78.5254898071289 495.05078125 106.84748077392578 414.2074890136719 -1.1299854516983032 C 517.5975952148438 -48.050758361816406 543.713134765625 -24.264633178710938 570.2857055664062 -22.467056274414062 C 582.5161743164062 -21.48038673400879 595.3121948242188 -19.989368438720703 643.02783203125 19.991498947143555" stroke-width="0.0" fill="rgb(0, 60, 157)" opacity="1.0"/>
    <path d="M 229.04019165039062 276.5953674316406 C 217.54827880859375 285.14410400390625 225.425048828125 291.8880615234375 256.6346435546875 293.7702331542969 C 238.49656677246094 312.09552001953125 214.08494567871094 310.88031005859375 223.20925903320312 303.40869140625 C 211.8187713623047 298.22039794921875 218.38137817382812 291.3657531738281 217.15699768066406 292.7882080078125 C 221.9138946533203 286.5617370605469 243.25473022460938 297.461181640625 229.04019165039062 276.5953674316406" stroke-width="0.0" fill="rgb(72, 113, 147)" opacity="0.48311013"/>
    <path d="M 116.00314331054688 596.001220703125 C 100.89414978027344 602.4425659179688 102.49891662597656 615.4170532226562 96.71239471435547 621.983642578125 C 84.79728698730469 610.6639404296875 76.61014556884766 601.145263671875 67.3197021484375 605.6122436523438 C 61.955970764160156 576.0294189453125 61.864051818847656 557.70068359375 104.88603210449219 531.2814331054688 C 143.89450073242188 544.256591796875 138.97970581054688 584.5062255859375 116.00314331054688 596.001220703125" stroke-width="0.0" fill="rgb(48, 140, 135)" opacity="0.58903664"/>
    <path d="M 326.3807373046875 33.94486618041992 C 329.329833984375 53.875511169433594 314.72601318359375 36.96043395996094 344.3567199707031 110.32656860351562 C 295.3880615234375 113.09121704101562 246.9161376953125 118.93976593017578 221.50050354003906 28.497190475463867 C 277.18017578125 -1.7501039505004883 263.0517578125 -46.614070892333984 352.08624267578125 -23.76617431640625 C 332.1233215332031 6.8109307289123535 315.8679504394531 1.667952060699463 326.3807373046875 33.94486618041992" stroke-width="0.0" fill="rgb(115, 126, 145)" opacity="0.6142884"/>
    <path d="M 20.96053123474121 0.19509679079055786 C 18.281038284301758 10.195096969604492 10.960531234741211 17.51560401916504 0.9605309963226318 20.195096969604492 C -9.039468765258789 17.51560401916504 -16.359975814819336 10.195096969604492 -19.03946876525879 0.19509679079055786 C -16.359975814819336 -9.804903030395508 -9.039468765258789 -17.125410079956055 0.9605309963226318 -19.804903030395508 C 10.960531234741211 -17.125410079956055 18.281038284301758 -9.804903030395508 20.96053123474121 0.19509679079055786" stroke-width="0.0" fill="rgb(252, 112, 106)" opacity="0.8414566" stroke="rgb(25, 208, 197)" stroke-opacity="0.50832826" stroke-linecap="round" stroke-linejoin="round"/>
    <path d="M 608.7439575195312 269.0547180175781 C 600.2251586914062 277.4425048828125 600.0183715820312 287.29296875 579.515380859375 272.732177734375 C 567.504150390625 284.6871337890625 567.882568359375 280.66058349609375 586.9514770507812 265.4228820800781 C 573.2701416015625 256.00433349609375 562.6581420898438 249.8236541748047 584.85205078125 256.822265625 C 607.8092651367188 259.92376708984375 613.9937133789062 258.97222900390625 608.7439575195312 269.0547180175781" stroke-width="0.0" fill="rgb(135, 145, 113)" opacity="0.3693871"/>
    <path d="M 513.6577758789062 71.77776336669922 C 529.58935546875 97.76048278808594 509.0732727050781 92.65027618408203 497.7737121582031 94.05522918701172 C 471.56658935546875 85.26408386230469 459.1042175292969 85.06620025634766 419.5127258300781 64.88235473632812 C 441.04803466796875 30.54840660095215 474.3788146972656 25.35877799987793 503.72503662109375 33.66119384765625 C 507.26458740234375 51.37004089355469 507.1533508300781 62.80724334716797 513.6577758789062 71.77776336669922" stroke-width="0.0" fill="rgb(0, 63, 155)" opacity="0.722738"/>
    <path d="M 252.65525817871094 85.05136108398438 C 256.822265625 93.04769134521484 265.01641845703125 108.4281997680664 250.73324584960938 100.8248519897461 C 227.97853088378906 104.14862823486328 217.61550903320312 106.26898193359375 214.4097900390625 64.89702606201172 C 219.4104766845703 44.31578063964844 230.81031799316406 47.00371170043945 236.3623809814453 29.993526458740234 C 256.6881408691406 59.77962112426758 260.9782409667969 69.52474212646484 252.65525817871094 85.05136108398438" stroke-width="0.0" fill="rgb(172, 161, 146)" opacity="0.6807802"/>
    <path d="M 444.3460693359375 99.38282775878906 C 429.1025695800781 106.2559585571289 436.5329284667969 122.5746841430664 407.1901550292969 132.6278533935547 C 365.541748046875 128.69056701660156 348.9134826660156 129.55606079101562 338.71075439453125 96.90433502197266 C 327.7612609863281 27.031946182250977 333.31109619140625 10.874227523803711 399.1404724121094 4.960516929626465 C 454.032958984375 29.60492706298828 447.7590026855469 52.121952056884766 444.3460693359375 99.38282775878906" stroke-width="0.0" fill="rgb(0, 78, 140)" opacity="0.9592354"/>
    <path d="M 525.789306640625 494.9914245605469 C 543.8915405273438 510.85809326171875 538.9954223632812 523.0020141601562 511.2292175292969 530.0843505859375 C 481.8501892089844 512.0513305664062 471.88409423828125 507.55572509765625 459.48529052734375 501.8105773925781 C 449.4657287597656 479.004638671875 461.7630615234375 437.25994873046875 480.90142822265625 426.4615173339844 C 513.7151489257812 469.2109680175781 514.54248046875 481.7967834472656 525.789306640625 494.9914245605469" stroke-width="0.0" fill="rgb(41, 120, 136)" opacity="0.8195088"/>
    <path d="M 599.322998046875 470.1944580078125 C 595.306884765625 516.4841918945312 575.2720336914062 515.3114013671875 510.54583740234375 514.6201782226562 C 497.6962890625 492.4493408203125 501.7289123535156 462.76812744140625 510.93450927734375 451.8266906738281 C 519.06103515625 458.6789855957031 527.0921020507812 441.73980712890625 550.1748046875 443.01593017578125 C 578.349853515625 442.01153564453125 590.0587768554688 443.9002685546875 599.322998046875 470.1944580078125" stroke-width="0.0" fill="rgb(37, 120, 139)" opacity="0.6915491"/>
    <path d="M 86.86800384521484 159.17111206054688 C 67.3638687133789 172.93431091308594 70.58297729492188 175.5731658935547 32.96005630493164 159.2468719482422 C 24.09549903869629 159.7642822265625 9.688005447387695 161.95181274414062 11.610574722290039 173.60232543945312 C 26.373064041137695 154.2054443359375 46.30977249145508 150.0656280517578 42.85771560668945 156.62998962402344 C 67.35427856445312 142.3781280517578 82.51216888427734 143.96151733398438 86.86800384521484 159.17111206054688" stroke-width="0.0" fill="rgb(255, 224, 137)" opacity="0.37310427"/>
    <path d="M 336.5903625488281 203.94833374023438 C 327.4280090332031 246.8585205078125 312.33978271484375 246.60195922851562 285.1260070800781 233.83187866210938 C 276.203125 235.8472900390625 277.4280090332031 240.35125732421875 276.84552001953125 220.27220153808594 C 274.5636291503906 202.6221923828125 282.8191223144531 181.46546936035156 308.31610107421875 177.19113159179688 C 335.7337951660156 170.18048095703125 346.10906982421875 174.414794921875 336.5903625488281 203.94833374023438" stroke-width="0.0" fill="rgb(58, 117, 147)" opacity="0.86939204"/>
    <path d="M 409.73956298828125 515.710205078125 C 371.28839111328125 516.3104248046875 374.3876647949219 542.4358520507812 357.8642883300781 542.3119506835938 C 359.4376220703125 528.6303100585938 371.6027526855469 528.6002197265625 366.98797607421875 536.4498901367188 C 361.66229248046875 521.509521484375 368.1871032714844 518.1766357421875 392.2891540527344 500.6373596191406 C 393.1220397949219 491.45928955078125 410.00640869140625 496.7948303222656 409.73956298828125 515.710205078125" stroke-width="0.0" fill="rgb(94, 128, 136)" opacity="0.7705253"/>
    <path d="M 11.600371360778809 289.9856262207031 C 38.630916595458984 323.2721252441406 47.853538513183594 333.1866455078125 15.925869941711426 322.2513732910156 C -2.169508695602417 322.1691589355469 -5.09768009185791 308.3043518066406 -8.765297889709473 296.4794006347656 C -14.24012565612793 280.2049255371094 -25.716527938842773 257.0791015625 -11.518817901611328 256.3690490722656 C 62.19573974609375 259.1313781738281 52.728755950927734 271.696044921875 11.600371360778809 289.9856262207031" stroke-width="0.0" fill="rgb(216, 181, 121)" opacity="0.073874645"/>
    <path d="M 324.6744079589844 154.7371368408203 C 289.8740539550781 179.57952880859375 282.0841369628906 190.9144744873047 275.495361328125 200.90907287597656 C 259.0119934082031 179.875244140625 221.7721405029297 180.7592010498047 226.28256225585938 167.6673126220703 C 228.1832275390625 130.54629516601562 238.0899200439453 134.5520477294922 274.04498291015625 133.44117736816406 C 281.0646057128906 135.7075958251953 289.9057312011719 144.99847412109375 324.6744079589844 154.7371368408203" stroke-width="0.0" fill="rgb(117, 120, 121)" opacity="0.87555367"/>
    <path d="M 566.5900268554688 259.87261962890625 C 523.5601806640625 256.90850830078125 518.1300048828125 270.1412658691406 515.065673828125 283.1564636230469 C 469.3088684082031 246.56573486328125 458.55975341796875 245.9729461669922 471.098876953125 241.10581970214844 C 462.8365478515625 236.51853942871094 474.41937255859375 227.73443603515625 479.1646423339844 223.42431640625 C 488.8075866699219 211.33184814453125 516.5110473632812 209.75392150878906 566.5900268554688 259.87261962890625" stroke-width="0.0" fill="rgb(105, 132, 166)" opacity="1.0"/>
    <path d="M 20.279390335083008 0.5341598987579346 C 17.599897384643555 10.534159660339355 10.279390335083008 17.85466766357422 0.2793901562690735 20.534160614013672 C -9.720609664916992 17.85466766357422 -17.04111671447754 10.534159660339355 -19.720609664916992 0.5341598987579346 C -17.04111671447754 -9.465840339660645 -9.720609664916992 -16.786346435546875 0.2793901562690735 -19.465839385986328 C 10.279390335083008 -16.786346435546875 17.599897384643555 -9.465840339660645 20.279390335083008 0.5341598987579346" stroke-width="0.0" fill="rgb(115, 118, 30)" opacity="0.8216884" stroke="rgb(160, 20, 139)" stroke-opacity="0.9566032" stroke-linecap="round" stroke-linejoin="round"/>
    <path d="M 472.2135314941406 384.6773681640625 C 467.7355041503906 407.05596923828125 474.1449279785156 410.80718994140625 475.5262145996094 405.5218811035156 C 452.9645080566406 383.4327392578125 435.18536376953125 384.7100830078125 406.1452331542969 355.97454833984375 C 428.6725158691406 314.88079833984375 435.0880126953125 335.3388977050781 442.0024719238281 352.4787902832031 C 459.0655212402344 360.2789611816406 462.321044921875 368.9892883300781 472.2135314941406 384.6773681640625" stroke-width="0.0" fill="rgb(96, 109, 132)" opacity="0.5216964"/>
    <path d="M 160.17620849609375 381.04095458984375 C 136.49594116210938 435.6864929199219 123.69757080078125 436.61083984375 81.21929168701172 427.8223876953125 C 69.31604766845703 408.30120849609375 51.32586669921875 407.381103515625 20.47380256652832 383.4956359863281 C 40.34667205810547 342.19134521484375 45.880882263183594 330.50555419921875 95.82218170166016 311.95172119140625 C 157.7812042236328 303.3288269042969 158.8596649169922 311.5807800292969 160.17620849609375 381.04095458984375" stroke-width="0.0" fill="rgb(85, 148, 149)" opacity="0.576769"/>
    <path d="M 20.477035522460938 0.7585279941558838 C 17.797542572021484 10.758527755737305 10.477034568786621 18.07903480529785 0.47703468799591064 20.758527755737305 C -9.522965431213379 18.07903480529785 -16.84347152709961 10.758527755737305 -19.522964477539062 0.7585279941558838 C -16.84347152709961 -9.241472244262695 -9.522965431213379 -16.561979293823242 0.47703468799591064 -19.241472244262695 C 10.477034568786621 -16.561979293823242 17.797542572021484 -9.241472244262695 20.477035522460938 0.7585279941558838" stroke-width="0.0" fill="rgb(126, 42, 216)" opacity="0.7903519" stroke="rgb(179, 138, 156)" stroke-opacity="0.45833534" stroke-linecap="round" stroke-linejoin="round"/>
    <path d="M 550.428955078125 555.5775146484375 C 545.8590087890625 570.3724975585938 526.0147705078125 576.1362915039062 522.7049560546875 586.3571166992188 C 527.7852783203125 591.6888427734375 514.6952514648438 595.950439453125 515.833251953125 588.9703979492188 C 511.1314392089844 566.3648681640625 522.6508178710938 565.2518310546875 521.4227294921875 571.3322143554688 C 537.1130981445312 563.2677001953125 552.5306396484375 567.1074829101562 550.428955078125 555.5775146484375" stroke-width="0.0" fill="rgb(88, 115, 130)" opacity="0.56726974"/>
    <path d="M 572.396728515625 315.9517517089844 C 571.313232421875 333.5554504394531 563.8516235351562 343.19000244140625 547.9830322265625 377.0098876953125 C 552.9312133789062 366.2994689941406 562.8438110351562 364.1058044433594 578.3367919921875 339.29608154296875 C 563.6517333984375 315.9879150390625 529.8341064453125 306.31298828125 573.2783813476562 264.2068786621094 C 587.7288818359375 283.39739990234375 569.1243896484375 309.5978698730469 572.396728515625 315.9517517089844" stroke-width="0.0" fill="rgb(157, 149, 150)" opacity="0.15739878"/>
    <path d="M 182.943115234375 53.08487319946289 C 190.11239624023438 67.94380187988281 167.46424865722656 73.54874420166016 142.57440185546875 66.05587005615234 C 135.0043182373047 52.230735778808594 141.005126953125 55.612648010253906 106.93478393554688 41.928428649902344 C 117.19901275634766 7.400882720947266 131.27737426757812 3.0346124172210693 179.30740356445312 7.7267303466796875 C 181.10501098632812 17.02428436279297 179.4486083984375 38.52052307128906 182.943115234375 53.08487319946289" stroke-width="0.0" fill="rgb(243, 212, 158)" opacity="0.39749235"/>
    <path d="M 299.34552001953125 122.3308334350586 C 318.1243591308594 117.6422119140625 311.27325439453125 133.64268493652344 306.62384033203125 160.62913513183594 C 297.5142822265625 138.5667266845703 283.0958251953125 124.34700775146484 300.1383056640625 129.7352752685547 C 296.00146484375 123.72756958007812 311.4029541015625 125.0469741821289 304.1158142089844 111.35028839111328 C 292.85223388671875 110.14311981201172 312.5854797363281 115.45992279052734 299.34552001953125 122.3308334350586" stroke-width="0.0" fill="rgb(211, 197, 152)" opacity="0.38283518"/>
    <path d="M 441.7618103027344 97.0423812866211 C 424.93707275390625 99.45745849609375 414.8006896972656 102.84297943115234 418.57525634765625 120.50269317626953 C 406.79156494140625 117.36344146728516 378.6908264160156 113.46589660644531 372.80865478515625 98.024658203125 C 381.21539306640625 46.370941162109375 383.7195129394531 33.68915557861328 420.54156494140625 33.59293746948242 C 451.8269958496094 59.457733154296875 445.7683410644531 62.61476135253906 441.7618103027344 97.0423812866211" stroke-width="0.0" fill="rgb(0, 80, 145)" opacity="0.60214126"/>
    <path d="M 238.76438903808594 563.3549194335938 C 233.18002319335938 596.8125 214.6681671142578 600.1780395507812 209.42425537109375 573.9701538085938 C 201.53916931152344 573.363037109375 190.3892364501953 574.0861206054688 183.94044494628906 563.1102905273438 C 193.20083618164062 565.7162475585938 189.1177520751953 555.6826782226562 187.67884826660156 564.7071533203125 C 213.3123321533203 566.7008666992188 241.47247314453125 558.6521606445312 238.76438903808594 563.3549194335938" stroke-width="0.0" fill="rgb(55, 145, 138)" opacity="0.12325935"/>
    <path d="M 363.1634521484375 382.99432373046875 C 356.94482421875 377.4859313964844 351.2401123046875 387.0380859375 352.67193603515625 403.32470703125 C 343.7792053222656 407.1476745605469 321.9840393066406 399.6109924316406 309.39892578125 397.82696533203125 C 314.63140869140625 352.8942565917969 318.59356689453125 349.33770751953125 345.9818420410156 349.1606140136719 C 370.91912841796875 354.6070251464844 373.2027282714844 363.24224853515625 363.1634521484375 382.99432373046875" stroke-width="0.0" fill="rgb(111, 111, 127)" opacity="0.78406245"/>
    <path d="M 517.4578857421875 93.4505844116211 C 509.0099182128906 98.1572265625 498.7621154785156 102.03630065917969 499.54510498046875 94.53660583496094 C 493.13580322265625 92.74968719482422 480.3255310058594 91.20991516113281 478.4096374511719 79.8272476196289 C 482.9056701660156 82.22835540771484 475.27618408203125 78.39282989501953 473.7999267578125 89.04721069335938 C 499.3110046386719 83.62288665771484 503.1865539550781 86.82616424560547 517.4578857421875 93.4505844116211" stroke-width="0.0" fill="rgb(0, 51, 154)" opacity="0.56918836"/>
    <path d="M 556.7281494140625 78.2582778930664 C 530.6744995117188 97.18875885009766 523.7105712890625 109.1094741821289 515.903564453125 120.25679779052734 C 504.30413818359375 109.00942993164062 500.69549560546875 95.87052154541016 486.4224548339844 89.57411193847656 C 495.8470764160156 69.36437225341797 496.346923828125 66.44535827636719 498.41827392578125 62.00547790527344 C 528.9225463867188 62.11602020263672 553.5447998046875 67.03294372558594 556.7281494140625 78.2582778930664" stroke-width="0.0" fill="rgb(0, 58, 163)" opacity="0.77899015"/>
    <path d="M 484.0157470703125 357.1251220703125 C 468.27423095703125 349.2930908203125 459.40423583984375 372.04913330078125 472.1964416503906 359.6875 C 440.92535400390625 367.398193359375 441.6829833984375 364.34332275390625 446.4014587402344 362.43121337890625 C 446.2489929199219 333.3625793457031 461.6856384277344 348.9373779296875 463.1413879394531 360.3564147949219 C 471.1116943359375 342.3348693847656 465.49462890625 360.1771240234375 484.0157470703125 357.1251220703125" stroke-width="0.0" fill="rgb(172, 182, 114)" opacity="0.92991304"/>
    <path d="M 105.82713317871094 350.80609130859375 C 91.53646850585938 380.77301025390625 93.08975982666016 385.3460693359375 78.50871276855469 390.0848083496094 C 44.11656951904297 391.70416259765625 36.27519989013672 383.34442138671875 45.9925651550293 371.17510986328125 C 50.212181091308594 343.7120361328125 52.696990966796875 327.7203369140625 88.34235382080078 332.2758483886719 C 99.72286987304688 321.7890930175781 95.65353393554688 329.9680480957031 105.82713317871094 350.80609130859375" stroke-width="0.0" fill="rgb(138, 158, 146)" opacity="0.40466246"/>
    <path d="M 212.5530548095703 153.6388397216797 C 221.69619750976562 159.0641632080078 210.6459503173828 151.56573486328125 179.49533081054688 140.1614990234375 C 176.9500732421875 159.84523010253906 173.03564453125 150.7729949951172 172.51454162597656 141.93865966796875 C 176.91514587402344 128.1529541015625 179.61569213867188 116.65800476074219 179.23866271972656 122.37788391113281 C 196.48890686035156 128.3583984375 204.48355102539062 126.11587524414062 212.5530548095703 153.6388397216797" stroke-width="0.0" fill="rgb(170, 145, 133)" opacity="0.22933088"/>
    <path d="M 80.22908020019531 538.0768432617188 C 81.83958435058594 552.6273803710938 87.17501831054688 584.3015747070312 34.178955078125 634.431884765625 C -4.99982213973999 588.634033203125 -9.326000213623047 571.7391967773438 -5.715888977050781 541.689453125 C 52.23469924926758 546.7820434570312 56.28898620605469 540.7083129882812 54.76182556152344 538.58251953125 C 51.356239318847656 525.29541015625 68.18985748291016 532.0048217773438 80.22908020019531 538.0768432617188" stroke-width="0.0" fill="rgb(43, 142, 128)" opacity="0.66685"/>
    <path d="M 20.477062225341797 0.9665542244911194 C 17.797569274902344 10.966554641723633 10.477063179016113 18.28706169128418 0.4770631194114685 20.966554641723633 C -9.522936820983887 18.28706169128418 -16.84344482421875 10.966554641723633 -19.522937774658203 0.9665542244911194 C -16.84344482421875 -9.033445358276367 -9.522936820983887 -16.353952407836914 0.4770631194114685 -19.033445358276367 C 10.477063179016113 -16.353952407836914 17.797569274902344 -9.033445358276367 20.477062225341797 0.9665542244911194" stroke-width="0.0" fill="rgb(97, 236, 199)" opacity="0.86681026" stroke="rgb(25, 87, 11)" stroke-opacity="0.65527844" stroke-linecap="round" stroke-linejoin="round"/>
    <path d="M 20.154277801513672 0.2796582579612732 C 17.47478485107422 10.279658317565918 10.154277801513672 17.60016441345215 0.15427754819393158 20.2796573638916 C -9.845722198486328 17.60016441345215 -17.166229248046875 10.279658317565918 -19.845722198486328 0.2796582579612732 C -17.166229248046875 -9.720341682434082 -9.845722198486328 -17.040849685668945 0.15427754819393158 -19.7203426361084 C 10.154277801513672 -17.040849685668945 17.47478485107422 -9.720341682434082 20.154277801513672 0.2796582579612732" stroke-width="0.0" fill="rgb(50, 118, 71)" opacity="0.7884358" stroke="rgb(65, 142, 85)" stroke-opacity="0.48431513" stroke-linecap="round" stroke-linejoin="round"/>
  </g>
</svg>
