<?xml version="1.0" ?>
<svg xmlns="http://www.w3.org/2000/svg" version="1.1" width="600" height="600">
  <defs/>
  <g>
    <path d="M 234.47506713867188 42.41419982910156 C 196.08802795410156 103.88858795166016 178.14804077148438 105.7245101928711 129.10287475585938 113.13599395751953 C 94.5756607055664 88.72528076171875 98.73998260498047 67.89384460449219 82.67205047607422 9.174821853637695 C 77.37115478515625 -31.244037628173828 76.25676727294922 -33.77876663208008 158.00680541992188 -35.60252380371094 C 201.63290405273438 -35.34445571899414 209.0457763671875 -28.67222785949707 234.47506713867188 42.41419982910156" stroke-width="0.0" fill="rgb(108, 146, 138)" opacity="0.8696238"/>
    <path d="M 383.954833984375 -6.750632286071777 C 359.41552734375 70.90990447998047 322.5269775390625 55.59510803222656 241.341796875 88.2687759399414 C 218.94337463378906 91.7245101928711 211.05316162109375 94.05574798583984 205.76739501953125 15.908143997192383 C 213.0543212890625 -33.879920959472656 234.38157653808594 -27.81340980529785 290.0876770019531 -25.374122619628906 C 336.2274475097656 -16.752187728881836 359.9967956542969 -23.985702514648438 383.954833984375 -6.750632286071777" stroke-width="0.0" fill="rgb(103, 155, 144)" opacity="0.97974265"/>
    <path d="M 418.4560852050781 613.3518676757812 C 414.9908142089844 617.4027099609375 400.3848571777344 620.2365112304688 340.76910400390625 623.559814453125 C 268.8046875 617.8374633789062 262.1032409667969 603.345703125 263.9583435058594 567.9984130859375 C 291.8614807128906 502.5027770996094 286.97698974609375 492.3428649902344 300.88970947265625 502.8018493652344 C 327.357177734375 547.3555908203125 343.4549560546875 546.169189453125 418.4560852050781 613.3518676757812" stroke-width="0.0" fill="rgb(82, 134, 137)" opacity="0.79245996"/>
    <path d="M 159.16172790527344 47.67079544067383 C 173.65591430664062 133.31683349609375 228.93850708007812 264.6229248046875 10.900829315185547 305.4465637207031 C -73.49494171142578 182.99398803710938 -12.524772644042969 114.18719482421875 14.210603713989258 42.090415954589844 C 25.151844024658203 -21.282913208007812 22.875511169433594 -37.24580383300781 79.60977172851562 -49.76721954345703 C 163.18484497070312 -40.44562530517578 153.23707580566406 -18.121929168701172 159.16172790527344 47.67079544067383" stroke-width="0.0" fill="rgb(98, 198, 180)" opacity="0.5282188"/>
    <path d="M 201.2096710205078 564.59765625 C 201.76780700683594 643.5015258789062 178.473388671875 636.2678833007812 118.48175048828125 631.3956298828125 C 40.54745864868164 624.074462890625 23.522600173950195 623.9841918945312 3.6773324012756348 601.7779541015625 C 39.37382125854492 527.0029907226562 83.54305267333984 545.0682983398438 183.45350646972656 472.14959716796875 C 187.54647827148438 432.9204406738281 184.86282348632812 465.6648864746094 201.2096710205078 564.59765625" stroke-width="0.0" fill="rgb(83, 140, 141)" opacity="0.84381056"/>
    <path d="M 372.91192626953125 35.63043212890625 C 387.2997131347656 177.07257080078125 432.174072265625 220.2694091796875 284.73895263671875 275.931396484375 C 146.71640014648438 284.5205078125 194.2575225830078 249.70880126953125 192.57794189453125 159.09536743164062 C 256.7861633300781 39.08013153076172 287.754638671875 50.02594757080078 347.0826110839844 14.850418090820312 C 363.90478515625 -19.6637020111084 376.7744445800781 -30.478853225708008 372.91192626953125 35.63043212890625" stroke-width="0.0" fill="rgb(36, 12, 30)" opacity="0.8127912"/>
    <path d="M 618.5341796875 63.044960021972656 C 634.3272094726562 279.30877685546875 629.9661254882812 285.86566162109375 462.17889404296875 292.5472717285156 C 219.87986755371094 288.3924560546875 227.39874267578125 273.79241943359375 311.9701232910156 188.13453674316406 C 295.89068603515625 -33.187381744384766 308.186279296875 -42.63803482055664 413.0838928222656 -38.30708312988281 C 561.1900634765625 -38.283241271972656 604.9716796875 -79.60222625732422 618.5341796875 63.044960021972656" stroke-width="0.0" fill="rgb(153, 192, 179)" opacity="0.9892005"/>
    <path d="M 438.562255859375 467.49688720703125 C 425.0162658691406 556.7296752929688 399.4602966308594 545.1823120117188 363.82940673828125 518.232421875 C 350.7978820800781 500.1595153808594 324.771484375 506.4908752441406 134.25247192382812 303.7982482910156 C 102.00236511230469 262.7267761230469 110.6062240600586 252.66375732421875 178.3094940185547 258.7325134277344 C 500.0005187988281 282.06707763671875 452.3155212402344 351.6762390136719 438.562255859375 467.49688720703125" stroke-width="0.0" fill="rgb(19, 64, 65)" opacity="0.7301315"/>
    <path d="M 98.18218994140625 19.544784545898438 C 117.63671112060547 92.39432525634766 106.10623168945312 127.94490814208984 -13.836629867553711 167.01039123535156 C -59.258567810058594 163.1721649169922 -26.806440353393555 107.59659576416016 -18.38148307800293 47.40764617919922 C -23.289352416992188 -1.0530143976211548 -23.022768020629883 -13.980673789978027 43.22576904296875 -27.451915740966797 C 79.93515014648438 -25.14426612854004 82.757568359375 -14.084945678710938 98.18218994140625 19.544784545898438" stroke-width="0.0" fill="rgb(114, 177, 171)" opacity="0.9592227"/>
    <path d="M 336.1750183105469 530.3403930664062 C 321.0514221191406 567.2068481445312 296.7738952636719 565.8447875976562 273.081787109375 575.8092651367188 C 261.02197265625 570.52294921875 265.8534240722656 545.1345825195312 174.55035400390625 415.0371398925781 C 157.13768005371094 398.6733093261719 162.1101837158203 377.4613342285156 189.8396759033203 378.6488952636719 C 348.9932861328125 436.04534912109375 327.5433349609375 481.0700378417969 336.1750183105469 530.3403930664062" stroke-width="0.0" fill="rgb(18, 37, 61)" opacity="0.9448254"/>
    <path d="M 282.57745361328125 77.97174072265625 C 331.498046875 215.19744873046875 346.1861267089844 257.6172180175781 187.56201171875 304.9271545410156 C 18.510793685913086 313.2909851074219 133.9840087890625 269.0440368652344 107.62484741210938 137.29164123535156 C 123.54684448242188 59.217041015625 150.93197631835938 40.83097457885742 221.3330535888672 -10.981529235839844 C 234.67787170410156 -12.553993225097656 248.4390106201172 -9.007429122924805 282.57745361328125 77.97174072265625" stroke-width="0.0" fill="rgb(112, 183, 172)" opacity="0.5118999"/>
    <path d="M 232.67361450195312 410.0332336425781 C 116.13282012939453 553.5496826171875 89.26374816894531 543.8467407226562 0.6020898222923279 608.1823120117188 C -15.643582344055176 613.3407592773438 -20.504487991333008 601.9694213867188 -26.21904182434082 485.7124938964844 C -72.72451782226562 327.774658203125 -117.71516418457031 300.86041259765625 137.8069305419922 221.7183837890625 C 258.36761474609375 258.8974914550781 219.3562774658203 325.64794921875 232.67361450195312 410.0332336425781" stroke-width="0.0" fill="rgb(67, 60, 63)" opacity="0.75508696"/>
    <path d="M 510.44793701171875 607.8382568359375 C 477.1649475097656 637.2272338867188 454.00616455078125 632.04345703125 410.62054443359375 628.3410034179688 C 340.1578063964844 543.4340209960938 326.70477294921875 538.6947631835938 313.41961669921875 514.7003173828125 C 316.7765197753906 485.0494079589844 323.5169982910156 488.6681823730469 365.2529296875 495.55792236328125 C 406.7453308105469 498.6069030761719 465.5606689453125 463.5855407714844 510.44793701171875 607.8382568359375" stroke-width="0.0" fill="rgb(94, 138, 132)" opacity="0.96431094"/>
    <path d="M 284.3121337890625 614.3787231445312 C 317.01446533203125 615.7599487304688 306.30169677734375 620.5843505859375 223.41427612304688 636.6377563476562 C 172.08749389648438 641.777099609375 170.04832458496094 635.1953735351562 169.31967163085938 554.6572265625 C 155.16891479492188 453.91290283203125 139.30625915527344 431.2860107421875 198.94818115234375 412.7067565917969 C 297.4873962402344 506.1446838378906 291.44000244140625 533.2938842773438 284.3121337890625 614.3787231445312" stroke-width="0.0" fill="rgb(65, 117, 111)" opacity="0.6502255"/>
    <path d="M 494.2072448730469 524.561279296875 C 558.5256958007812 597.010498046875 570.26318359375 609.1185913085938 513.3012084960938 600.951904296875 C 421.55419921875 528.0984497070312 382.5291442871094 507.9048767089844 252.6722869873047 253.84027099609375 C 234.5181121826172 249.80079650878906 242.9573211669922 244.42857360839844 293.53802490234375 235.84490966796875 C 590.701171875 257.57708740234375 512.4514770507812 317.400146484375 494.2072448730469 524.561279296875" stroke-width="0.0" fill="rgb(55, 122, 121)" opacity="0.91509134"/>
    <path d="M 635.9851684570312 430.48065185546875 C 623.4663696289062 586.374267578125 624.9349975585938 604.360595703125 605.9329833984375 609.5780639648438 C 414.3743591308594 597.9686279296875 451.99798583984375 559.781005859375 452.021484375 347.2663879394531 C 360.27349853515625 257.849365234375 319.9206237792969 240.5076141357422 412.84002685546875 249.24978637695312 C 659.6055908203125 268.66845703125 649.9451293945312 317.3239440917969 635.9851684570312 430.48065185546875" stroke-width="0.0" fill="rgb(51, 88, 73)" opacity="0.49716973"/>
    <path d="M 526.81005859375 59.759246826171875 C 530.3013916015625 69.431884765625 551.58056640625 101.5036849975586 496.45611572265625 189.75506591796875 C 436.2325439453125 129.66119384765625 458.2619323730469 84.58303833007812 461.72186279296875 48.14405822753906 C 477.2579345703125 25.66254425048828 476.7696228027344 8.001729965209961 500.47589111328125 -13.326462745666504 C 517.8995971679688 15.319927215576172 513.2651977539062 38.13937759399414 526.81005859375 59.759246826171875" stroke-width="0.0" fill="rgb(128, 178, 170)" opacity="0.7282897"/>
    <path d="M 200.58059692382812 543.5986328125 C 192.369384765625 583.6491088867188 189.759521484375 601.1553344726562 173.8359832763672 600.735107421875 C 139.3087615966797 593.3324584960938 113.39009094238281 591.4855346679688 66.11182403564453 554.7123413085938 C 131.09764099121094 527.3451538085938 145.13241577148438 522.5927124023438 181.31655883789062 496.621826171875 C 205.03378295898438 502.5736083984375 203.6228485107422 522.9998779296875 200.58059692382812 543.5986328125" stroke-width="0.0" fill="rgb(124, 153, 157)" opacity="0.8204044"/>
    <path d="M 502.43719482421875 44.64157485961914 C 494.095458984375 59.724666595458984 498.177734375 92.99930572509766 464.9683837890625 160.53738403320312 C 405.6836853027344 126.88896179199219 390.59747314453125 120.18697357177734 251.34983825683594 50.21028137207031 C 361.8904113769531 -50.49888229370117 399.90576171875 -30.17193031311035 428.66802978515625 0.7442880868911743 C 464.77679443359375 34.88022994995117 480.3167419433594 33.75019073486328 502.43719482421875 44.64157485961914" stroke-width="0.0" fill="rgb(105, 170, 147)" opacity="0.960657"/>
    <path d="M 511.6731262207031 23.922340393066406 C 501.5641174316406 50.99564743041992 489.83392333984375 54.555538177490234 468.4022521972656 46.64826202392578 C 472.5501403808594 51.55470657348633 464.19537353515625 40.072147369384766 428.3725891113281 12.307023048400879 C 409.8344421386719 -6.788290500640869 417.1949768066406 -18.281143188476562 467.74945068359375 -23.361173629760742 C 498.4555969238281 -2.943345546722412 499.69439697265625 14.15549087524414 511.6731262207031 23.922340393066406" stroke-width="0.0" fill="rgb(99, 136, 132)" opacity="0.8891268"/>
    <path d="M 268.06573486328125 461.3553771972656 C 111.69401550292969 545.9384155273438 57.1207275390625 557.697509765625 28.5198917388916 582.4302978515625 C 63.702423095703125 526.2571411132812 32.74646759033203 506.47198486328125 0.20960330963134766 499.6022644042969 C -22.266033172607422 484.60009765625 -40.99980926513672 434.25738525390625 4.798491954803467 361.9438171386719 C 47.958900451660156 459.79400634765625 119.1766586303711 419.80059814453125 268.06573486328125 461.3553771972656" stroke-width="0.0" fill="rgb(140, 186, 169)" opacity="0.9370297"/>
    <path d="M 239.7740936279297 564.5728759765625 C 248.80804443359375 600.177734375 248.93751525878906 614.2401733398438 207.6797332763672 622.14990234375 C 174.71641540527344 601.9281005859375 176.52462768554688 578.75927734375 172.7616424560547 576.9664916992188 C 164.17901611328125 533.61328125 156.6746368408203 501.161865234375 186.53005981445312 474.4828796386719 C 236.3424530029297 512.3330078125 248.26181030273438 518.1686401367188 239.7740936279297 564.5728759765625" stroke-width="0.0" fill="rgb(135, 170, 164)" opacity="0.6400325"/>
    <path d="M 217.7913818359375 177.72830200195312 C 205.16358947753906 249.4144287109375 199.3310546875 197.127685546875 133.6171112060547 218.25473022460938 C 116.02066802978516 197.64340209960938 150.9776611328125 218.81983947753906 124.73395538330078 181.4552001953125 C 107.27436065673828 176.89353942871094 144.27377319335938 178.3623504638672 130.86692810058594 214.67300415039062 C 120.59222412109375 236.32899475097656 195.84738159179688 183.10670471191406 217.7913818359375 177.72830200195312" stroke-width="0.0" fill="rgb(26, 20, 61)" opacity="0.8337144"/>
    <path d="M 632.3282470703125 470.23974609375 C 622.539794921875 542.9924926757812 638.0648193359375 580.1250610351562 586.65478515625 612.45751953125 C 502.5652770996094 565.8317260742188 584.2631225585938 579.2589111328125 644.28466796875 405.5568542480469 C 449.0740966796875 456.45947265625 357.2604064941406 396.0161437988281 495.3874206542969 360.8646545410156 C 627.76611328125 468.4351501464844 639.0540161132812 380.5334777832031 632.3282470703125 470.23974609375" stroke-width="0.0" fill="rgb(0, 25, 68)" opacity="0.7598863"/>
    <path d="M 20.918493270874023 0.5712494254112244 C 18.23900032043457 10.571249008178711 10.918492317199707 17.891756057739258 0.9184926748275757 20.57124900817871 C -9.081507682800293 17.891756057739258 -16.402013778686523 10.571249008178711 -19.081506729125977 0.5712494254112244 C -16.402013778686523 -9.428750991821289 -9.081507682800293 -16.749258041381836 0.9184926748275757 -19.42875099182129 C 10.918492317199707 -16.749258041381836 18.23900032043457 -9.428750991821289 20.918493270874023 0.5712494254112244" stroke-width="0.0" fill="rgb(22, 51, 178)" opacity="0.9031094" stroke="rgb(28, 230, 243)" stroke-opacity="0.55337894" stroke-linecap="round" stroke-linejoin="round"/>
    <path d="M 195.35923767089844 96.61042022705078 C 87.41494750976562 216.9180908203125 60.74053955078125 198.86868286132812 2.8194680213928223 199.5866241455078 C -22.365150451660156 210.2325439453125 -22.683626174926758 203.70339965820312 -19.901002883911133 172.65379333496094 C -8.74373722076416 147.3872833251953 -2.768292188644409 133.2184600830078 36.12797164916992 113.83966064453125 C 107.7114486694336 102.17833709716797 142.23333740234375 47.490318298339844 195.35923767089844 96.61042022705078" stroke-width="0.0" fill="rgb(108, 184, 171)" opacity="0.5155334"/>
    <path d="M 568.385986328125 124.07311248779297 C 565.5890502929688 150.6091766357422 579.7176513671875 177.87152099609375 514.4298095703125 315.1507568359375 C 410.8124084472656 203.55850219726562 454.250244140625 218.71893310546875 552.365478515625 201.6890106201172 C 510.3879089355469 76.70137786865234 513.57373046875 66.8891372680664 535.329833984375 53.132041931152344 C 546.1156005859375 90.33395385742188 546.9714965820312 109.71400451660156 568.385986328125 124.07311248779297" stroke-width="0.0" fill="rgb(196, 200, 180)" opacity="0.96780914"/>
    <path d="M 381.0328674316406 547.2677612304688 C 269.6131591796875 586.826171875 245.83462524414062 573.7493286132812 245.37496948242188 584.3679809570312 C 242.51535034179688 638.5433349609375 232.5260009765625 647.0865478515625 235.8757781982422 574.7928466796875 C 228.0581817626953 511.05682373046875 185.95831298828125 466.61541748046875 234.038330078125 460.1654052734375 C 471.87445068359375 498.0423278808594 485.953125 419.6032409667969 381.0328674316406 547.2677612304688" stroke-width="0.0" fill="rgb(142, 172, 166)" opacity="0.97037536"/>
    <path d="M 589.4190063476562 34.366817474365234 C 569.0570678710938 74.7565689086914 564.9896850585938 76.70592498779297 553.0826416015625 75.12748718261719 C 503.29949951171875 66.57463073730469 487.4565734863281 70.29003143310547 483.89678955078125 37.949581146240234 C 476.8360900878906 -11.520981788635254 473.90826416015625 -25.60630989074707 513.478271484375 -35.455657958984375 C 581.8638916015625 -16.978090286254883 585.3977661132812 -5.222629070281982 589.4190063476562 34.366817474365234" stroke-width="0.0" fill="rgb(101, 129, 131)" opacity="0.89450616"/>
    <path d="M 610.6546630859375 91.25006103515625 C 611.7295532226562 111.61192321777344 636.9610595703125 142.5787353515625 578.1358642578125 263.9765625 C 477.9236755371094 174.11708068847656 512.451171875 118.30506134033203 525.4133911132812 76.64769744873047 C 537.0517578125 51.34778594970703 545.4442138671875 41.76360321044922 581.8460083007812 30.243974685668945 C 600.8588256835938 52.110313415527344 599.368896484375 72.08795928955078 610.6546630859375 91.25006103515625" stroke-width="0.0" fill="rgb(143, 194, 174)" opacity="0.91242003"/>
    <path d="M 625.72021484375 25.201757431030273 C 621.7319946289062 61.41342544555664 612.6844482421875 69.99407958984375 587.662353515625 78.36026763916016 C 542.1342163085938 60.14262390136719 546.1318359375 35.03976821899414 528.5159301757812 -14.705079078674316 C 523.64111328125 -13.907380104064941 537.766845703125 -16.19948959350586 570.0755004882812 -15.457053184509277 C 598.1171875 -17.116928100585938 610.7669067382812 -14.176156044006348 625.72021484375 25.201757431030273" stroke-width="0.0" fill="rgb(107, 138, 132)" opacity="0.9226733"/>
    <path d="M 195.0058135986328 409.6235656738281 C 390.64794921875 431.6759338378906 360.76898193359375 488.3211669921875 167.69140625 443.37579345703125 C 0.8124551773071289 404.3233947753906 24.17546844482422 435.4468994140625 53.20343017578125 335.84771728515625 C 105.74007415771484 336.2531433105469 126.10611724853516 340.3612365722656 69.38096618652344 342.01629638671875 C 112.24431610107422 352.91510009765625 198.6231231689453 323.58642578125 195.0058135986328 409.6235656738281" stroke-width="0.0" fill="rgb(0, 2, 23)" opacity="0.964223"/>
    <path d="M 445.8801574707031 50.01966857910156 C 430.1711730957031 47.87248992919922 426.724365234375 57.025787353515625 401.9452819824219 120.85201263427734 C 377.3086853027344 93.74132537841797 388.43182373046875 61.86156463623047 392.8642272949219 39.923828125 C 387.9305725097656 5.655925750732422 386.7228088378906 1.004930853843689 404.4037780761719 8.183049201965332 C 439.89697265625 2.1702663898468018 437.49822998046875 16.63335418701172 445.8801574707031 50.01966857910156" stroke-width="0.0" fill="rgb(119, 170, 156)" opacity="0.638777"/>
    <path d="M 559.5700073242188 359.4376220703125 C 578.3526611328125 388.8102722167969 619.9037475585938 413.3258056640625 526.46875 400.97314453125 C 539.5836791992188 287.838134765625 527.0098266601562 374.0643615722656 519.3621215820312 317.9249572753906 C 492.443359375 271.39404296875 463.91729736328125 286.15545654296875 525.0407104492188 254.56707763671875 C 572.7086181640625 308.2200012207031 548.758056640625 349.224365234375 559.5700073242188 359.4376220703125" stroke-width="0.0" fill="rgb(203, 187, 191)" opacity="0.7181989"/>
    <path d="M 588.2201538085938 331.9370422363281 C 582.7144775390625 343.3797912597656 575.977783203125 355.6520690917969 577.189453125 358.4072265625 C 561.1630249023438 345.6060791015625 548.3580932617188 338.6886901855469 543.0742797851562 330.4681701660156 C 547.4254150390625 316.1770324707031 545.6838989257812 295.0506591796875 548.7601318359375 306.28729248046875 C 568.5360717773438 321.2213439941406 587.9224243164062 325.92724609375 588.2201538085938 331.9370422363281" stroke-width="0.0" fill="rgb(185, 196, 175)" opacity="0.7654486"/>
    <path d="M 500.5918273925781 541.48095703125 C 487.1102294921875 580.4465942382812 481.5461730957031 589.343994140625 467.3334045410156 565.7718505859375 C 446.8346862792969 566.1212158203125 435.62744140625 567.5303344726562 279.7975769042969 573.2117919921875 C 334.0455017089844 490.2027587890625 388.8251037597656 495.1097106933594 434.99163818359375 471.4909973144531 C 497.30426025390625 501.0645751953125 503.2886657714844 514.3449096679688 500.5918273925781 541.48095703125" stroke-width="0.0" fill="rgb(139, 169, 162)" opacity="0.9985507"/>
    <path d="M 532.2200317382812 389.17059326171875 C 428.504638671875 464.1046447753906 418.3302307128906 446.93536376953125 347.34271240234375 457.33892822265625 C 243.45433044433594 452.90142822265625 233.0860137939453 433.12493896484375 275.8064880371094 352.55963134765625 C 285.8863220214844 315.1062927246094 260.7506408691406 330.0086364746094 350.18902587890625 319.45458984375 C 400.9636535644531 315.5248107910156 359.4093933105469 371.3354187011719 532.2200317382812 389.17059326171875" stroke-width="0.0" fill="rgb(0, 6, 40)" opacity="0.36505172"/>
    <path d="M 115.22755432128906 269.5745849609375 C 89.73686981201172 279.10333251953125 66.70880126953125 287.34722900390625 36.905094146728516 296.6185607910156 C 1.3885033130645752 295.7201232910156 -26.275062561035156 277.7967834472656 -2.662407398223877 437.0359191894531 C -100.49571228027344 237.2295379638672 10.026844024658203 253.11056518554688 92.863525390625 208.20652770996094 C 194.88124084472656 222.0599365234375 171.9826202392578 191.23060607910156 115.22755432128906 269.5745849609375" stroke-width="0.0" fill="rgb(198, 212, 201)" opacity="0.9885783"/>
    <path d="M 634.2714233398438 289.0174865722656 C 616.7672119140625 345.17449951171875 606.8449096679688 349.87030029296875 569.7150268554688 347.2366027832031 C 559.533203125 340.2094421386719 556.0148315429688 329.7337951660156 515.22998046875 263.38848876953125 C 497.8318786621094 217.0216064453125 516.5125732421875 193.892333984375 564.9906005859375 213.61387634277344 C 618.021728515625 270.1384582519531 629.2598266601562 269.65966796875 634.2714233398438 289.0174865722656" stroke-width="0.0" fill="rgb(178, 200, 183)" opacity="1.0"/>
    <path d="M 20.279390335083008 0.5341598987579346 C 17.599897384643555 10.534159660339355 10.279390335083008 17.85466766357422 0.2793901562690735 20.534160614013672 C -9.720609664916992 17.85466766357422 -17.04111671447754 10.534159660339355 -19.720609664916992 0.5341598987579346 C -17.04111671447754 -9.465840339660645 -9.720609664916992 -16.786346435546875 0.2793901562690735 -19.465839385986328 C 10.279390335083008 -16.786346435546875 17.599897384643555 -9.465840339660645 20.279390335083008 0.5341598987579346" stroke-width="0.0" fill="rgb(226, 118, 81)" opacity="0.8631672" stroke="rgb(198, 202, 226)" stroke-opacity="0.09741532" stroke-linecap="round" stroke-linejoin="round"/>
    <path d="M 624.393310546875 602.8065795898438 C 522.8219604492188 639.9639282226562 484.72711181640625 610.0386962890625 461.00830078125 624.6113891601562 C 449.6074523925781 620.4984130859375 432.8376770019531 624.3056640625 390.79229736328125 591.2459716796875 C 424.55157470703125 562.8604736328125 451.82598876953125 564.4423217773438 490.7550048828125 587.3470458984375 C 498.0125427246094 604.57080078125 458.3443298339844 599.8306274414062 624.393310546875 602.8065795898438" stroke-width="0.0" fill="rgb(92, 127, 132)" opacity="0.86139506"/>
    <path d="M 233.3218536376953 84.00634765625 C 272.5652770996094 184.5836944580078 272.9088134765625 118.00660705566406 169.11293029785156 168.38319396972656 C 110.05781555175781 141.67648315429688 109.03546142578125 131.42359924316406 163.345947265625 105.91887664794922 C 190.01499938964844 63.18467712402344 186.639404296875 44.26497268676758 212.33200073242188 47.924381256103516 C 231.664306640625 30.012331008911133 229.3658905029297 40.988765716552734 233.3218536376953 84.00634765625" stroke-width="0.0" fill="rgb(120, 191, 179)" opacity="0.9601475"/>
    <path d="M 622.4669189453125 348.76123046875 C 615.5685424804688 360.4555969238281 597.4867553710938 368.6577453613281 575.1350708007812 363.1732177734375 C 571.3911743164062 343.8434753417969 546.8495483398438 348.48907470703125 551.5958862304688 337.71319580078125 C 552.204345703125 319.7618713378906 552.2677001953125 311.69451904296875 566.3634643554688 328.16741943359375 C 591.3626708984375 320.2677307128906 614.0363159179688 320.6936340332031 622.4669189453125 348.76123046875" stroke-width="0.0" fill="rgb(178, 189, 174)" opacity="0.86443216"/>
    <path d="M 514.4658203125 37.174224853515625 C 474.3697204589844 54.31551742553711 440.296875 63.76406478881836 411.4735412597656 61.613651275634766 C 410.7330322265625 73.77892303466797 412.0115051269531 56.92585372924805 402.0324401855469 30.127300262451172 C 401.6106262207031 -1.4639655351638794 402.73785400390625 -10.841355323791504 426.5439758300781 -24.129209518432617 C 449.00860595703125 1.557116150856018 448.9872131347656 12.290343284606934 514.4658203125 37.174224853515625" stroke-width="0.0" fill="rgb(108, 154, 154)" opacity="0.20862097"/>
    <path d="M 617.4166259765625 518.5131225585938 C 598.4832763671875 604.29345703125 601.2000732421875 579.4798583984375 510.7649230957031 576.7674560546875 C 474.07757568359375 588.9625244140625 472.40655517578125 569.599853515625 463.9915466308594 559.85302734375 C 457.6945495605469 544.6884765625 470.6263427734375 543.4658203125 484.74908447265625 520.2692260742188 C 528.6315307617188 499.740234375 584.0022583007812 459.6640625 617.4166259765625 518.5131225585938" stroke-width="0.0" fill="rgb(103, 133, 128)" opacity="0.67476326"/>
    <path d="M 515.533447265625 466.1402282714844 C 523.7734375 542.5200805664062 512.7164916992188 557.1508178710938 486.0645446777344 551.3588256835938 C 484.7936096191406 542.1254272460938 467.0738525390625 545.4046020507812 297.1353759765625 464.9884948730469 C 385.1968688964844 459.17413330078125 410.4976501464844 427.94256591796875 505.069580078125 435.59930419921875 C 599.1778564453125 464.3534851074219 592.3267822265625 429.3988342285156 515.533447265625 466.1402282714844" stroke-width="0.0" fill="rgb(156, 186, 169)" opacity="0.9128956"/>
    <path d="M 329.5632019042969 92.56062316894531 C 306.11334228515625 190.2518310546875 323.9726257324219 181.83282470703125 277.293212890625 143.9345703125 C 170.45620727539062 108.22041320800781 173.76426696777344 129.48265075683594 175.96371459960938 84.97441101074219 C 222.84906005859375 18.130727767944336 224.75845336914062 75.17938232421875 304.2452697753906 41.26799774169922 C 282.6629638671875 -10.460451126098633 276.2536315917969 -11.876517295837402 329.5632019042969 92.56062316894531" stroke-width="0.0" fill="rgb(123, 193, 180)" opacity="1.0"/>
    <path d="M 619.1998291015625 350.5107421875 C 623.1141357421875 386.144287109375 645.8269653320312 424.2099609375 595.8536376953125 410.52020263671875 C 501.1868896484375 397.4661560058594 508.1407470703125 400.24481201171875 538.8494873046875 379.2191162109375 C 566.7640991210938 336.13616943359375 580.76513671875 335.5931091308594 599.8857421875 317.0137939453125 C 616.1615600585938 314.0184326171875 614.9443359375 328.16314697265625 619.1998291015625 350.5107421875" stroke-width="0.0" fill="rgb(140, 180, 170)" opacity="0.79404306"/>
    <path d="M 520.3351440429688 428.6180725097656 C 418.7401123046875 430.4137268066406 410.34356689453125 431.4409484863281 407.91082763671875 432.03240966796875 C 410.765869140625 429.7200622558594 390.3113098144531 443.8109436035156 345.8685302734375 438.2356262207031 C 354.810546875 389.431884765625 390.2482604980469 408.5083312988281 434.8405456542969 400.35687255859375 C 461.660888671875 399.1571044921875 483.62701416015625 373.8007507324219 520.3351440429688 428.6180725097656" stroke-width="0.0" fill="rgb(0, 0, 29)" opacity="0.97282904"/>
    <path d="M 302.33453369140625 329.82659912109375 C 259.5084228515625 325.21221923828125 183.25927734375 348.1285400390625 212.72525024414062 314.91339111328125 C 174.41139221191406 307.77056884765625 166.59483337402344 306.9999694824219 162.86839294433594 276.7131652832031 C 156.57147216796875 267.715087890625 161.49285888671875 276.604736328125 262.32025146484375 269.914306640625 C 330.7189636230469 275.21649169921875 233.53170776367188 285.01470947265625 302.33453369140625 329.82659912109375" stroke-width="0.0" fill="rgb(168, 146, 132)" opacity="0.99899775"/>
    <path d="M 587.8916015625 63.360782623291016 C 586.3519287109375 79.00675964355469 582.4107666015625 99.78394317626953 557.9622802734375 122.32447814941406 C 529.6511840820312 124.52459716796875 520.1101684570312 112.09803771972656 512.0140380859375 70.07188415527344 C 536.548095703125 47.155208587646484 541.4976196289062 34.46863555908203 551.8258666992188 39.43570327758789 C 571.926513671875 62.19765090942383 583.2733764648438 66.45089721679688 587.8916015625 63.360782623291016" stroke-width="0.0" fill="rgb(93, 146, 131)" opacity="0.5806224"/>
    <path d="M 354.448974609375 407.2214050292969 C 372.68115234375 416.9823913574219 371.4543762207031 478.2096252441406 288.7196044921875 464.3428039550781 C 328.6604309082031 392.8079833984375 316.8302917480469 457.7906494140625 251.46054077148438 436.0626220703125 C 282.8510437011719 341.2077331542969 275.48291015625 338.6312561035156 323.9109802246094 338.2041015625 C 353.1105041503906 337.8088684082031 354.7210388183594 370.1426086425781 354.448974609375 407.2214050292969" stroke-width="0.0" fill="rgb(8, 0, 8)" opacity="1.0"/>
    <path d="M 408.7952880859375 414.0196838378906 C 402.0860595703125 438.0712890625 398.8458251953125 441.3244934082031 378.04620361328125 416.4352722167969 C 328.9327697753906 433.223388671875 325.9001159667969 457.1202697753906 323.8995056152344 426.5320739746094 C 343.9227294921875 389.9350891113281 358.19195556640625 394.6874084472656 431.6386413574219 384.49517822265625 C 468.7715759277344 380.2718200683594 454.73602294921875 386.2489929199219 408.7952880859375 414.0196838378906" stroke-width="0.0" fill="rgb(2, 4, 36)" opacity="0.5230994"/>
    <path d="M 609.1102905273438 86.2956314086914 C 600.1672973632812 114.96846008300781 607.8831176757812 138.51817321777344 590.3976440429688 229.50946044921875 C 491.2465515136719 192.15304565429688 498.8206787109375 180.3845977783203 516.0595092773438 118.34903717041016 C 560.1863403320312 86.99418640136719 570.6107177734375 80.87577819824219 582.4417724609375 66.0942611694336 C 606.4197998046875 54.304744720458984 615.9691162109375 59.81953811645508 609.1102905273438 86.2956314086914" stroke-width="0.0" fill="rgb(127, 166, 158)" opacity="0.3937556"/>
    <path d="M 181.78883361816406 296.203369140625 C 190.101318359375 316.4193420410156 173.6426239013672 310.9743347167969 159.1988067626953 314.5140380859375 C 141.07742309570312 316.30682373046875 135.0247344970703 316.6376953125 121.48838806152344 297.59393310546875 C 141.5150909423828 285.0854797363281 164.3778533935547 288.39141845703125 173.83651733398438 285.0461730957031 C 174.70761108398438 272.9750061035156 183.9073944091797 289.07275390625 181.78883361816406 296.203369140625" stroke-width="0.0" fill="rgb(134, 161, 157)" opacity="0.9584507"/>
    <path d="M 239.81919860839844 350.6702880859375 C 229.9641571044922 376.54193115234375 240.98788452148438 428.7831726074219 187.6903076171875 406.8829040527344 C 216.27540588378906 392.46087646484375 201.27838134765625 361.7648620605469 183.92864990234375 349.84478759765625 C 175.48358154296875 337.9306335449219 187.14199829101562 330.7317199707031 215.57064819335938 335.4364318847656 C 232.83206176757812 331.5541076660156 250.5813446044922 331.1758728027344 239.81919860839844 350.6702880859375" stroke-width="0.0" fill="rgb(252, 229, 225)" opacity="0.40068325"/>
    <path d="M 274.72344970703125 268.91424560546875 C 195.1996307373047 324.2698974609375 177.71847534179688 317.61883544921875 124.29576110839844 322.96575927734375 C 100.52392578125 334.23150634765625 97.46053314208984 326.00823974609375 105.3165283203125 282.9233093261719 C 121.99758911132812 263.143798828125 127.50751495361328 261.33880615234375 131.83609008789062 263.7020568847656 C 161.48585510253906 266.485107421875 184.5062255859375 264.6708984375 274.72344970703125 268.91424560546875" stroke-width="0.0" fill="rgb(156, 188, 175)" opacity="0.99917114"/>
    <path d="M 481.0167236328125 276.8435363769531 C 493.36846923828125 276.5607604980469 436.35284423828125 266.7631530761719 346.6701965332031 275.5378112792969 C 304.7795104980469 269.59521484375 339.9091491699219 308.6780090332031 327.8332824707031 187.13107299804688 C 299.3116760253906 175.19932556152344 353.7012634277344 163.28225708007812 367.4519348144531 173.31304931640625 C 440.4251708984375 186.61622619628906 428.3498229980469 179.05709838867188 481.0167236328125 276.8435363769531" stroke-width="0.0" fill="rgb(7, 21, 40)" opacity="0.72737795"/>
    <path d="M 545.9733276367188 80.8230972290039 C 546.2330322265625 108.47529602050781 543.1959838867188 127.90596771240234 530.9898071289062 135.57041931152344 C 484.2378234863281 112.55199432373047 479.0459899902344 120.63630676269531 488.0370178222656 71.49689483642578 C 463.1761169433594 51.518985748291016 458.346435546875 25.711341857910156 499.5028076171875 15.253630638122559 C 563.925048828125 15.191084861755371 564.2151489257812 39.240962982177734 545.9733276367188 80.8230972290039" stroke-width="0.0" fill="rgb(96, 153, 133)" opacity="0.76374394"/>
    <path d="M 341.98785400390625 210.1442108154297 C 308.8293151855469 262.6787414550781 322.2486572265625 257.4508056640625 293.4543151855469 270.0088195800781 C 239.07583618164062 257.059814453125 216.5465850830078 285.53021240234375 264.6286315917969 226.94366455078125 C 276.2161865234375 278.7973937988281 268.095458984375 194.21839904785156 248.67642211914062 220.49732971191406 C 329.46563720703125 122.57849884033203 315.8112487792969 143.885498046875 341.98785400390625 210.1442108154297" stroke-width="0.0" fill="rgb(58, 70, 89)" opacity="0.974294"/>
    <path d="M 154.2071990966797 269.3518371582031 C 146.386474609375 303.50189208984375 148.2888946533203 326.1595458984375 96.27716827392578 346.4716796875 C 1.4663381576538086 359.9134216308594 113.22342681884766 308.18365478515625 -15.819896697998047 325.1138916015625 C 98.2782974243164 262.4698181152344 94.38632202148438 261.2099609375 118.84217071533203 271.99700927734375 C 114.12014770507812 259.3414001464844 150.9846649169922 256.5040588378906 154.2071990966797 269.3518371582031" stroke-width="0.0" fill="rgb(214, 168, 161)" opacity="0.6357448"/>
    <path d="M 232.6736602783203 497.6505432128906 C 101.5870590209961 553.8262939453125 81.77426147460938 548.2536010742188 16.094202041625977 613.5171508789062 C -5.15277099609375 583.7356567382812 -4.674270153045654 561.1804809570312 -28.494657516479492 513.9599609375 C -23.47211456298828 469.6348571777344 -23.43925666809082 455.823486328125 17.963560104370117 478.8080139160156 C 90.2613525390625 487.762451171875 139.46957397460938 437.1420593261719 232.6736602783203 497.6505432128906" stroke-width="0.0" fill="rgb(138, 177, 167)" opacity="0.78482753"/>
    <path d="M 594.5938720703125 48.65955352783203 C 572.0267333984375 65.2044677734375 568.4935913085938 91.4242172241211 556.2781982421875 101.44429016113281 C 556.2352905273438 100.20530700683594 563.9760131835938 90.12495422363281 569.770751953125 85.09856414794922 C 569.4339599609375 77.5396499633789 566.8330078125 48.48603439331055 565.8671264648438 46.61710739135742 C 575.722412109375 54.6653938293457 603.8746337890625 53.1349983215332 594.5938720703125 48.65955352783203" stroke-width="0.0" fill="rgb(95, 146, 127)" opacity="0.82769686"/>
    <path d="M 217.08139038085938 306.6330871582031 C 190.17161560058594 334.4884948730469 182.12100219726562 343.1855773925781 170.26620483398438 376.6701965332031 C 114.38658905029297 356.8819274902344 67.04886627197266 357.01361083984375 82.61592864990234 342.71624755859375 C 140.7751007080078 296.47625732421875 161.4506378173828 295.8053894042969 171.22744750976562 299.6937255859375 C 180.19195556640625 292.81787109375 196.6027374267578 292.27203369140625 217.08139038085938 306.6330871582031" stroke-width="0.0" fill="rgb(140, 185, 162)" opacity="1.0"/>
    <path d="M 383.26800537109375 214.92095947265625 C 388.8796081542969 258.78692626953125 398.4415588378906 269.9458312988281 342.727294921875 267.1284484863281 C 352.75103759765625 297.88787841796875 352.1342468261719 273.3522644042969 343.0448913574219 255.57989501953125 C 345.5581970214844 228.05160522460938 352.4085693359375 209.09764099121094 365.1462707519531 207.85916137695312 C 409.5235900878906 205.86264038085938 412.292724609375 219.88182067871094 383.26800537109375 214.92095947265625" stroke-width="0.0" fill="rgb(29, 22, 46)" opacity="0.9043144"/>
    <path d="M 30.090702056884766 352.4207763671875 C 52.087364196777344 369.52581787109375 22.190393447875977 338.45361328125 24.753826141357422 375.6309509277344 C 9.93340015411377 380.910888671875 19.40203285217285 332.0039978027344 17.93463897705078 358.831787109375 C 14.455227851867676 335.2173767089844 3.397202253341675 311.12091064453125 24.066036224365234 310.6578369140625 C 90.9771499633789 330.5697021484375 4.3694329261779785 315.2521667480469 30.090702056884766 352.4207763671875" stroke-width="0.0" fill="rgb(47, 46, 60)" opacity="0.6318929"/>
    <path d="M 231.99490356445312 349.8727111816406 C 229.7061309814453 351.6831359863281 224.60484313964844 364.47796630859375 225.3826446533203 370.0175476074219 C 208.14752197265625 372.03472900390625 192.66241455078125 369.1384582519531 194.9659423828125 343.3278503417969 C 194.0742950439453 332.38311767578125 206.18968200683594 318.61895751953125 217.8876190185547 323.8992004394531 C 237.06336975097656 330.54443359375 242.47735595703125 342.1758728027344 231.99490356445312 349.8727111816406" stroke-width="0.0" fill="rgb(254, 206, 62)" opacity="0.9891828"/>
    <path d="M 176.88034057617188 242.9873809814453 C 172.12838745117188 246.27545166015625 165.0863800048828 257.5032958984375 144.42617797851562 262.0971374511719 C 127.98087310791016 260.8750305175781 124.07554626464844 262.65509033203125 143.6320343017578 239.8385772705078 C 148.42739868164062 268.0964660644531 150.8313446044922 231.49041748046875 170.3555145263672 232.5108642578125 C 145.96875 223.46343994140625 203.4761199951172 186.9163818359375 176.88034057617188 242.9873809814453" stroke-width="0.0" fill="rgb(189, 195, 205)" opacity="0.9003698"/>
    <path d="M 529.9305419921875 342.76678466796875 C 499.8535461425781 354.998779296875 485.4880676269531 356.7336730957031 485.1607360839844 372.8047180175781 C 459.7791442871094 387.90850830078125 446.9040832519531 388.8204040527344 458.1291809082031 355.2158508300781 C 463.45855712890625 327.05706787109375 474.8565368652344 321.366455078125 468.806640625 337.850830078125 C 490.55438232421875 323.42242431640625 530.3617553710938 312.4120788574219 529.9305419921875 342.76678466796875" stroke-width="0.0" fill="rgb(59, 47, 51)" opacity="0.8581239"/>
    <path d="M 472.2989196777344 292.0767822265625 C 427.50457763671875 236.72181701660156 457.80902099609375 243.9110565185547 407.41693115234375 254.44285583496094 C 397.2039794921875 259.7398986816406 407.7890319824219 265.41387939453125 402.4432373046875 213.6824493408203 C 384.22943115234375 226.36769104003906 405.2659912109375 234.3356170654297 391.71893310546875 209.99075317382812 C 437.5257568359375 211.0210418701172 439.7696228027344 215.69253540039062 472.2989196777344 292.0767822265625" stroke-width="0.0" fill="rgb(6, 28, 41)" opacity="0.5092353"/>
    <path d="M 254.22549438476562 147.48440551757812 C 257.6255187988281 181.20680236816406 260.82305908203125 159.98104858398438 208.60116577148438 170.3489990234375 C 200.7205352783203 167.9133758544922 176.36294555664062 182.1324462890625 165.55282592773438 152.59231567382812 C 216.9964141845703 151.9815216064453 232.8842010498047 136.8968048095703 199.16424560546875 170.60317993164062 C 226.783447265625 145.1219024658203 274.3575744628906 141.74827575683594 254.22549438476562 147.48440551757812" stroke-width="0.0" fill="rgb(12, 9, 32)" opacity="0.8348949"/>
    <path d="M 533.3834228515625 375.8082580566406 C 533.0603637695312 374.0362854003906 538.716552734375 404.0039367675781 514.8068237304688 425.4716491699219 C 472.01995849609375 414.8372497558594 464.31658935546875 405.1885986328125 475.33868408203125 364.322265625 C 480.9534606933594 350.8531799316406 492.5365905761719 337.76385498046875 517.8699340820312 330.9527587890625 C 535.8434448242188 337.501953125 528.44091796875 348.3049621582031 533.3834228515625 375.8082580566406" stroke-width="0.0" fill="rgb(8, 0, 9)" opacity="0.99718505"/>
    <path d="M 408.2589111328125 234.81857299804688 C 404.6399841308594 249.70123291015625 416.2784423828125 260.2081298828125 384.6812438964844 266.7774658203125 C 387.4555358886719 260.0255126953125 390.36865234375 244.370361328125 380.1352844238281 222.32000732421875 C 376.7723083496094 222.47218322753906 372.5572814941406 212.2511749267578 375.56561279296875 200.5077362060547 C 429.95050048828125 202.20811462402344 437.4306945800781 214.8498992919922 408.2589111328125 234.81857299804688" stroke-width="0.0" fill="rgb(17, 10, 55)" opacity="0.5010559"/>
    <path d="M 509.65740966796875 340.21575927734375 C 467.790771484375 394.7486267089844 521.2279052734375 433.55780029296875 458.893310546875 431.4794921875 C 455.2915344238281 362.50054931640625 478.21270751953125 349.89227294921875 464.47015380859375 364.2498779296875 C 471.93280029296875 352.9263000488281 472.05743408203125 341.1361999511719 485.1067810058594 331.5908203125 C 507.9516296386719 325.459228515625 525.0355834960938 326.21527099609375 509.65740966796875 340.21575927734375" stroke-width="0.0" fill="rgb(5, 0, 17)" opacity="0.9453437"/>
    <path d="M 522.0807495117188 396.42486572265625 C 494.43658447265625 378.8143615722656 515.5459594726562 383.02569580078125 522.3712158203125 379.8039855957031 C 498.204833984375 370.9795837402344 489.11968994140625 363.2539978027344 490.9383850097656 364.5099182128906 C 499.66424560546875 344.00030517578125 502.53131103515625 337.6124267578125 525.8099365234375 325.2850341796875 C 534.15576171875 356.52777099609375 548.5631103515625 357.5610046386719 522.0807495117188 396.42486572265625" stroke-width="0.0" fill="rgb(0, 0, 7)" opacity="0.8117183"/>
    <path d="M 120.4569091796875 439.1645202636719 C 117.4115219116211 457.15380859375 119.51245880126953 440.5465087890625 100.03582763671875 433.1075134277344 C 112.82657623291016 431.494140625 99.23429107666016 441.77288818359375 36.593475341796875 414.10430908203125 C 117.11141204833984 436.3896789550781 137.44564819335938 443.7320556640625 197.22312927246094 461.626220703125 C 117.32402801513672 444.015869140625 116.89573669433594 437.0865173339844 120.4569091796875 439.1645202636719" stroke-width="0.0" fill="rgb(117, 169, 123)" opacity="0.32520753"/>
    <path d="M 300.6928405761719 181.15048217773438 C 289.94879150390625 163.75802612304688 285.6681823730469 174.19717407226562 303.8816833496094 155.21722412109375 C 284.6891174316406 158.07192993164062 254.3359832763672 168.1026611328125 207.31399536132812 161.52069091796875 C 226.41954040527344 135.0965118408203 262.1440124511719 135.69517517089844 276.2586669921875 153.18252563476562 C 299.5135803222656 155.03001403808594 306.3299255371094 173.89796447753906 300.6928405761719 181.15048217773438" stroke-width="0.0" fill="rgb(67, 37, 53)" opacity="0.89237744"/>
    <path d="M 545.1785888671875 108.01219940185547 C 534.769287109375 117.8829116821289 513.1364135742188 120.45893096923828 511.9322509765625 110.1568832397461 C 492.6710510253906 105.40338134765625 491.3670654296875 84.45268249511719 497.00262451171875 74.42107391357422 C 499.8862609863281 85.7226333618164 499.2615966796875 72.62132263183594 500.3148193359375 52.069313049316406 C 531.6751098632812 70.4352035522461 547.0946044921875 78.35425567626953 545.1785888671875 108.01219940185547" stroke-width="0.0" fill="rgb(110, 155, 145)" opacity="0.30638874"/>
    <path d="M 20.154277801513672 0.2796582579612732 C 17.47478485107422 10.279658317565918 10.154277801513672 17.60016441345215 0.15427754819393158 20.2796573638916 C -9.845722198486328 17.60016441345215 -17.166229248046875 10.279658317565918 -19.845722198486328 0.2796582579612732 C -17.166229248046875 -9.720341682434082 -9.845722198486328 -17.040849685668945 0.15427754819393158 -19.7203426361084 C 10.154277801513672 -17.040849685668945 17.47478485107422 -9.720341682434082 20.154277801513672 0.2796582579612732" stroke-width="0.0" fill="rgb(148, 246, 225)" opacity="0.7415042" stroke="rgb(147, 9, 102)" stroke-opacity="0.16307528" stroke-linecap="round" stroke-linejoin="round"/>
    <path d="M 217.32456970214844 337.8013916015625 C 255.44068908691406 377.9525146484375 228.10821533203125 380.45086669921875 203.55545043945312 369.40814208984375 C 200.3027801513672 354.4981994628906 184.1621856689453 343.7342834472656 184.48797607421875 327.4142150878906 C 196.6603240966797 358.6967468261719 194.93020629882812 325.0002136230469 219.72666931152344 328.10772705078125 C 167.1548614501953 307.5352478027344 208.29266357421875 382.4725341796875 217.32456970214844 337.8013916015625" stroke-width="0.0" fill="rgb(181, 103, 25)" opacity="0.4499612"/>
    <path d="M 47.29035186767578 336.7982482910156 C 41.52753448486328 340.1673278808594 35.450252532958984 355.73419189453125 28.886079788208008 349.1755065917969 C 36.91883850097656 351.4314270019531 32.19426727294922 343.39556884765625 23.347637176513672 322.48974609375 C 25.729124069213867 357.3381042480469 24.893709182739258 318.76068115234375 40.95976257324219 311.8155212402344 C 48.42945098876953 316.2554626464844 52.01113510131836 324.0072021484375 47.29035186767578 336.7982482910156" stroke-width="0.0" fill="rgb(255, 230, 58)" opacity="0.98461765"/>
    <path d="M 263.3446960449219 173.12200927734375 C 269.43817138671875 204.88636779785156 251.3388214111328 205.6801300048828 231.92129516601562 197.89527893066406 C 215.08468627929688 208.24757385253906 216.61512756347656 214.655517578125 208.0387725830078 195.1778106689453 C 222.40676879882812 179.23817443847656 228.47756958007812 185.375244140625 227.81668090820312 176.192138671875 C 283.0195007324219 176.77587890625 324.3717956542969 176.429443359375 263.3446960449219 173.12200927734375" stroke-width="0.0" fill="rgb(57, 23, 55)" opacity="0.753078"/>
    <path d="M 272.95489501953125 237.74984741210938 C 274.9796142578125 221.72677612304688 288.2586364746094 235.59799194335938 275.72088623046875 247.76112365722656 C 263.65411376953125 230.6049346923828 273.72674560546875 249.92156982421875 240.64259338378906 248.14109802246094 C 245.0780487060547 221.67636108398438 254.94180297851562 226.8466033935547 281.63531494140625 220.14942932128906 C 266.2088623046875 217.95111083984375 279.1689758300781 218.22622680664062 272.95489501953125 237.74984741210938" stroke-width="0.0" fill="rgb(171, 204, 209)" opacity="0.75332713"/>
    <path d="M 235.743896484375 341.2026672363281 C 232.81826782226562 359.6075134277344 226.56259155273438 368.2230529785156 217.38510131835938 351.324951171875 C 218.29251098632812 337.926513671875 196.5509490966797 345.1169128417969 193.30650329589844 359.92724609375 C 199.77635192871094 337.19097900390625 209.82777404785156 327.41131591796875 219.04519653320312 326.8494873046875 C 212.7381134033203 325.6917419433594 229.71987915039062 330.516845703125 235.743896484375 341.2026672363281" stroke-width="0.0" fill="rgb(251, 247, 57)" opacity="0.9472126"/>
    <path d="M 353.6153259277344 188.9787139892578 C 359.95672607421875 185.5250701904297 357.2032165527344 208.9539337158203 350.5384826660156 207.65093994140625 C 363.6517028808594 196.8377685546875 350.81207275390625 196.66629028320312 320.1724853515625 199.1800994873047 C 327.3440246582031 174.06385803222656 326.1402893066406 189.71542358398438 341.3142395019531 194.02969360351562 C 349.968994140625 187.16680908203125 340.22723388671875 208.86837768554688 353.6153259277344 188.9787139892578" stroke-width="0.0" fill="rgb(24, 36, 10)" opacity="0.70970935"/>
    <path d="M 308.0736999511719 263.20440673828125 C 324.4647521972656 284.5742492675781 312.6571044921875 279.33453369140625 327.8802490234375 250.82472229003906 C 314.0530090332031 248.87704467773438 310.16998291015625 244.89669799804688 267.84075927734375 251.39614868164062 C 263.8651123046875 214.651611328125 299.28985595703125 225.77342224121094 263.2367858886719 225.12234497070312 C 340.7254333496094 202.02220153808594 339.79437255859375 240.06137084960938 308.0736999511719 263.20440673828125" stroke-width="0.0" fill="rgb(214, 255, 237)" opacity="0.21987031"/>
    <path d="M 338.4811706542969 182.2880859375 C 336.7994079589844 155.5980987548828 327.9294128417969 171.6457061767578 346.7220764160156 220.2829132080078 C 316.9140625 216.3785400390625 312.86968994140625 196.37554931640625 328.06146240234375 164.38131713867188 C 335.67449951171875 150.14695739746094 315.5081481933594 147.16102600097656 355.3164978027344 152.9322509765625 C 353.6305847167969 149.8273162841797 349.5646057128906 177.83767700195312 338.4811706542969 182.2880859375" stroke-width="0.0" fill="rgb(61, 50, 38)" opacity="0.83151495"/>
    <path d="M 45.993743896484375 404.834716796875 C 50.95842361450195 398.15020751953125 94.05384826660156 460.07928466796875 128.21896362304688 395.3072204589844 C 24.48682975769043 386.94000244140625 13.871575355529785 396.9613037109375 36.00126266479492 393.999755859375 C 41.85499572753906 391.84246826171875 64.06460571289062 411.0146484375 44.77647399902344 399.1305847167969 C 44.4605712890625 392.11981201171875 53.044898986816406 401.52301025390625 45.993743896484375 404.834716796875" stroke-width="0.0" fill="rgb(6, 0, 15)" opacity="0.91115266"/>
    <path d="M 306.564208984375 190.6763458251953 C 255.70254516601562 214.3352508544922 248.87754821777344 223.80364990234375 228.85279846191406 219.2098388671875 C 207.09117126464844 212.7837371826172 199.87802124023438 213.8935546875 210.37765502929688 216.02951049804688 C 204.751953125 179.99974060058594 221.54547119140625 183.67886352539062 236.0621795654297 184.3414764404297 C 250.5670623779297 178.41253662109375 276.327392578125 178.7717742919922 306.564208984375 190.6763458251953" stroke-width="0.0" fill="rgb(5, 3, 48)" opacity="0.8447556"/>
    <path d="M 342.9893493652344 224.19798278808594 C 350.5467224121094 211.82296752929688 343.1998291015625 200.98838806152344 356.38671875 194.66778564453125 C 357.58502197265625 189.762451171875 350.1678771972656 190.95535278320312 321.7599182128906 192.27549743652344 C 339.490966796875 179.9603271484375 352.2891845703125 181.52099609375 342.30511474609375 178.10916137695312 C 331.98828125 190.5296173095703 336.94195556640625 201.65040588378906 342.9893493652344 224.19798278808594" stroke-width="0.0" fill="rgb(91, 114, 33)" opacity="0.50305843"/>
    <path d="M 220.91204833984375 356.343505859375 C 222.45257568359375 349.2308654785156 236.27020263671875 351.7767028808594 225.90188598632812 366.4007263183594 C 224.81137084960938 366.2474060058594 207.9078369140625 361.0751953125 204.32984924316406 342.4735107421875 C 195.2687225341797 333.5068664550781 207.47586059570312 328.3751220703125 217.6124267578125 327.282470703125 C 238.29058837890625 341.1058654785156 227.26783752441406 364.5459899902344 220.91204833984375 356.343505859375" stroke-width="0.0" fill="rgb(248, 248, 228)" opacity="0.9317436"/>
    <path d="M 35.58795928955078 395.35235595703125 C 50.2552490234375 389.4608459472656 51.507301330566406 391.3251953125 30.333696365356445 388.489990234375 C 23.685564041137695 391.1564636230469 24.266498565673828 391.4611511230469 31.053850173950195 351.333251953125 C 3.5329532623291016 347.44500732421875 1.3237046003341675 369.4617004394531 46.595008850097656 391.430908203125 C 39.09685516357422 377.9527893066406 51.29364013671875 358.7130126953125 35.58795928955078 395.35235595703125" stroke-width="0.0" fill="rgb(108, 119, 94)" opacity="0.74889934"/>
    <path d="M 51.12619400024414 394.3352966308594 C 52.37517166137695 395.5377197265625 55.75830078125 400.8405456542969 32.51148223876953 413.90069580078125 C 28.74246597290039 384.4491271972656 21.12636375427246 395.9542541503906 18.20940399169922 366.67144775390625 C 15.934830665588379 377.35546875 25.97955322265625 377.3343505859375 49.21083450317383 378.4259338378906 C 44.00020217895508 364.1705627441406 67.26770782470703 380.8828430175781 51.12619400024414 394.3352966308594" stroke-width="0.0" fill="rgb(65, 53, 48)" opacity="0.5078054"/>
    <path d="M 361.8291015625 -9.64063835144043 C 348.704833984375 30.86823844909668 352.0562744140625 23.880693435668945 323.5889892578125 35.476566314697266 C 294.9129943847656 45.28221130371094 287.986328125 33.548919677734375 281.77972412109375 10.746158599853516 C 307.9126892089844 -3.1127583980560303 313.6479187011719 -10.85170841217041 319.74554443359375 -19.590717315673828 C 343.4983825683594 -28.126750946044922 352.5718994140625 -23.885923385620117 361.8291015625 -9.64063835144043" stroke-width="0.0" fill="rgb(116, 164, 161)" opacity="0.44562238"/>
    <path d="M 327.78790283203125 219.3587188720703 C 333.07659912109375 217.60675048828125 304.6407470703125 214.2689971923828 298.3580017089844 207.96755981445312 C 283.2985534667969 210.68692016601562 264.74127197265625 202.32101440429688 260.3769226074219 201.2317657470703 C 278.0859069824219 180.20101928710938 288.7592468261719 179.19131469726562 299.818603515625 181.49395751953125 C 322.3481750488281 190.8651580810547 339.2292785644531 178.78152465820312 327.78790283203125 219.3587188720703" stroke-width="0.0" fill="rgb(12, 19, 56)" opacity="0.85839117"/>
    <path d="M 289.5133056640625 227.1865997314453 C 251.72303771972656 228.97311401367188 269.382568359375 214.6553192138672 274.3857421875 238.33726501464844 C 282.08038330078125 212.61927795410156 278.1208190917969 220.5210418701172 259.2269592285156 237.3994598388672 C 274.368408203125 244.52635192871094 281.24139404296875 241.7449188232422 251.2031707763672 244.39401245117188 C 252.29600524902344 231.0379638671875 264.2783508300781 239.10704040527344 289.5133056640625 227.1865997314453" stroke-width="0.0" fill="rgb(180, 222, 225)" opacity="0.47020942"/>
    <path d="M 174.68870544433594 233.1411895751953 C 160.01968383789062 234.5110626220703 152.19961547851562 231.96829223632812 172.3633270263672 216.79762268066406 C 178.45565795898438 234.28610229492188 129.38751220703125 241.9408416748047 132.96954345703125 252.3822479248047 C 150.24252319335938 229.32003784179688 171.20321655273438 221.61192321777344 176.5501251220703 212.62249755859375 C 170.79165649414062 229.60227966308594 169.6637420654297 226.8075714111328 174.68870544433594 233.1411895751953" stroke-width="0.0" fill="rgb(64, 89, 66)" opacity="0.5521555"/>
    <path d="M 20.207380294799805 0.9640901684761047 C 17.52788734436035 10.964090347290039 10.207380294799805 18.284597396850586 0.2073800414800644 20.96409034729004 C -9.792619705200195 18.284597396850586 -17.113126754760742 10.964090347290039 -19.792619705200195 0.9640901684761047 C -17.113126754760742 -9.035909652709961 -9.792619705200195 -16.356416702270508 0.2073800414800644 -19.03590965270996 C 10.207380294799805 -16.356416702270508 17.52788734436035 -9.035909652709961 20.207380294799805 0.9640901684761047" stroke-width="0.0" fill="rgb(70, 21, 230)" opacity="0.95101136" stroke="rgb(248, 131, 51)" stroke-opacity="0.39669302" stroke-linecap="round" stroke-linejoin="round"/>
    <path d="M 215.11444091796875 187.30885314941406 C 198.415283203125 191.4038543701172 209.86131286621094 200.5065460205078 196.448974609375 179.39920043945312 C 213.49139404296875 187.9737548828125 210.39071655273438 169.34710693359375 184.1931610107422 171.07666015625 C 200.33453369140625 161.68846130371094 207.5729522705078 192.3969268798828 201.0957489013672 177.73101806640625 C 201.1995849609375 194.0238800048828 195.31040954589844 182.21438598632812 215.11444091796875 187.30885314941406" stroke-width="0.0" fill="rgb(81, 82, 82)" opacity="0.546463"/>
    <path d="M 327.0859375 246.2159423828125 C 340.3193054199219 284.97674560546875 344.3437805175781 292.9457702636719 325.6396484375 283.69677734375 C 326.2128601074219 271.3502197265625 329.6085205078125 299.7634582519531 259.1426696777344 291.5265808105469 C 337.1001892089844 259.2622985839844 342.00189208984375 293.5516662597656 344.2159729003906 220.97080993652344 C 333.9920654296875 190.56690979003906 326.3042907714844 213.5008087158203 327.0859375 246.2159423828125" stroke-width="0.0" fill="rgb(83, 141, 110)" opacity="0.43308172"/>
    <path d="M 407.7835693359375 249.3740997314453 C 408.6029052734375 251.79434204101562 399.42694091796875 238.8144989013672 403.2283935546875 219.1086883544922 C 391.47900390625 231.52633666992188 400.449951171875 223.39004516601562 396.5489807128906 230.3658905029297 C 400.3296203613281 234.50341796875 410.7457580566406 240.20828247070312 404.0245056152344 239.96726989746094 C 405.3648376464844 225.48947143554688 420.9903564453125 241.3890380859375 407.7835693359375 249.3740997314453" stroke-width="0.0" fill="rgb(149, 186, 217)" opacity="0.8002031"/>
    <path d="M 50.94133758544922 320.7654724121094 C 49.174224853515625 327.4128723144531 32.95970153808594 321.6069030761719 52.33241271972656 342.33831787109375 C 41.8330078125 329.3003234863281 10.32530403137207 299.95697021484375 14.68083667755127 352.0700988769531 C 55.33250045776367 380.5991516113281 7.505129337310791 338.6552429199219 24.888790130615234 327.5037841796875 C 17.7076473236084 333.0166320800781 10.576272964477539 327.05462646484375 50.94133758544922 320.7654724121094" stroke-width="0.0" fill="rgb(231, 124, 16)" opacity="0.5179646"/>
    <path d="M 274.0433349609375 335.1111145019531 C 263.8665771484375 419.75958251953125 258.8845520019531 376.73828125 261.7712707519531 409.26678466796875 C 200.57565307617188 416.1114501953125 193.43287658691406 408.9695129394531 196.02066040039062 379.68701171875 C 227.6857452392578 381.1405944824219 206.7764129638672 356.61383056640625 234.79458618164062 367.1790466308594 C 250.3749542236328 371.69036865234375 260.36932373046875 304.4981689453125 274.0433349609375 335.1111145019531" stroke-width="0.0" fill="rgb(35, 93, 91)" opacity="0.6058001"/>
    <path d="M 78.54557800292969 354.6168212890625 C 74.5403060913086 353.3760070800781 69.7143325805664 371.85260009765625 73.02220153808594 403.3737487792969 C 70.66663360595703 374.4049377441406 67.7439956665039 357.80584716796875 65.67871856689453 336.0744323730469 C 71.69366455078125 355.1462707519531 62.93605422973633 344.786376953125 86.34040069580078 351.31805419921875 C 73.4747314453125 353.3044738769531 79.39644622802734 361.91058349609375 78.54557800292969 354.6168212890625" stroke-width="0.0" fill="rgb(64, 23, 81)" opacity="0.514925"/>
    <path d="M 20.477035522460938 0.7585279941558838 C 17.797542572021484 10.758527755737305 10.477034568786621 18.07903480529785 0.47703468799591064 20.758527755737305 C -9.522965431213379 18.07903480529785 -16.84347152709961 10.758527755737305 -19.522964477539062 0.7585279941558838 C -16.84347152709961 -9.241472244262695 -9.522965431213379 -16.561979293823242 0.47703468799591064 -19.241472244262695 C 10.477034568786621 -16.561979293823242 17.797542572021484 -9.241472244262695 20.477035522460938 0.7585279941558838" stroke-width="0.0" fill="rgb(135, 91, 65)" opacity="0.7426194" stroke="rgb(42, 178, 78)" stroke-opacity="0.5083862" stroke-linecap="round" stroke-linejoin="round"/>
    <path d="M 291.6757507324219 401.0091857910156 C 290.9546813964844 371.5543212890625 278.33953857421875 399.97491455078125 281.5824279785156 438.495361328125 C 289.981201171875 391.9800720214844 278.5223388671875 388.2349548339844 298.2475280761719 369.4318542480469 C 290.2706604003906 382.7514953613281 297.2281188964844 356.7286376953125 319.6175842285156 349.5711364746094 C 290.5610656738281 346.03814697265625 290.2811584472656 382.1101989746094 291.6757507324219 401.0091857910156" stroke-width="0.0" fill="rgb(43, 0, 46)" opacity="0.53087676"/>
    <path d="M 20.534683227539062 0.23952467739582062 C 17.85519027709961 10.239524841308594 10.534683227539062 17.56003189086914 0.5346834063529968 20.239524841308594 C -9.465316772460938 17.56003189086914 -16.785823822021484 10.239524841308594 -19.465316772460938 0.23952467739582062 C -16.785823822021484 -9.760475158691406 -9.465316772460938 -17.080982208251953 0.5346834063529968 -19.760475158691406 C 10.534683227539062 -17.080982208251953 17.85519027709961 -9.760475158691406 20.534683227539062 0.23952467739582062" stroke-width="0.0" fill="rgb(211, 154, 57)" opacity="0.92899436" stroke="rgb(143, 40, 60)" stroke-opacity="0.8156265" stroke-linecap="round" stroke-linejoin="round"/>
    <path d="M 343.6921691894531 302.7410583496094 C 321.5303649902344 306.0785217285156 303.3659362792969 304.660888671875 297.61920166015625 289.8904113769531 C 305.8687438964844 288.2515563964844 323.8446350097656 277.0806884765625 288.3875427246094 272.8532409667969 C 316.2459716796875 286.31207275390625 320.0370178222656 285.6391296386719 305.75714111328125 275.0736389160156 C 324.0279235839844 271.5801696777344 334.76190185546875 267.1546325683594 343.6921691894531 302.7410583496094" stroke-width="0.0" fill="rgb(42, 80, 72)" opacity="0.9124824"/>
    <path d="M 226.2023162841797 208.61627197265625 C 176.51988220214844 214.5467529296875 171.92288208007812 224.53179931640625 162.12615966796875 230.0711669921875 C 203.34556579589844 212.7187042236328 146.08091735839844 224.70477294921875 137.51986694335938 226.1857147216797 C 158.27197265625 225.4453125 160.5507354736328 196.9889373779297 205.12210083007812 196.16835021972656 C 169.98764038085938 183.06105041503906 178.37030029296875 223.517333984375 226.2023162841797 208.61627197265625" stroke-width="0.0" fill="rgb(54, 39, 88)" opacity="0.9800924"/>
    <path d="M 166.6444854736328 192.7346954345703 C 162.9539031982422 195.1891326904297 143.5640411376953 201.3507843017578 162.66493225097656 204.20848083496094 C 175.8766326904297 195.42507934570312 141.75064086914062 192.76068115234375 145.88059997558594 203.9918975830078 C 155.1166229248047 206.22523498535156 170.23081970214844 202.97817993164062 167.3925323486328 195.81704711914062 C 156.10287475585938 190.77261352539062 168.75198364257812 194.16921997070312 166.6444854736328 192.7346954345703" stroke-width="0.0" fill="rgb(125, 187, 128)" opacity="0.61248267"/>
    <path d="M 441.05047607421875 231.06605529785156 C 444.5848693847656 266.49456787109375 431.841796875 257.09478759765625 431.6927795410156 230.66299438476562 C 389.4976806640625 237.18435668945312 387.307373046875 236.44398498535156 386.66778564453125 223.57150268554688 C 374.2635803222656 203.13275146484375 368.1116027832031 209.20166015625 427.6737365722656 211.8584747314453 C 418.37982177734375 208.05967712402344 436.7633361816406 213.35260009765625 441.05047607421875 231.06605529785156" stroke-width="0.0" fill="rgb(14, 8, 41)" opacity="0.6230172"/>
    <path d="M 194.66064453125 408.9406433105469 C 128.0912322998047 417.1383361816406 101.71084594726562 420.5498962402344 107.93074035644531 425.2597351074219 C 109.70382690429688 420.50177001953125 116.84636688232422 412.35919189453125 126.14541625976562 416.90283203125 C 122.61905670166016 427.48980712890625 119.15483093261719 406.5136413574219 124.35704040527344 407.4425354003906 C 112.43292999267578 408.51220703125 114.27915954589844 404.73577880859375 194.66064453125 408.9406433105469" stroke-width="0.0" fill="rgb(66, 51, 61)" opacity="0.2985032"/>
    <path d="M 20.580244064331055 0.15829190611839294 C 17.9007511138916 10.158291816711426 10.580244064331055 17.47879981994629 0.5802444815635681 20.158292770385742 C -9.419755935668945 17.47879981994629 -16.740262985229492 10.158291816711426 -19.419755935668945 0.15829190611839294 C -16.740262985229492 -9.841708183288574 -9.419755935668945 -17.162214279174805 0.5802444815635681 -19.841707229614258 C 10.580244064331055 -17.162214279174805 17.9007511138916 -9.841708183288574 20.580244064331055 0.15829190611839294" stroke-width="0.0" fill="rgb(217, 37, 185)" opacity="0.9156266" stroke="rgb(242, 193, 151)" stroke-opacity="0.82521373" stroke-linecap="round" stroke-linejoin="round"/>
    <path d="M 336.4219970703125 396.248291015625 C 331.5556335449219 411.4844055175781 341.51171875 447.1861877441406 305.8553771972656 431.2041931152344 C 338.47564697265625 439.8597412109375 330.8312683105469 415.6787414550781 333.9761657714844 402.60760498046875 C 334.84271240234375 424.6737976074219 372.3743591308594 398.2696533203125 348.82080078125 332.4500732421875 C 360.02618408203125 416.4476013183594 349.6535949707031 433.31036376953125 336.4219970703125 396.248291015625" stroke-width="0.0" fill="rgb(115, 56, 76)" opacity="0.8112613"/>
    <path d="M 188.93235778808594 376.8731994628906 C 200.8335723876953 371.9549255371094 181.47434997558594 397.05035400390625 185.73336791992188 392.028076171875 C 174.69561767578125 386.64605712890625 179.1190643310547 367.7472839355469 185.5696563720703 363.5257263183594 C 186.3365478515625 379.2388916015625 189.32322692871094 380.945068359375 174.68101501464844 368.2869873046875 C 222.4339141845703 367.0119934082031 212.98245239257812 390.26141357421875 188.93235778808594 376.8731994628906" stroke-width="0.0" fill="rgb(143, 127, 82)" opacity="0.7624383"/>
    <path d="M 211.73390197753906 164.17689514160156 C 216.65524291992188 178.54473876953125 214.43385314941406 173.37442016601562 225.7401580810547 155.35870361328125 C 214.4112548828125 150.48085021972656 212.4718780517578 153.3363037109375 176.68055725097656 159.6896514892578 C 173.0172576904297 147.7896728515625 188.92958068847656 152.44338989257812 223.968505859375 142.0701446533203 C 221.69911193847656 164.66310119628906 229.1243438720703 163.64476013183594 211.73390197753906 164.17689514160156" stroke-width="0.0" fill="rgb(27, 33, 68)" opacity="0.7307193"/>
    <path d="M 326.92950439453125 148.4429931640625 C 292.7516784667969 141.1067352294922 290.53778076171875 136.68572998046875 290.5684509277344 164.93748474121094 C 334.311767578125 165.7592315673828 324.84210205078125 159.27784729003906 321.9568176269531 139.0826416015625 C 309.47906494140625 169.4206085205078 316.1589050292969 161.0494842529297 326.4715270996094 148.6752166748047 C 330.0656433105469 139.83544921875 319.1827392578125 156.1643829345703 326.92950439453125 148.4429931640625" stroke-width="0.0" fill="rgb(161, 190, 176)" opacity="0.8268798"/>
    <path d="M 611.5697631835938 570.74658203125 C 568.9691162109375 578.6427001953125 539.2237548828125 561.1409301757812 530.3887329101562 576.3406372070312 C 553.197998046875 576.4929809570312 543.90673828125 583.56591796875 506.8496398925781 567.9172973632812 C 550.831298828125 566.6180419921875 554.1354370117188 564.6705322265625 544.3407592773438 590.0753173828125 C 558.772216796875 592.8915405273438 572.55029296875 583.0720825195312 611.5697631835938 570.74658203125" stroke-width="0.0" fill="rgb(55, 88, 89)" opacity="0.4684858"/>
    <path d="M 432.21429443359375 258.7831115722656 C 422.1067199707031 237.61245727539062 438.8004150390625 264.5716552734375 442.2971496582031 240.6445770263672 C 430.02996826171875 233.67617797851562 427.561767578125 237.96620178222656 406.7298278808594 241.89341735839844 C 416.5557861328125 257.8961181640625 432.2221984863281 260.76983642578125 415.8008117675781 245.704345703125 C 419.1170959472656 262.27301025390625 429.6310729980469 259.9133605957031 432.21429443359375 258.7831115722656" stroke-width="0.0" fill="rgb(138, 142, 174)" opacity="0.53296006"/>
    <path d="M 180.85992431640625 171.76620483398438 C 233.14468383789062 152.88352966308594 248.80747985839844 169.01217651367188 230.18467712402344 161.54571533203125 C 192.64923095703125 166.91525268554688 186.6084442138672 172.6710968017578 171.9571075439453 161.6665802001953 C 192.6568145751953 147.70120239257812 201.88316345214844 159.02413940429688 244.14356994628906 163.42462158203125 C 240.5712432861328 148.22708129882812 232.92184448242188 164.33580017089844 180.85992431640625 171.76620483398438" stroke-width="0.0" fill="rgb(69, 47, 63)" opacity="0.66382843"/>
    <path d="M 103.31086730957031 160.53257751464844 C 104.67684936523438 168.75128173828125 108.29549407958984 179.98593139648438 109.78234100341797 183.6948699951172 C 140.47198486328125 172.94021606445312 120.33753204345703 175.4945526123047 110.071044921875 162.47665405273438 C 117.61157989501953 191.11380004882812 133.16697692871094 163.6222686767578 129.78514099121094 160.74859619140625 C 125.36006164550781 162.0980987548828 111.55673217773438 163.68243408203125 103.31086730957031 160.53257751464844" stroke-width="0.0" fill="rgb(130, 200, 180)" opacity="0.58698463"/>
    <path d="M 20.96053123474121 0.19509679079055786 C 18.281038284301758 10.195096969604492 10.960531234741211 17.51560401916504 0.9605309963226318 20.195096969604492 C -9.039468765258789 17.51560401916504 -16.359975814819336 10.195096969604492 -19.03946876525879 0.19509679079055786 C -16.359975814819336 -9.804903030395508 -9.039468765258789 -17.125410079956055 0.9605309963226318 -19.804903030395508 C 10.960531234741211 -17.125410079956055 18.281038284301758 -9.804903030395508 20.96053123474121 0.19509679079055786" stroke-width="0.0" fill="rgb(47, 172, 106)" opacity="0.8795947" stroke="rgb(46, 34, 110)" stroke-opacity="0.0012365648" stroke-linecap="round" stroke-linejoin="round"/>
    <path d="M 339.2191467285156 224.259765625 C 346.08990478515625 236.27395629882812 324.4715576171875 239.16065979003906 324.8553771972656 246.43191528320312 C 329.8213806152344 239.1545867919922 324.3370361328125 228.74099731445312 309.6165466308594 246.4453582763672 C 323.38916015625 223.5876007080078 334.0513610839844 233.98410034179688 311.6828308105469 275.9895935058594 C 308.3680114746094 254.32720947265625 318.3907165527344 250.91270446777344 339.2191467285156 224.259765625" stroke-width="0.0" fill="rgb(190, 230, 191)" opacity="0.47562006"/>
    <path d="M 235.9543914794922 216.91287231445312 C 239.91293334960938 230.4816131591797 230.11268615722656 242.62794494628906 239.75257873535156 229.8377685546875 C 244.41842651367188 240.00941467285156 243.029541015625 233.88067626953125 240.20291137695312 222.3948974609375 C 254.67930603027344 224.27096557617188 248.0802001953125 231.27381896972656 230.09466552734375 236.12130737304688 C 226.70228576660156 232.82618713378906 227.8624267578125 231.5955352783203 235.9543914794922 216.91287231445312" stroke-width="0.0" fill="rgb(149, 193, 168)" opacity="0.4865368"/>
    <path d="M 193.69151306152344 376.8310241699219 C 182.1748504638672 364.97998046875 171.4001922607422 367.9402770996094 170.54061889648438 395.0124816894531 C 144.4867401123047 413.9090881347656 149.5095672607422 393.18304443359375 175.49493408203125 344.3450927734375 C 172.3544464111328 382.6308898925781 179.9806365966797 373.4585876464844 201.20852661132812 370.0890808105469 C 174.93968200683594 336.13409423828125 181.81103515625 343.28204345703125 193.69151306152344 376.8310241699219" stroke-width="0.0" fill="rgb(51, 47, 43)" opacity="0.45011386"/>
    <path d="M 504.7871398925781 585.626220703125 C 503.8124084472656 605.169677734375 502.27838134765625 586.1773681640625 490.44744873046875 589.2715454101562 C 496.8252258300781 590.89990234375 496.6692199707031 595.6377563476562 490.7476501464844 587.182861328125 C 498.0223388671875 583.0452880859375 510.45281982421875 582.140869140625 520.5572509765625 577.559814453125 C 517.37548828125 585.7034912109375 523.91748046875 595.6812133789062 504.7871398925781 585.626220703125" stroke-width="0.0" fill="rgb(48, 88, 96)" opacity="0.8142949"/>
    <path d="M 20.241430282592773 0.6174895763397217 C 17.56193733215332 10.6174898147583 10.241429328918457 17.93799591064453 0.24142947793006897 20.617488861083984 C -9.758570671081543 17.93799591064453 -17.079076766967773 10.6174898147583 -19.758569717407227 0.6174895763397217 C -17.079076766967773 -9.3825101852417 -9.758570671081543 -16.703018188476562 0.24142947793006897 -19.382511138916016 C 10.241429328918457 -16.703018188476562 17.56193733215332 -9.3825101852417 20.241430282592773 0.6174895763397217" stroke-width="0.0" fill="rgb(79, 56, 225)" opacity="0.8096634" stroke="rgb(201, 22, 226)" stroke-opacity="0.8519699" stroke-linecap="round" stroke-linejoin="round"/>
    <path d="M 20.477062225341797 0.9665542244911194 C 17.797569274902344 10.966554641723633 10.477063179016113 18.28706169128418 0.4770631194114685 20.966554641723633 C -9.522936820983887 18.28706169128418 -16.84344482421875 10.966554641723633 -19.522937774658203 0.9665542244911194 C -16.84344482421875 -9.033445358276367 -9.522936820983887 -16.353952407836914 0.4770631194114685 -19.033445358276367 C 10.477063179016113 -16.353952407836914 17.797569274902344 -9.033445358276367 20.477062225341797 0.9665542244911194" stroke-width="0.0" fill="rgb(86, 244, 112)" opacity="0.97202533" stroke="rgb(186, 148, 162)" stroke-opacity="0.19032082" stroke-linecap="round" stroke-linejoin="round"/>
  </g>
</svg>
