<svg xmlns="http://www.w3.org/2000/svg" viewBox="0.0 0.0 200.0 200.0" height="200px" width="200px"><path fill="black" fill-opacity="1.0"  filling="0" d="M69.0 147.0 C63.0 172.0 59.0 173.0 32.0 184.0 C23.0 191.0 22.0 186.0 23.0 164.0 C27.0 142.0 31.0 141.0 60.0 134.0 C72.0 121.0 74.0 124.0 69.0 147.0 M91.0 82.0 C40.0 132.0 37.0 136.0 31.0 143.0 C30.0 135.0 31.0 126.0 24.0 114.0 C15.0 115.0 16.0 108.0 50.0 102.0 C71.0 85.0 81.0 76.0 91.0 82.0 M133.0 71.0 C127.0 82.0 120.0 82.0 109.0 82.0 C39.0 41.0 43.0 25.0 25.0 0.0 C25.0 0.0 31.0 0.0 53.0 0.0 C74.0 0.0 76.0 0.0 133.0 71.0 M90.0 95.0 C63.0 146.0 52.0 143.0 39.0 148.0 C29.0 148.0 26.0 144.0 22.0 140.0 C31.0 127.0 31.0 118.0 89.0 73.0 C98.0 76.0 97.0 76.0 90.0 95.0 M35.0 193.0 C38.0 199.0 36.0 199.0 22.0 199.0 C0.0 199.0 0.0 199.0 0.0 170.0 C0.0 151.0 0.0 147.0 7.0 150.0 C29.0 161.0 34.0 161.0 35.0 193.0 M88.0 80.0 C72.0 129.0 47.0 119.0 16.0 121.0 C1.0 128.0 0.0 129.0 0.0 77.0 C0.0 58.0 0.0 56.0 41.0 59.0 C69.0 58.0 80.0 55.0 88.0 80.0 M29.0 131.0 C33.0 137.0 30.0 139.0 28.0 139.0 C14.0 137.0 3.0 139.0 0.0 107.0 C0.0 102.0 0.0 100.0 6.0 98.0 C32.0 110.0 29.0 120.0 29.0 131.0 M40.0 138.0 C37.0 156.0 34.0 156.0 3.0 167.0 C0.0 165.0 0.0 163.0 0.0 144.0 C0.0 117.0 0.0 116.0 3.0 123.0 C26.0 131.0 32.0 131.0 40.0 138.0 M199.0 65.0 C199.0 199.0 189.0 179.0 104.0 184.0 C93.0 190.0 90.0 187.0 88.0 141.0 C80.0 92.0 73.0 81.0 144.0 29.0 C199.0 31.0 199.0 35.0 199.0 65.0 M42.0 146.0 C39.0 168.0 44.0 182.0 24.0 181.0 C6.0 181.0 7.0 176.0 8.0 165.0 C11.0 142.0 20.0 141.0 35.0 137.0 C42.0 136.0 45.0 140.0 42.0 146.0 M101.0 149.0 C97.0 192.0 94.0 192.0 79.0 191.0 C43.0 182.0 40.0 179.0 44.0 165.0 C47.0 144.0 42.0 129.0 83.0 107.0 C103.0 116.0 104.0 122.0 101.0 149.0 M78.0 182.0 C82.0 199.0 76.0 197.0 42.0 199.0 C28.0 199.0 27.0 199.0 22.0 194.0 C29.0 159.0 35.0 157.0 47.0 158.0 C67.0 163.0 73.0 161.0 78.0 182.0 M199.0 137.0 C199.0 199.0 199.0 199.0 162.0 199.0 C101.0 199.0 96.0 199.0 86.0 182.0 C88.0 154.0 104.0 162.0 137.0 153.0 C188.0 121.0 199.0 113.0 199.0 137.0 M111.0 184.0 C89.0 199.0 75.0 199.0 59.0 199.0 C51.0 199.0 39.0 199.0 36.0 199.0 C43.0 187.0 52.0 189.0 73.0 173.0 C98.0 163.0 109.0 157.0 111.0 184.0 M199.0 23.0 C199.0 107.0 176.0 90.0 144.0 77.0 C48.0 64.0 64.0 22.0 62.0 1.0 C66.0 0.0 75.0 0.0 106.0 0.0 C169.0 0.0 197.0 0.0 199.0 23.0 M101.0 76.0 C99.0 90.0 96.0 95.0 42.0 82.0 C0.0 72.0 0.0 72.0 0.0 54.0 C0.0 0.0 0.0 0.0 21.0 0.0 C67.0 0.0 66.0 4.0 101.0 76.0 M84.0 27.0 C62.0 44.0 60.0 27.0 53.0 45.0 C33.0 43.0 32.0 36.0 34.0 29.0 C31.0 17.0 32.0 18.0 41.0 28.0 C61.0 58.0 43.0 44.0 84.0 27.0 M67.0 44.0 C54.0 68.0 70.0 78.0 52.0 86.0 C38.0 56.0 34.0 53.0 34.0 42.0 C28.0 43.0 24.0 50.0 49.0 55.0 C53.0 27.0 86.0 16.0 67.0 44.0 M33.0 63.0 C36.0 66.0 37.0 61.0 30.0 63.0 C23.0 71.0 17.0 68.0 13.0 62.0 C18.0 56.0 20.0 53.0 24.0 56.0 C29.0 52.0 32.0 57.0 33.0 63.0 M39.0 74.0 C40.0 83.0 41.0 95.0 27.0 116.0 C2.0 100.0 0.0 93.0 0.0 77.0 C10.0 66.0 16.0 69.0 25.0 68.0 C29.0 66.0 32.0 70.0 39.0 74.0 M83.0 132.0 C68.0 140.0 65.0 96.0 39.0 67.0 C25.0 65.0 26.0 69.0 28.0 72.0 C25.0 64.0 32.0 70.0 44.0 59.0 C38.0 62.0 75.0 66.0 83.0 132.0 M44.0 2.0 C36.0 14.0 31.0 16.0 20.0 25.0 C12.0 20.0 11.0 17.0 8.0 5.0 C8.0 0.0 10.0 0.0 20.0 0.0 C33.0 0.0 37.0 0.0 44.0 2.0 M33.0 24.0 C25.0 25.0 22.0 31.0 17.0 29.0 C22.0 30.0 19.0 27.0 19.0 27.0 C17.0 22.0 19.0 20.0 27.0 18.0 C29.0 19.0 34.0 20.0 33.0 24.0 M37.0 51.0 C32.0 60.0 29.0 62.0 21.0 63.0 C14.0 68.0 13.0 64.0 10.0 49.0 C8.0 45.0 16.0 42.0 31.0 34.0 C39.0 34.0 39.0 39.0 37.0 51.0 M25.0 62.0 C15.0 62.0 15.0 68.0 0.0 87.0 C0.0 80.0 0.0 74.0 0.0 58.0 C0.0 47.0 0.0 42.0 9.0 37.0 C24.0 44.0 26.0 47.0 25.0 62.0 M47.0 66.0 C51.0 88.0 47.0 84.0 30.0 80.0 C25.0 68.0 19.0 66.0 26.0 63.0 C29.0 62.0 28.0 54.0 31.0 43.0 C47.0 38.0 52.0 37.0 47.0 66.0 M32.0 74.0 C34.0 76.0 32.0 73.0 23.0 72.0 C16.0 72.0 11.0 73.0 12.0 69.0 C13.0 57.0 12.0 60.0 24.0 60.0 C30.0 56.0 29.0 62.0 32.0 74.0 M18.0 10.0 C9.0 10.0 7.0 15.0 0.0 28.0 C0.0 27.0 0.0 22.0 0.0 13.0 C0.0 2.0 0.0 0.0 8.0 0.0 C16.0 0.0 16.0 0.0 18.0 10.0 M31.0 15.0 C27.0 22.0 24.0 26.0 21.0 26.0 C12.0 21.0 2.0 26.0 3.0 21.0 C10.0 10.0 11.0 6.0 9.0 8.0 C17.0 12.0 24.0 11.0 31.0 15.0 M75.0 19.0 C55.0 42.0 48.0 42.0 38.0 43.0 C23.0 36.0 21.0 32.0 21.0 17.0 C23.0 5.0 22.0 0.0 37.0 0.0 C57.0 0.0 64.0 0.0 75.0 19.0 M29.0 26.0 C28.0 37.0 28.0 42.0 16.0 48.0 C0.0 51.0 0.0 49.0 0.0 31.0 C1.0 17.0 6.0 18.0 14.0 17.0 C24.0 17.0 27.0 19.0 29.0 26.0 M58.0 37.0 C54.0 52.0 46.0 46.0 32.0 47.0 C15.0 49.0 16.0 48.0 20.0 41.0 C24.0 30.0 27.0 28.0 37.0 26.0 C36.0 21.0 40.0 23.0 58.0 37.0 M75.0 187.0 C80.0 193.0 79.0 198.0 69.0 199.0 C63.0 199.0 64.0 199.0 64.0 192.0 C67.0 186.0 69.0 183.0 75.0 179.0 C78.0 179.0 79.0 182.0 75.0 187.0 M57.0 186.0 C53.0 193.0 55.0 196.0 50.0 199.0 C47.0 197.0 47.0 192.0 43.0 189.0 C44.0 186.0 49.0 185.0 53.0 182.0 C56.0 180.0 58.0 184.0 57.0 186.0 M68.0 199.0 C67.0 199.0 62.0 199.0 57.0 199.0 C52.0 199.0 49.0 199.0 45.0 194.0 C49.0 191.0 51.0 189.0 53.0 191.0 C60.0 189.0 66.0 189.0 68.0 199.0 M86.0 199.0 C89.0 197.0 89.0 199.0 83.0 199.0 C72.0 199.0 70.0 199.0 71.0 198.0 C79.0 187.0 79.0 178.0 81.0 186.0 C82.0 188.0 84.0 187.0 86.0 199.0 M55.0 192.0 C51.0 199.0 48.0 199.0 43.0 199.0 C33.0 199.0 29.0 199.0 33.0 199.0 C40.0 193.0 43.0 190.0 43.0 185.0 C46.0 191.0 50.0 191.0 55.0 192.0 M142.0 85.0 C102.0 199.0 133.0 193.0 89.0 177.0 C73.0 184.0 72.0 182.0 74.0 180.0 C71.0 177.0 82.0 183.0 96.0 161.0 C89.0 167.0 55.0 126.0 142.0 85.0 M83.0 182.0 C87.0 196.0 84.0 199.0 75.0 199.0 C60.0 199.0 63.0 194.0 61.0 186.0 C58.0 180.0 61.0 176.0 69.0 177.0 C76.0 178.0 79.0 180.0 83.0 182.0 M81.0 186.0 C81.0 187.0 81.0 196.0 82.0 199.0 C76.0 197.0 73.0 196.0 76.0 193.0 C75.0 184.0 75.0 179.0 84.0 181.0 C106.0 184.0 97.0 187.0 81.0 186.0 M62.0 188.0 C63.0 190.0 59.0 192.0 53.0 193.0 C49.0 196.0 46.0 193.0 48.0 189.0 C48.0 184.0 51.0 180.0 57.0 181.0 C64.0 178.0 62.0 180.0 62.0 188.0 M89.0 199.0 C102.0 199.0 98.0 199.0 89.0 199.0 C86.0 199.0 81.0 199.0 85.0 195.0 C82.0 186.0 83.0 186.0 87.0 190.0 C86.0 193.0 87.0 198.0 89.0 199.0 M111.0 199.0 C101.0 199.0 95.0 199.0 92.0 199.0 C89.0 199.0 87.0 198.0 86.0 194.0 C86.0 194.0 86.0 189.0 89.0 194.0 C87.0 198.0 90.0 197.0 111.0 199.0 M62.0 191.0 C59.0 193.0 56.0 196.0 54.0 199.0 C42.0 199.0 40.0 199.0 41.0 186.0 C46.0 185.0 48.0 184.0 55.0 182.0 C60.0 180.0 63.0 181.0 62.0 191.0 M90.0 199.0 C97.0 199.0 94.0 199.0 88.0 199.0 C83.0 199.0 78.0 197.0 82.0 197.0 C86.0 196.0 88.0 190.0 84.0 194.0 C87.0 192.0 87.0 197.0 90.0 199.0 M154.0 194.0 C126.0 199.0 102.0 199.0 86.0 199.0 C85.0 199.0 87.0 199.0 84.0 194.0 C85.0 191.0 91.0 188.0 90.0 199.0 C91.0 197.0 100.0 199.0 154.0 194.0 M96.0 168.0 C71.0 173.0 76.0 184.0 69.0 188.0 C66.0 185.0 64.0 180.0 66.0 180.0 C69.0 177.0 53.0 166.0 69.0 131.0 C80.0 192.0 78.0 163.0 96.0 168.0 M68.0 182.0 C68.0 185.0 63.0 186.0 61.0 195.0 C57.0 193.0 53.0 192.0 50.0 186.0 C49.0 176.0 54.0 177.0 59.0 175.0 C70.0 176.0 74.0 179.0 68.0 182.0 M191.0 111.0 C190.0 120.0 180.0 116.0 165.0 129.0 C165.0 126.0 161.0 122.0 158.0 109.0 C156.0 91.0 159.0 89.0 170.0 97.0 C182.0 101.0 187.0 103.0 191.0 111.0 M192.0 94.0 C191.0 103.0 188.0 104.0 181.0 102.0 C167.0 104.0 163.0 103.0 164.0 90.0 C171.0 88.0 172.0 84.0 176.0 83.0 C181.0 86.0 187.0 84.0 192.0 94.0 M155.0 89.0 C156.0 96.0 153.0 100.0 156.0 95.0 C151.0 92.0 146.0 91.0 142.0 88.0 C146.0 89.0 147.0 81.0 147.0 72.0 C156.0 81.0 156.0 88.0 155.0 89.0 M199.0 98.0 C199.0 101.0 198.0 101.0 190.0 105.0 C184.0 108.0 180.0 106.0 177.0 95.0 C176.0 81.0 178.0 83.0 199.0 84.0 C199.0 78.0 199.0 85.0 199.0 98.0 M199.0 111.0 C199.0 115.0 195.0 113.0 189.0 115.0 C185.0 120.0 182.0 116.0 182.0 100.0 C182.0 96.0 179.0 98.0 189.0 99.0 C199.0 101.0 199.0 102.0 199.0 111.0 M195.0 120.0 C190.0 123.0 193.0 131.0 184.0 167.0 C168.0 144.0 169.0 134.0 165.0 129.0 C175.0 112.0 180.0 111.0 187.0 114.0 C194.0 112.0 193.0 114.0 195.0 120.0 M199.0 118.0 C199.0 126.0 199.0 130.0 196.0 126.0 C188.0 128.0 185.0 123.0 187.0 119.0 C188.0 114.0 191.0 113.0 199.0 109.0 C199.0 107.0 199.0 111.0 199.0 118.0 M199.0 121.0 C199.0 127.0 199.0 137.0 189.0 171.0 C174.0 148.0 181.0 137.0 184.0 128.0 C183.0 113.0 185.0 113.0 193.0 117.0 C199.0 118.0 199.0 118.0 199.0 121.0 M199.0 73.0 C199.0 94.0 196.0 96.0 185.0 94.0 C177.0 93.0 178.0 88.0 177.0 81.0 C181.0 85.0 180.0 78.0 183.0 53.0 C199.0 55.0 199.0 58.0 199.0 73.0 M179.0 87.0 C182.0 92.0 182.0 91.0 175.0 90.0 C164.0 92.0 165.0 96.0 164.0 84.0 C169.0 85.0 167.0 76.0 168.0 76.0 C177.0 80.0 179.0 82.0 179.0 87.0 M174.0 90.0 C173.0 97.0 179.0 106.0 162.0 112.0 C153.0 111.0 154.0 104.0 151.0 86.0 C148.0 72.0 151.0 72.0 171.0 74.0 C180.0 77.0 178.0 80.0 174.0 90.0 M159.0 107.0 C160.0 114.0 161.0 114.0 147.0 111.0 C134.0 114.0 126.0 121.0 131.0 111.0 C147.0 93.0 145.0 87.0 148.0 88.0 C153.0 91.0 156.0 91.0 159.0 107.0 M199.0 100.0 C199.0 105.0 199.0 107.0 198.0 110.0 C193.0 103.0 189.0 101.0 188.0 93.0 C189.0 89.0 197.0 92.0 199.0 90.0 C199.0 87.0 199.0 92.0 199.0 100.0 M7.0 0.0 C6.0 4.0 3.0 6.0 0.0 7.0 C0.0 6.0 0.0 4.0 0.0 0.0 C0.0 0.0 0.0 0.0 0.0 0.0 C3.0 0.0 6.0 0.0 7.0 0.0 M7.0 0.0 C6.0 4.0 3.0 6.0 0.0 7.0 C0.0 6.0 0.0 4.0 0.0 0.0 C0.0 0.0 0.0 0.0 0.0 0.0 C3.0 0.0 6.0 0.0 7.0 0.0 M194.0 113.0 C196.0 123.0 195.0 124.0 191.0 119.0 C180.0 118.0 182.0 120.0 182.0 115.0 C180.0 113.0 181.0 104.0 182.0 108.0 C196.0 110.0 196.0 108.0 194.0 113.0 M173.0 121.0 C170.0 138.0 181.0 157.0 149.0 198.0 C107.0 179.0 119.0 170.0 123.0 122.0 C138.0 102.0 144.0 108.0 152.0 110.0 C164.0 108.0 171.0 105.0 173.0 121.0 M145.0 51.0 C134.0 58.0 133.0 62.0 133.0 64.0 C128.0 63.0 124.0 61.0 113.0 49.0 C113.0 39.0 113.0 35.0 131.0 29.0 C142.0 39.0 145.0 45.0 145.0 51.0 M116.0 170.0 C120.0 189.0 116.0 183.0 108.0 191.0 C76.0 186.0 101.0 185.0 100.0 179.0 C99.0 164.0 101.0 163.0 118.0 161.0 C116.0 167.0 113.0 175.0 116.0 170.0 M149.0 69.0 C149.0 74.0 151.0 90.0 117.0 129.0 C108.0 93.0 123.0 79.0 126.0 69.0 C131.0 63.0 134.0 62.0 145.0 64.0 C150.0 64.0 149.0 64.0 149.0 69.0 M134.0 69.0 C131.0 76.0 126.0 75.0 114.0 74.0 C114.0 74.0 107.0 73.0 94.0 65.0 C99.0 53.0 103.0 50.0 114.0 43.0 C134.0 47.0 135.0 51.0 134.0 69.0 M135.0 71.0 C135.0 77.0 139.0 86.0 107.0 116.0 C90.0 97.0 107.0 85.0 117.0 71.0 C126.0 73.0 125.0 68.0 126.0 53.0 C129.0 66.0 132.0 68.0 135.0 71.0 M116.0 53.0 C117.0 75.0 115.0 80.0 105.0 83.0 C98.0 69.0 95.0 68.0 73.0 61.0 C79.0 47.0 86.0 46.0 104.0 48.0 C114.0 50.0 116.0 49.0 116.0 53.0 M117.0 171.0 C121.0 177.0 119.0 170.0 118.0 174.0 C104.0 177.0 105.0 173.0 90.0 169.0 C88.0 159.0 95.0 164.0 117.0 156.0 C114.0 154.0 116.0 154.0 117.0 171.0 M122.0 46.0 C120.0 54.0 115.0 56.0 109.0 57.0 C96.0 53.0 83.0 56.0 59.0 35.0 C83.0 11.0 94.0 16.0 106.0 23.0 C120.0 27.0 121.0 29.0 122.0 46.0 M91.0 164.0 C74.0 166.0 79.0 161.0 79.0 174.0 C77.0 163.0 75.0 159.0 76.0 156.0 C72.0 150.0 73.0 154.0 81.0 154.0 C86.0 157.0 82.0 148.0 91.0 164.0 M135.0 33.0 C125.0 47.0 122.0 51.0 109.0 41.0 C95.0 33.0 90.0 27.0 69.0 32.0 C87.0 17.0 99.0 17.0 107.0 18.0 C108.0 20.0 120.0 16.0 135.0 33.0 M101.0 75.0 C99.0 79.0 94.0 79.0 93.0 87.0 C78.0 93.0 64.0 97.0 61.0 70.0 C58.0 48.0 67.0 49.0 81.0 43.0 C96.0 64.0 96.0 71.0 101.0 75.0 M104.0 84.0 C93.0 84.0 104.0 97.0 83.0 149.0 C79.0 116.0 86.0 103.0 67.0 85.0 C87.0 73.0 94.0 73.0 94.0 74.0 C95.0 76.0 100.0 79.0 104.0 84.0 M137.0 66.0 C137.0 71.0 135.0 75.0 128.0 80.0 C125.0 77.0 123.0 75.0 125.0 72.0 C126.0 63.0 126.0 59.0 133.0 61.0 C137.0 62.0 141.0 66.0 137.0 66.0 M117.0 162.0 C107.0 169.0 108.0 176.0 101.0 175.0 C89.0 167.0 82.0 171.0 91.0 166.0 C94.0 159.0 74.0 166.0 95.0 160.0 C114.0 155.0 120.0 150.0 117.0 162.0 M150.0 65.0 C151.0 76.0 146.0 75.0 138.0 72.0 C137.0 68.0 134.0 65.0 135.0 61.0 C133.0 61.0 137.0 59.0 144.0 43.0 C147.0 47.0 151.0 55.0 150.0 65.0 M147.0 46.0 C146.0 52.0 144.0 54.0 125.0 59.0 C114.0 55.0 111.0 50.0 106.0 32.0 C100.0 20.0 105.0 20.0 120.0 21.0 C130.0 27.0 138.0 35.0 147.0 46.0 M83.0 174.0 C97.0 176.0 95.0 181.0 79.0 181.0 C88.0 173.0 86.0 181.0 80.0 176.0 C77.0 171.0 83.0 164.0 76.0 168.0 C78.0 169.0 89.0 163.0 83.0 174.0 M124.0 43.0 C120.0 52.0 116.0 55.0 104.0 63.0 C99.0 60.0 97.0 57.0 79.0 43.0 C94.0 28.0 101.0 35.0 110.0 34.0 C115.0 36.0 121.0 36.0 124.0 43.0 M82.0 173.0 C93.0 187.0 82.0 189.0 79.0 182.0 C97.0 178.0 72.0 179.0 79.0 174.0 C91.0 174.0 83.0 179.0 81.0 169.0 C97.0 171.0 96.0 174.0 82.0 173.0 M98.0 154.0 C100.0 156.0 96.0 157.0 88.0 161.0 C91.0 158.0 88.0 160.0 81.0 157.0 C80.0 143.0 85.0 135.0 87.0 99.0 C101.0 144.0 93.0 152.0 98.0 154.0 M59.0 71.0 C53.0 66.0 56.0 77.0 51.0 84.0 C49.0 68.0 47.0 64.0 48.0 65.0 C50.0 65.0 42.0 51.0 64.0 30.0 C62.0 63.0 60.0 71.0 59.0 71.0 M95.0 150.0 C94.0 155.0 91.0 158.0 86.0 159.0 C82.0 162.0 80.0 161.0 79.0 145.0 C83.0 143.0 80.0 135.0 80.0 139.0 C86.0 147.0 89.0 150.0 95.0 150.0 M104.0 180.0 C97.0 186.0 88.0 185.0 100.0 184.0 C89.0 182.0 79.0 183.0 80.0 179.0 C99.0 178.0 81.0 171.0 89.0 175.0 C92.0 177.0 96.0 175.0 104.0 180.0 M7.0 0.0 C6.0 4.0 3.0 6.0 0.0 7.0 C0.0 6.0 0.0 4.0 0.0 0.0 C0.0 0.0 0.0 0.0 0.0 0.0 C3.0 0.0 6.0 0.0 7.0 0.0 M7.0 0.0 C6.0 4.0 3.0 6.0 0.0 7.0 C0.0 6.0 0.0 4.0 0.0 0.0 C0.0 0.0 0.0 0.0 0.0 0.0 C3.0 0.0 6.0 0.0 7.0 0.0 M69.0 117.0 C74.0 127.0 76.0 131.0 53.0 138.0 C33.0 148.0 27.0 149.0 25.0 117.0 C32.0 83.0 31.0 74.0 46.0 73.0 C64.0 112.0 65.0 101.0 69.0 117.0 M62.0 71.0 C71.0 97.0 85.0 100.0 63.0 94.0 C47.0 78.0 50.0 69.0 49.0 72.0 C51.0 72.0 48.0 64.0 47.0 67.0 C52.0 74.0 60.0 66.0 62.0 71.0 M106.0 84.0 C102.0 82.0 104.0 90.0 103.0 108.0 C97.0 102.0 87.0 100.0 77.0 88.0 C80.0 67.0 89.0 67.0 100.0 62.0 C108.0 76.0 110.0 83.0 106.0 84.0 M121.0 156.0 C121.0 158.0 114.0 159.0 119.0 160.0 C116.0 161.0 100.0 161.0 83.0 158.0 C103.0 146.0 94.0 130.0 129.0 108.0 C118.0 136.0 125.0 147.0 121.0 156.0 M74.0 129.0 C73.0 125.0 72.0 132.0 76.0 161.0 C58.0 170.0 36.0 170.0 33.0 153.0 C55.0 118.0 66.0 126.0 71.0 125.0 C72.0 126.0 74.0 131.0 74.0 129.0 M90.0 183.0 C94.0 177.0 99.0 186.0 91.0 185.0 C80.0 187.0 80.0 187.0 77.0 184.0 C83.0 174.0 85.0 174.0 87.0 168.0 C75.0 168.0 83.0 181.0 90.0 183.0 M106.0 70.0 C103.0 70.0 103.0 75.0 101.0 81.0 C88.0 83.0 75.0 89.0 74.0 77.0 C79.0 54.0 89.0 58.0 102.0 58.0 C107.0 57.0 107.0 63.0 106.0 70.0 M127.0 72.0 C127.0 78.0 128.0 78.0 117.0 86.0 C120.0 87.0 123.0 82.0 124.0 80.0 C120.0 70.0 124.0 69.0 124.0 69.0 C124.0 68.0 128.0 76.0 127.0 72.0 M111.0 56.0 C113.0 64.0 113.0 65.0 108.0 68.0 C103.0 69.0 101.0 67.0 89.0 60.0 C94.0 47.0 101.0 45.0 112.0 43.0 C121.0 50.0 120.0 53.0 111.0 56.0 M7.0 0.0 C6.0 4.0 4.0 6.0 0.0 7.0 C0.0 6.0 0.0 4.0 0.0 0.0 C0.0 0.0 0.0 0.0 0.0 0.0 C4.0 0.0 6.0 0.0 7.0 0.0 M7.0 0.0 C6.0 4.0 4.0 6.0 0.0 7.0 C0.0 6.0 0.0 4.0 0.0 0.0 C0.0 0.0 0.0 0.0 0.0 0.0 C4.0 0.0 6.0 0.0 7.0 0.0 M118.0 180.0 C118.0 186.0 118.0 185.0 120.0 181.0 C117.0 188.0 116.0 185.0 115.0 185.0 C117.0 186.0 118.0 182.0 119.0 179.0 C118.0 171.0 115.0 177.0 118.0 180.0 M151.0 110.0 C147.0 109.0 147.0 110.0 138.0 109.0 C137.0 111.0 139.0 104.0 140.0 102.0 C139.0 100.0 140.0 95.0 139.0 95.0 C143.0 100.0 149.0 102.0 151.0 110.0 M188.0 133.0 C188.0 141.0 187.0 142.0 180.0 149.0 C177.0 148.0 177.0 142.0 179.0 134.0 C179.0 134.0 181.0 125.0 181.0 124.0 C185.0 125.0 190.0 128.0 188.0 133.0 M124.0 151.0 C122.0 156.0 122.0 160.0 122.0 158.0 C125.0 157.0 120.0 156.0 121.0 158.0 C120.0 153.0 123.0 149.0 125.0 148.0 C124.0 148.0 125.0 149.0 124.0 151.0 M171.0 58.0 C172.0 60.0 171.0 61.0 172.0 62.0 C164.0 61.0 162.0 61.0 163.0 62.0 C162.0 49.0 163.0 49.0 166.0 55.0 C169.0 55.0 168.0 54.0 171.0 58.0 M7.0 0.0 C6.0 4.0 3.0 6.0 0.0 7.0 C0.0 6.0 0.0 4.0 0.0 0.0 C0.0 0.0 0.0 0.0 0.0 0.0 C3.0 0.0 6.0 0.0 7.0 0.0 M7.0 0.0 C6.0 4.0 3.0 6.0 0.0 7.0 C0.0 6.0 0.0 4.0 0.0 0.0 C0.0 0.0 0.0 0.0 0.0 0.0 C3.0 0.0 6.0 0.0 7.0 0.0 M153.0 56.0 C153.0 69.0 153.0 77.0 160.0 67.0 C159.0 65.0 151.0 66.0 149.0 64.0 C150.0 65.0 155.0 64.0 157.0 63.0 C158.0 61.0 158.0 58.0 153.0 56.0 M77.0 48.0 C77.0 43.0 75.0 44.0 70.0 46.0 C79.0 49.0 76.0 46.0 64.0 41.0 C69.0 38.0 74.0 35.0 76.0 33.0 C79.0 40.0 82.0 48.0 77.0 48.0 M3.0 53.0 C8.0 54.0 8.0 53.0 6.0 52.0 C4.0 50.0 0.0 48.0 0.0 46.0 C0.0 48.0 0.0 46.0 3.0 47.0 C4.0 44.0 4.0 50.0 3.0 53.0 M97.0 58.0 C91.0 67.0 87.0 66.0 86.0 66.0 C80.0 65.0 78.0 66.0 79.0 62.0 C76.0 59.0 76.0 52.0 84.0 46.0 C93.0 50.0 97.0 52.0 97.0 58.0 M151.0 62.0 C149.0 76.0 151.0 82.0 140.0 100.0 C125.0 84.0 131.0 76.0 133.0 67.0 C132.0 61.0 130.0 56.0 142.0 43.0 C150.0 54.0 149.0 57.0 151.0 62.0 M90.0 14.0 C87.0 16.0 85.0 18.0 81.0 16.0 C84.0 17.0 79.0 16.0 71.0 12.0 C71.0 5.0 72.0 7.0 81.0 5.0 C87.0 6.0 87.0 10.0 90.0 14.0 M20.0 91.0 C22.0 107.0 22.0 111.0 14.0 111.0 C4.0 110.0 0.0 110.0 0.0 93.0 C0.0 81.0 4.0 86.0 10.0 93.0 C21.0 89.0 24.0 89.0 20.0 91.0 M24.0 192.0 C30.0 195.0 23.0 196.0 18.0 199.0 C17.0 199.0 13.0 199.0 13.0 192.0 C15.0 192.0 21.0 191.0 14.0 190.0 C17.0 192.0 17.0 194.0 24.0 192.0 M183.0 91.0 C183.0 91.0 185.0 90.0 178.0 92.0 C174.0 94.0 172.0 93.0 173.0 85.0 C173.0 72.0 172.0 73.0 182.0 74.0 C184.0 79.0 183.0 84.0 183.0 91.0 M133.0 51.0 C131.0 54.0 134.0 63.0 130.0 65.0 C124.0 69.0 125.0 65.0 120.0 54.0 C118.0 44.0 125.0 45.0 131.0 50.0 C131.0 50.0 134.0 50.0 133.0 51.0 M5.0 67.0 C1.0 66.0 2.0 68.0 2.0 75.0 C0.0 75.0 0.0 72.0 0.0 67.0 C0.0 63.0 0.0 59.0 0.0 64.0 C0.0 68.0 1.0 67.0 5.0 67.0 M193.0 164.0 C194.0 176.0 194.0 177.0 182.0 177.0 C182.0 177.0 180.0 171.0 182.0 161.0 C179.0 163.0 180.0 166.0 187.0 165.0 C186.0 160.0 195.0 163.0 193.0 164.0 M164.0 24.0 C164.0 21.0 162.0 23.0 162.0 33.0 C163.0 27.0 159.0 25.0 159.0 21.0 C156.0 12.0 155.0 14.0 163.0 15.0 C164.0 20.0 165.0 22.0 164.0 24.0 M143.0 32.0 C145.0 36.0 145.0 36.0 140.0 35.0 C138.0 33.0 137.0 29.0 131.0 30.0 C127.0 25.0 130.0 20.0 140.0 19.0 C140.0 25.0 140.0 28.0 143.0 32.0 M144.0 22.0 C146.0 32.0 146.0 34.0 141.0 30.0 C131.0 29.0 131.0 26.0 130.0 19.0 C131.0 18.0 130.0 16.0 131.0 16.0 C136.0 19.0 139.0 20.0 144.0 22.0 M100.0 67.0 C102.0 63.0 97.0 68.0 95.0 77.0 C85.0 74.0 88.0 68.0 84.0 66.0 C83.0 58.0 84.0 53.0 92.0 57.0 C93.0 61.0 94.0 65.0 100.0 67.0 M181.0 17.0 C182.0 22.0 177.0 26.0 173.0 24.0 C175.0 22.0 173.0 22.0 176.0 23.0 C173.0 15.0 177.0 15.0 176.0 11.0 C180.0 13.0 183.0 16.0 181.0 17.0 M199.0 198.0 C173.0 199.0 167.0 199.0 170.0 197.0 C167.0 197.0 166.0 197.0 160.0 197.0 C160.0 190.0 162.0 199.0 162.0 198.0 C177.0 198.0 197.0 194.0 199.0 198.0 M79.0 54.0 C76.0 53.0 77.0 60.0 76.0 61.0 C63.0 60.0 61.0 62.0 64.0 58.0 C65.0 46.0 64.0 41.0 77.0 39.0 C80.0 44.0 80.0 51.0 79.0 54.0 M7.0 0.0 C6.0 4.0 3.0 6.0 0.0 7.0 C0.0 6.0 0.0 4.0 0.0 0.0 C0.0 0.0 0.0 0.0 0.0 0.0 C3.0 0.0 6.0 0.0 7.0 0.0 M7.0 0.0 C6.0 4.0 3.0 6.0 0.0 7.0 C0.0 6.0 0.0 4.0 0.0 0.0 C0.0 0.0 0.0 0.0 0.0 0.0 C3.0 0.0 6.0 0.0 7.0 0.0 M190.0 148.0 C190.0 155.0 190.0 154.0 187.0 152.0 C176.0 152.0 176.0 154.0 172.0 152.0 C170.0 139.0 173.0 133.0 175.0 141.0 C189.0 141.0 192.0 141.0 190.0 148.0 M198.0 179.0 C199.0 184.0 199.0 185.0 196.0 181.0 C189.0 181.0 188.0 179.0 189.0 176.0 C191.0 172.0 189.0 169.0 193.0 171.0 C197.0 171.0 198.0 175.0 198.0 179.0 M97.0 34.0 C91.0 36.0 82.0 35.0 89.0 31.0 C81.0 30.0 72.0 27.0 61.0 30.0 C74.0 28.0 79.0 25.0 79.0 25.0 C88.0 23.0 94.0 23.0 97.0 34.0 M7.0 0.0 C6.0 3.0 3.0 6.0 0.0 7.0 C0.0 6.0 0.0 3.0 0.0 0.0 C0.0 0.0 0.0 0.0 0.0 0.0 C3.0 0.0 6.0 0.0 7.0 0.0 M7.0 0.0 C6.0 3.0 3.0 6.0 0.0 7.0 C0.0 6.0 0.0 3.0 0.0 0.0 C0.0 0.0 0.0 0.0 0.0 0.0 C3.0 0.0 6.0 0.0 7.0 0.0"></path></svg>